Comic Neue Regular.ufo
<glyph name="exclam" format="1">
  <advance width="196"/>
  <unicode hex="0021"/>
  <outline>
    <contour>
      <point x="67" y="181" type="line" smooth="yes"/>
      <point x="67" y="165"/>
      <point x="80" y="152"/>
      <point x="96" y="152" type="curve" smooth="yes"/>
      <point x="112" y="152"/>
      <point x="125" y="165"/>
      <point x="125" y="181" type="curve" smooth="yes"/>
      <point x="125" y="663" type="line" smooth="yes"/>
      <point x="125" y="679"/>
      <point x="112" y="693"/>
      <point x="96" y="693" type="curve" smooth="yes"/>
      <point x="80" y="693"/>
      <point x="67" y="679"/>
      <point x="67" y="663" type="curve" smooth="yes"/>
    </contour>
    <contour>
      <point x="127" y="66"/>
      <point x="114" y="83"/>
      <point x="95" y="83" type="curve" smooth="yes"/>
      <point x="74" y="83"/>
      <point x="55" y="61"/>
      <point x="55" y="37" type="curve" smooth="yes"/>
      <point x="55" y="16"/>
      <point x="68" y="0"/>
      <point x="87" y="0" type="curve" smooth="yes"/>
      <point x="107" y="0"/>
      <point x="127" y="20"/>
      <point x="127" y="47" type="curve" smooth="yes"/>
    </contour>
  </outline>
</glyph>
<glyph name="quotedbl" format="1">
  <advance width="313"/>
  <unicode hex="0022"/>
  <outline>
    <contour>
      <point x="112" y="500"/>
      <point x="125" y="512"/>
      <point x="125" y="528" type="curve" smooth="yes"/>
      <point x="125" y="662" type="line" smooth="yes"/>
      <point x="125" y="677"/>
      <point x="112" y="690"/>
      <point x="97" y="690" type="curve" smooth="yes"/>
      <point x="81" y="690"/>
      <point x="69" y="677"/>
      <point x="69" y="662" type="curve" smooth="yes"/>
      <point x="69" y="528" type="line" smooth="yes"/>
      <point x="69" y="512"/>
      <point x="81" y="500"/>
      <point x="97" y="500" type="curve" smooth="yes"/>
    </contour>
    <contour>
      <point x="231" y="500"/>
      <point x="244" y="512"/>
      <point x="244" y="528" type="curve" smooth="yes"/>
      <point x="244" y="662" type="line" smooth="yes"/>
      <point x="244" y="677"/>
      <point x="231" y="690"/>
      <point x="216" y="690" type="curve" smooth="yes"/>
      <point x="200" y="690"/>
      <point x="188" y="677"/>
      <point x="188" y="662" type="curve" smooth="yes"/>
      <point x="188" y="528" type="line" smooth="yes"/>
      <point x="188" y="512"/>
      <point x="200" y="500"/>
      <point x="216" y="500" type="curve" smooth="yes"/>
    </contour>
  </outline>
</glyph>
<glyph name="slash" format="1">
  <advance width="545"/>
  <unicode hex="002F"/>
  <outline>
    <contour>
      <point x="107" y="-1"/>
      <point x="116" y="4"/>
      <point x="121" y="13" type="curve" smooth="yes"/>
      <point x="469" y="641" type="line" smooth="yes"/>
      <point x="473" y="648"/>
      <point x="478" y="657"/>
      <point x="478" y="666" type="curve" smooth="yes"/>
      <point x="478" y="679"/>
      <point x="466" y="692"/>
      <point x="450" y="692" type="curve" smooth="yes"/>
      <point x="440" y="692"/>
      <point x="430" y="688"/>
      <point x="425" y="678" type="curve"/>
      <point x="72" y="41" type="line"/>
      <point x="70" y="37"/>
      <point x="69" y="32"/>
      <point x="69" y="27" type="curve" smooth="yes"/>
      <point x="69" y="12"/>
      <point x="80" y="-1"/>
      <point x="97" y="-1" type="curve" smooth="yes"/>
    </contour>
  </outline>
</glyph>
<glyph name="three" format="1">
  <advance width="543"/>
  <unicode hex="0033"/>
  <outline>
    <contour>
      <point x="74" y="101"/>
      <point x="126" y="-6"/>
      <point x="267" y="-6" type="curve" smooth="yes"/>
      <point x="346" y="-6"/>
      <point x="474" y="48"/>
      <point x="474" y="200" type="curve" smooth="yes"/>
      <point x="474" y="281"/>
      <point x="434" y="351"/>
      <point x="358" y="383" type="curve"/>
      <point x="417" y="415"/>
      <point x="458" y="469"/>
      <point x="458" y="532" type="curve" smooth="yes"/>
      <point x="458" y="618"/>
      <point x="374" y="684"/>
      <point x="266" y="684" type="curve" smooth="yes"/>
      <point x="208" y="684"/>
      <point x="159" y="664"/>
      <point x="130" y="646" type="curve" smooth="yes"/>
      <point x="103" y="629"/>
      <point x="97" y="617"/>
      <point x="97" y="607" type="curve" smooth="yes"/>
      <point x="97" y="594"/>
      <point x="106" y="579"/>
      <point x="125" y="579" type="curve" smooth="yes"/>
      <point x="132" y="579"/>
      <point x="137" y="582"/>
      <point x="145" y="588" type="curve" smooth="yes"/>
      <point x="160" y="599"/>
      <point x="195" y="628"/>
      <point x="266" y="628" type="curve" smooth="yes"/>
      <point x="354" y="628"/>
      <point x="402" y="578"/>
      <point x="402" y="532" type="curve" smooth="yes"/>
      <point x="402" y="465"/>
      <point x="321" y="409"/>
      <point x="249" y="409" type="curve" smooth="yes"/>
      <point x="233" y="409"/>
      <point x="221" y="397"/>
      <point x="221" y="381" type="curve" smooth="yes"/>
      <point x="221" y="366"/>
      <point x="233" y="353"/>
      <point x="248" y="353" type="curve" smooth="yes"/>
      <point x="296" y="353"/>
      <point x="418" y="326"/>
      <point x="418" y="200" type="curve" smooth="yes"/>
      <point x="418" y="97"/>
      <point x="336" y="50"/>
      <point x="265" y="50" type="curve" smooth="yes"/>
      <point x="177" y="50"/>
      <point x="133" y="109"/>
      <point x="120" y="133" type="curve" smooth="yes"/>
      <point x="115" y="142"/>
      <point x="107" y="148"/>
      <point x="95" y="148" type="curve" smooth="yes"/>
      <point x="80" y="148"/>
      <point x="68" y="137"/>
      <point x="68" y="122" type="curve" smooth="yes"/>
      <point x="68" y="118"/>
      <point x="68" y="112"/>
      <point x="72" y="104" type="curve"/>
    </contour>
  </outline>
</glyph>
<glyph name="five" format="1">
  <advance width="559"/>
  <unicode hex="0035"/>
  <outline>
    <contour>
      <point x="113" y="142"/>
      <point x="109" y="148"/>
      <point x="95" y="148" type="curve" smooth="yes"/>
      <point x="80" y="148"/>
      <point x="67" y="135"/>
      <point x="67" y="120" type="curve" smooth="yes"/>
      <point x="67" y="115"/>
      <point x="68" y="110"/>
      <point x="70" y="106" type="curve" smooth="yes"/>
      <point x="85" y="75"/>
      <point x="154" y="-3"/>
      <point x="267" y="-3" type="curve" smooth="yes"/>
      <point x="386" y="-3"/>
      <point x="495" y="112"/>
      <point x="495" y="253" type="curve" smooth="yes"/>
      <point x="495" y="391"/>
      <point x="406" y="483"/>
      <point x="287" y="483" type="curve" smooth="yes"/>
      <point x="232" y="483"/>
      <point x="188" y="464"/>
      <point x="156" y="445" type="curve"/>
      <point x="173" y="617" type="line"/>
      <point x="439" y="617" type="line" smooth="yes"/>
      <point x="454" y="617"/>
      <point x="467" y="629"/>
      <point x="467" y="645" type="curve" smooth="yes"/>
      <point x="467" y="660"/>
      <point x="454" y="673"/>
      <point x="439" y="673" type="curve" smooth="yes"/>
      <point x="148" y="673" type="line" smooth="yes"/>
      <point x="134" y="673"/>
      <point x="121" y="662"/>
      <point x="120" y="648" type="curve" smooth="yes"/>
      <point x="93" y="385" type="line" smooth="yes"/>
      <point x="91" y="368"/>
      <point x="102" y="352"/>
      <point x="122" y="352" type="curve" smooth="yes"/>
      <point x="130" y="352"/>
      <point x="136" y="355"/>
      <point x="143" y="362" type="curve" smooth="yes"/>
      <point x="148" y="367"/>
      <point x="199" y="427"/>
      <point x="287" y="427" type="curve" smooth="yes"/>
      <point x="392" y="427"/>
      <point x="439" y="339"/>
      <point x="439" y="253" type="curve" smooth="yes"/>
      <point x="439" y="145"/>
      <point x="358" y="53"/>
      <point x="267" y="53" type="curve" smooth="yes"/>
      <point x="200" y="53"/>
      <point x="156" y="82"/>
      <point x="120" y="133" type="curve"/>
    </contour>
  </outline>
</glyph>
<glyph name="seven" format="1">
  <advance width="501"/>
  <unicode hex="0037"/>
  <outline>
    <contour>
      <point x="153" y="1"/>
      <point x="163" y="6"/>
      <point x="168" y="16" type="curve" smooth="yes"/>
      <point x="477" y="629" type="line" smooth="yes"/>
      <point x="479" y="633"/>
      <point x="480" y="637"/>
      <point x="480" y="641" type="curve" smooth="yes"/>
      <point x="480" y="657"/>
      <point x="468" y="670"/>
      <point x="452" y="670" type="curve" smooth="yes"/>
      <point x="92" y="670" type="line" smooth="yes"/>
      <point x="76" y="670"/>
      <point x="64" y="657"/>
      <point x="64" y="642" type="curve" smooth="yes"/>
      <point x="64" y="626"/>
      <point x="76" y="614"/>
      <point x="92" y="614" type="curve" smooth="yes"/>
      <point x="407" y="614" type="line"/>
      <point x="118" y="41" type="line" smooth="yes"/>
      <point x="116" y="37"/>
      <point x="115" y="33"/>
      <point x="115" y="29" type="curve" smooth="yes"/>
      <point x="115" y="14"/>
      <point x="127" y="1"/>
      <point x="143" y="1" type="curve" smooth="yes"/>
    </contour>
  </outline>
</glyph>
<glyph name="eight" format="1">
  <advance width="547"/>
  <unicode hex="0038"/>
  <outline>
    <contour>
      <point x="391" y="-3"/>
      <point x="478" y="79"/>
      <point x="478" y="189" type="curve" smooth="yes"/>
      <point x="478" y="268"/>
      <point x="431" y="335"/>
      <point x="352" y="375" type="curve"/>
      <point x="407" y="403"/>
      <point x="461" y="446"/>
      <point x="461" y="526" type="curve" smooth="yes"/>
      <point x="461" y="620"/>
      <point x="387" y="686"/>
      <point x="283" y="686" type="curve" smooth="yes"/>
      <point x="184" y="686"/>
      <point x="99" y="620"/>
      <point x="99" y="510" type="curve" smooth="yes"/>
      <point x="99" y="434"/>
      <point x="149" y="393"/>
      <point x="205" y="368" type="curve"/>
      <point x="140" y="336"/>
      <point x="69" y="284"/>
      <point x="66" y="179" type="curve" smooth="yes"/>
      <point x="66" y="74"/>
      <point x="152" y="-3"/>
      <point x="272" y="-3" type="curve" smooth="yes"/>
    </contour>
    <contour>
      <point x="353" y="321"/>
      <point x="424" y="270"/>
      <point x="424" y="186" type="curve" smooth="yes"/>
      <point x="424" y="94"/>
      <point x="343" y="52"/>
      <point x="272" y="52" type="curve" smooth="yes"/>
      <point x="188" y="52"/>
      <point x="121" y="102"/>
      <point x="121" y="173" type="curve" smooth="yes"/>
      <point x="121" y="277"/>
      <point x="210" y="311"/>
      <point x="282" y="343" type="curve"/>
    </contour>
    <contour>
      <point x="351" y="630"/>
      <point x="406" y="593"/>
      <point x="406" y="532" type="curve" smooth="yes"/>
      <point x="406" y="485"/>
      <point x="384" y="442"/>
      <point x="278" y="401" type="curve"/>
      <point x="189" y="426"/>
      <point x="153" y="459"/>
      <point x="153" y="514" type="curve" smooth="yes"/>
      <point x="153" y="629"/>
      <point x="280" y="630"/>
      <point x="283" y="630" type="curve" smooth="yes"/>
    </contour>
  </outline>
</glyph>
<glyph name="nine" format="1">
  <advance width="546"/>
  <unicode hex="0039"/>
  <outline>
    <contour>
      <point x="404" y="342"/>
      <point x="345" y="290"/>
      <point x="252" y="290" type="curve" smooth="yes"/>
      <point x="219" y="290"/>
      <point x="113" y="301"/>
      <point x="113" y="439" type="curve" smooth="yes"/>
      <point x="113" y="597"/>
      <point x="220" y="631"/>
      <point x="262" y="631" type="curve" smooth="yes"/>
      <point x="338" y="631"/>
      <point x="428" y="597"/>
      <point x="428" y="434" type="curve" smooth="yes"/>
      <point x="428" y="409"/>
      <point x="427" y="385"/>
      <point x="423" y="361" type="curve"/>
    </contour>
    <contour>
      <point x="259" y="28"/>
      <point x="480" y="142"/>
      <point x="480" y="434" type="curve" smooth="yes"/>
      <point x="480" y="624"/>
      <point x="368" y="684"/>
      <point x="262" y="684" type="curve" smooth="yes"/>
      <point x="208" y="684"/>
      <point x="61" y="641"/>
      <point x="61" y="439" type="curve" smooth="yes"/>
      <point x="61" y="306"/>
      <point x="147" y="237"/>
      <point x="252" y="237" type="curve" smooth="yes"/>
      <point x="315" y="237"/>
      <point x="365" y="257"/>
      <point x="402" y="279" type="curve"/>
      <point x="367" y="180"/>
      <point x="283" y="98"/>
      <point x="184" y="50" type="curve" smooth="yes"/>
      <point x="175" y="46"/>
      <point x="169" y="37"/>
      <point x="169" y="26" type="curve" smooth="yes"/>
      <point x="169" y="11"/>
      <point x="180" y="0"/>
      <point x="195" y="0" type="curve" smooth="yes"/>
      <point x="202" y="0"/>
      <point x="207" y="2"/>
      <point x="213" y="5" type="curve" smooth="yes"/>
    </contour>
  </outline>
</glyph>
<glyph name="G" format="1">
  <advance width="751"/>
  <unicode hex="0047"/>
  <outline>
    <contour>
      <point x="664" y="282"/>
      <point x="625" y="296"/>
      <point x="562" y="296" type="curve" smooth="yes"/>
      <point x="488" y="296"/>
      <point x="427" y="278"/>
      <point x="424" y="277" type="curve" smooth="yes"/>
      <point x="411" y="273"/>
      <point x="404" y="262"/>
      <point x="404" y="250" type="curve" smooth="yes"/>
      <point x="404" y="232"/>
      <point x="418" y="221"/>
      <point x="432" y="221" type="curve" smooth="yes"/>
      <point x="449" y="221"/>
      <point x="483" y="239"/>
      <point x="563" y="239" type="curve" smooth="yes"/>
      <point x="573" y="239"/>
      <point x="582" y="239"/>
      <point x="591" y="238" type="curve"/>
      <point x="563" y="126"/>
      <point x="476" y="56"/>
      <point x="361" y="56" type="curve" smooth="yes"/>
      <point x="195" y="56"/>
      <point x="117" y="212"/>
      <point x="117" y="331" type="curve" smooth="yes"/>
      <point x="117" y="422"/>
      <point x="184" y="626"/>
      <point x="377" y="626" type="curve" smooth="yes"/>
      <point x="503" y="626"/>
      <point x="561" y="554"/>
      <point x="586" y="489" type="curve" smooth="yes"/>
      <point x="591" y="476"/>
      <point x="603" y="470"/>
      <point x="614" y="470" type="curve" smooth="yes"/>
      <point x="630" y="470"/>
      <point x="641" y="480"/>
      <point x="641" y="495" type="curve" smooth="yes"/>
      <point x="641" y="536"/>
      <point x="566" y="683"/>
      <point x="377" y="683" type="curve" smooth="yes"/>
      <point x="182" y="683"/>
      <point x="60" y="498"/>
      <point x="60" y="331" type="curve" smooth="yes"/>
      <point x="60" y="162"/>
      <point x="175" y="-1"/>
      <point x="361" y="-1" type="curve" smooth="yes"/>
      <point x="516" y="-1"/>
      <point x="617" y="101"/>
      <point x="647" y="228" type="curve"/>
      <point x="652" y="226"/>
      <point x="659" y="224"/>
      <point x="662" y="224" type="curve" smooth="yes"/>
      <point x="676" y="224"/>
      <point x="690" y="235"/>
      <point x="690" y="252" type="curve" smooth="yes"/>
      <point x="690" y="264"/>
      <point x="684" y="275"/>
      <point x="672" y="279" type="curve"/>
    </contour>
  </outline>
</glyph>
<glyph name="H" format="1">
  <advance width="685"/>
  <unicode hex="0048"/>
  <outline>
    <contour>
      <point x="576" y="681"/>
      <point x="563" y="669"/>
      <point x="563" y="653" type="curve" smooth="yes"/>
      <point x="563" y="407" type="line"/>
      <point x="122" y="346" type="line"/>
      <point x="122" y="653" type="line" smooth="yes"/>
      <point x="122" y="669"/>
      <point x="109" y="681"/>
      <point x="93" y="681" type="curve" smooth="yes"/>
      <point x="77" y="681"/>
      <point x="65" y="669"/>
      <point x="65" y="653" type="curve" smooth="yes"/>
      <point x="65" y="28" type="line" smooth="yes"/>
      <point x="65" y="13"/>
      <point x="77" y="0"/>
      <point x="93" y="0" type="curve" smooth="yes"/>
      <point x="109" y="0"/>
      <point x="122" y="13"/>
      <point x="122" y="28" type="curve" smooth="yes"/>
      <point x="122" y="288" type="line"/>
      <point x="563" y="349" type="line"/>
      <point x="563" y="28" type="line" smooth="yes"/>
      <point x="563" y="13"/>
      <point x="576" y="0"/>
      <point x="592" y="0" type="curve" smooth="yes"/>
      <point x="607" y="0"/>
      <point x="620" y="13"/>
      <point x="620" y="28" type="curve" smooth="yes"/>
      <point x="620" y="653" type="line" smooth="yes"/>
      <point x="620" y="669"/>
      <point x="607" y="681"/>
      <point x="592" y="681" type="curve" smooth="yes"/>
    </contour>
  </outline>
</glyph>
<glyph name="I" format="1">
  <advance width="433"/>
  <unicode hex="0049"/>
  <outline>
    <contour>
      <point x="246" y="56" type="line"/>
      <point x="246" y="624" type="line"/>
      <point x="345" y="624" type="line" smooth="yes"/>
      <point x="361" y="624"/>
      <point x="373" y="637"/>
      <point x="373" y="653" type="curve" smooth="yes"/>
      <point x="373" y="669"/>
      <point x="361" y="681"/>
      <point x="345" y="681" type="curve" smooth="yes"/>
      <point x="89" y="681" type="line" smooth="yes"/>
      <point x="73" y="681"/>
      <point x="60" y="669"/>
      <point x="60" y="653" type="curve" smooth="yes"/>
      <point x="60" y="637"/>
      <point x="73" y="624"/>
      <point x="89" y="624" type="curve" smooth="yes"/>
      <point x="189" y="624" type="line"/>
      <point x="189" y="56" type="line"/>
      <point x="89" y="56" type="line" smooth="yes"/>
      <point x="73" y="56"/>
      <point x="60" y="44"/>
      <point x="60" y="28" type="curve" smooth="yes"/>
      <point x="60" y="12"/>
      <point x="73" y="-1"/>
      <point x="89" y="-1" type="curve" smooth="yes"/>
      <point x="345" y="-1" type="line" smooth="yes"/>
      <point x="361" y="-1"/>
      <point x="373" y="12"/>
      <point x="373" y="28" type="curve" smooth="yes"/>
      <point x="373" y="44"/>
      <point x="362" y="56"/>
      <point x="345" y="56" type="curve" smooth="yes"/>
    </contour>
  </outline>
</glyph>
<glyph name="L" format="1">
  <advance width="477"/>
  <unicode hex="004C"/>
  <outline>
    <contour>
      <point x="440" y="24" type="line" smooth="yes"/>
      <point x="455" y="25"/>
      <point x="466" y="38"/>
      <point x="466" y="52" type="curve" smooth="yes"/>
      <point x="466" y="70"/>
      <point x="453" y="81"/>
      <point x="436" y="80" type="curve" smooth="yes"/>
      <point x="121" y="58" type="line"/>
      <point x="121" y="653" type="line" smooth="yes"/>
      <point x="121" y="668"/>
      <point x="108" y="681"/>
      <point x="93" y="681" type="curve" smooth="yes"/>
      <point x="77" y="681"/>
      <point x="65" y="668"/>
      <point x="65" y="653" type="curve" smooth="yes"/>
      <point x="65" y="28" type="line" smooth="yes"/>
      <point x="65" y="13"/>
      <point x="79" y="-1"/>
      <point x="94" y="0" type="curve" smooth="yes"/>
    </contour>
  </outline>
</glyph>
<glyph name="M" format="1">
  <advance width="857"/>
  <unicode hex="004D"/>
  <outline>
    <contour>
      <point x="425" y="0"/>
      <point x="436" y="7"/>
      <point x="440" y="18" type="curve" smooth="yes"/>
      <point x="633" y="553" type="line"/>
      <point x="751" y="22" type="line" smooth="yes"/>
      <point x="754" y="9"/>
      <point x="764" y="0"/>
      <point x="779" y="0" type="curve" smooth="yes"/>
      <point x="795" y="0"/>
      <point x="806" y="12"/>
      <point x="806" y="24" type="curve" smooth="yes"/>
      <point x="806" y="31"/>
      <point x="805" y="40"/>
      <point x="802" y="52" type="curve" smooth="yes"/>
      <point x="666" y="659" type="line" smooth="yes"/>
      <point x="663" y="672"/>
      <point x="654" y="680"/>
      <point x="641" y="681" type="curve"/>
      <point x="628" y="681"/>
      <point x="617" y="675"/>
      <point x="613" y="663" type="curve" smooth="yes"/>
      <point x="415" y="115" type="line"/>
      <point x="242" y="662" type="line"/>
      <point x="238" y="673"/>
      <point x="228" y="681"/>
      <point x="216" y="681" type="curve" smooth="yes"/>
      <point x="202" y="681"/>
      <point x="191" y="673"/>
      <point x="188" y="659" type="curve" smooth="yes"/>
      <point x="54" y="49" type="line" smooth="yes"/>
      <point x="52" y="41"/>
      <point x="50" y="30"/>
      <point x="50" y="25" type="curve" smooth="yes"/>
      <point x="50" y="15"/>
      <point x="59" y="0"/>
      <point x="77" y="0" type="curve" smooth="yes"/>
      <point x="90" y="0"/>
      <point x="102" y="8"/>
      <point x="105" y="22" type="curve" smooth="yes"/>
      <point x="220" y="545" type="line"/>
      <point x="387" y="19" type="line"/>
      <point x="390" y="8"/>
      <point x="401" y="0"/>
      <point x="413" y="0" type="curve" smooth="yes"/>
    </contour>
  </outline>
</glyph>
<glyph name="P" format="1">
  <advance width="547"/>
  <unicode hex="0050"/>
  <outline>
    <contour>
      <point x="109" y="0"/>
      <point x="121" y="12"/>
      <point x="121" y="28" type="curve" smooth="yes"/>
      <point x="121" y="239" type="line"/>
      <point x="261" y="239"/>
      <point x="517" y="291"/>
      <point x="517" y="477" type="curve" smooth="yes"/>
      <point x="517" y="608"/>
      <point x="396" y="682"/>
      <point x="144" y="682" type="curve" smooth="yes"/>
      <point x="67" y="682"/>
      <point x="65" y="671"/>
      <point x="65" y="641" type="curve" smooth="yes"/>
      <point x="65" y="28" type="line" smooth="yes"/>
      <point x="65" y="12"/>
      <point x="78" y="0"/>
      <point x="93" y="0" type="curve" smooth="yes"/>
    </contour>
    <contour>
      <point x="121" y="625" type="line"/>
      <point x="130" y="626"/>
      <point x="148" y="626"/>
      <point x="161" y="626" type="curve" smooth="yes"/>
      <point x="353" y="626"/>
      <point x="461" y="573"/>
      <point x="461" y="477" type="curve" smooth="yes"/>
      <point x="461" y="322"/>
      <point x="207" y="295"/>
      <point x="121" y="295" type="curve"/>
    </contour>
  </outline>
</glyph>
<glyph name="R" format="1">
  <advance width="597"/>
  <unicode hex="0052"/>
  <outline>
    <contour>
      <point x="476" y="173"/>
      <point x="377" y="250"/>
      <point x="333" y="276" type="curve"/>
      <point x="427" y="308"/>
      <point x="521" y="366"/>
      <point x="521" y="478" type="curve" smooth="yes"/>
      <point x="521" y="611"/>
      <point x="395" y="688"/>
      <point x="170" y="688" type="curve" smooth="yes"/>
      <point x="81" y="688"/>
      <point x="65" y="689"/>
      <point x="65" y="648" type="curve" smooth="yes"/>
      <point x="65" y="28" type="line" smooth="yes"/>
      <point x="65" y="12"/>
      <point x="77" y="0"/>
      <point x="93" y="0" type="curve" smooth="yes"/>
      <point x="108" y="0"/>
      <point x="121" y="12"/>
      <point x="121" y="28" type="curve" smooth="yes"/>
      <point x="121" y="241" type="line"/>
      <point x="155" y="246"/>
      <point x="198" y="250"/>
      <point x="217" y="250" type="curve" smooth="yes"/>
      <point x="260" y="250"/>
      <point x="362" y="242"/>
      <point x="493" y="16" type="curve" smooth="yes"/>
      <point x="499" y="6"/>
      <point x="508" y="0"/>
      <point x="518" y="0" type="curve" smooth="yes"/>
      <point x="535" y="0"/>
      <point x="546" y="14"/>
      <point x="546" y="28" type="curve" smooth="yes"/>
      <point x="546" y="32"/>
      <point x="545" y="37"/>
      <point x="543" y="41" type="curve" smooth="yes"/>
    </contour>
    <contour>
      <point x="121" y="631" type="line"/>
      <point x="136" y="632"/>
      <point x="157" y="632"/>
      <point x="167" y="632" type="curve" smooth="yes"/>
      <point x="355" y="632"/>
      <point x="465" y="580"/>
      <point x="465" y="478" type="curve" smooth="yes"/>
      <point x="465" y="349"/>
      <point x="265" y="300"/>
      <point x="121" y="297" type="curve"/>
    </contour>
  </outline>
</glyph>
<glyph name="S" format="1">
  <advance width="598"/>
  <unicode hex="0053"/>
  <outline>
    <contour>
      <point x="213" y="417"/>
      <point x="159" y="456"/>
      <point x="159" y="506" type="curve" smooth="yes"/>
      <point x="159" y="602"/>
      <point x="237" y="632"/>
      <point x="324" y="632" type="curve" smooth="yes"/>
      <point x="396" y="632"/>
      <point x="473" y="604"/>
      <point x="480" y="542" type="curve"/>
      <point x="481" y="529"/>
      <point x="493" y="518"/>
      <point x="507" y="518" type="curve" smooth="yes"/>
      <point x="523" y="518"/>
      <point x="535" y="531"/>
      <point x="534" y="548" type="curve" smooth="yes"/>
      <point x="526" y="662"/>
      <point x="401" y="682"/>
      <point x="327" y="682" type="curve" smooth="yes"/>
      <point x="213" y="682"/>
      <point x="95" y="640"/>
      <point x="95" y="509" type="curve" smooth="yes"/>
      <point x="95" y="409"/>
      <point x="208" y="357"/>
      <point x="305" y="331" type="curve" smooth="yes"/>
      <point x="463" y="288"/>
      <point x="474" y="228"/>
      <point x="474" y="198" type="curve" smooth="yes"/>
      <point x="474" y="93"/>
      <point x="378" y="53"/>
      <point x="303" y="53" type="curve" smooth="yes"/>
      <point x="232" y="53"/>
      <point x="146" y="87"/>
      <point x="120" y="163" type="curve" smooth="yes"/>
      <point x="115" y="177"/>
      <point x="105" y="186"/>
      <point x="90" y="186" type="curve" smooth="yes"/>
      <point x="73" y="186"/>
      <point x="60" y="173"/>
      <point x="60" y="157" type="curve" smooth="yes"/>
      <point x="60" y="152"/>
      <point x="62" y="144"/>
      <point x="64" y="140" type="curve"/>
      <point x="97" y="58"/>
      <point x="191" y="0"/>
      <point x="304" y="0" type="curve" smooth="yes"/>
      <point x="407" y="0"/>
      <point x="537" y="60"/>
      <point x="537" y="191" type="curve" smooth="yes"/>
      <point x="537" y="283"/>
      <point x="465" y="347"/>
      <point x="318" y="388" type="curve" smooth="yes"/>
    </contour>
  </outline>
</glyph>
<glyph name="T" format="1">
  <advance width="522"/>
  <unicode hex="0054"/>
  <outline>
    <contour>
      <point x="38" y="681" type="line" smooth="yes"/>
      <point x="23" y="681"/>
      <point x="10" y="669"/>
      <point x="10" y="653" type="curve" smooth="yes"/>
      <point x="10" y="638"/>
      <point x="23" y="625"/>
      <point x="38" y="625" type="curve" smooth="yes"/>
      <point x="226" y="625" type="line"/>
      <point x="226" y="28" type="line" smooth="yes"/>
      <point x="226" y="13"/>
      <point x="239" y="0"/>
      <point x="254" y="0" type="curve" smooth="yes"/>
      <point x="270" y="0"/>
      <point x="282" y="13"/>
      <point x="282" y="28" type="curve" smooth="yes"/>
      <point x="282" y="625" type="line"/>
      <point x="484" y="625" type="line" smooth="yes"/>
      <point x="500" y="625"/>
      <point x="512" y="638"/>
      <point x="512" y="653" type="curve" smooth="yes"/>
      <point x="512" y="669"/>
      <point x="500" y="681"/>
      <point x="484" y="681" type="curve" smooth="yes"/>
    </contour>
  </outline>
</glyph>
<glyph name="V" format="1">
  <advance width="535"/>
  <unicode hex="0056"/>
  <outline>
    <contour>
      <point x="261" y="0"/>
      <point x="271" y="7"/>
      <point x="276" y="18" type="curve"/>
      <point x="522" y="642" type="line"/>
      <point x="523" y="646"/>
      <point x="524" y="649"/>
      <point x="524" y="653" type="curve" smooth="yes"/>
      <point x="524" y="667"/>
      <point x="513" y="680"/>
      <point x="497" y="680" type="curve" smooth="yes"/>
      <point x="485" y="680"/>
      <point x="475" y="674"/>
      <point x="470" y="663" type="curve"/>
      <point x="252" y="110" type="line"/>
      <point x="66" y="661" type="line" smooth="yes"/>
      <point x="62" y="673"/>
      <point x="51" y="680"/>
      <point x="39" y="680" type="curve" smooth="yes"/>
      <point x="21" y="680"/>
      <point x="11" y="668"/>
      <point x="11" y="653" type="curve" smooth="yes"/>
      <point x="11" y="650"/>
      <point x="12" y="643"/>
      <point x="14" y="638" type="curve"/>
      <point x="223" y="19" type="line" smooth="yes"/>
      <point x="227" y="8"/>
      <point x="238" y="0"/>
      <point x="250" y="0" type="curve" smooth="yes"/>
    </contour>
  </outline>
</glyph>
<glyph name="W" format="1">
  <advance width="867"/>
  <unicode hex="0057"/>
  <outline>
    <contour>
      <point x="615" y="0"/>
      <point x="625" y="7"/>
      <point x="629" y="18" type="curve" smooth="yes"/>
      <point x="854" y="644" type="line" smooth="yes"/>
      <point x="855" y="647"/>
      <point x="856" y="651"/>
      <point x="856" y="655" type="curve" smooth="yes"/>
      <point x="856" y="667"/>
      <point x="844" y="681"/>
      <point x="828" y="681" type="curve" smooth="yes"/>
      <point x="817" y="681"/>
      <point x="806" y="674"/>
      <point x="802" y="663" type="curve" smooth="yes"/>
      <point x="606" y="120" type="line"/>
      <point x="457" y="661" type="line" smooth="yes"/>
      <point x="454" y="673"/>
      <point x="443" y="681"/>
      <point x="431" y="681" type="curve" smooth="yes"/>
      <point x="418" y="681"/>
      <point x="408" y="675"/>
      <point x="404" y="662" type="curve" smooth="yes"/>
      <point x="229" y="121" type="line"/>
      <point x="65" y="661" type="line" smooth="yes"/>
      <point x="61" y="673"/>
      <point x="51" y="681"/>
      <point x="38" y="681" type="curve" smooth="yes"/>
      <point x="23" y="681"/>
      <point x="11" y="670"/>
      <point x="11" y="654" type="curve" smooth="yes"/>
      <point x="11" y="651"/>
      <point x="12" y="645"/>
      <point x="16" y="632" type="curve" smooth="yes"/>
      <point x="202" y="19" type="line" smooth="yes"/>
      <point x="205" y="8"/>
      <point x="216" y="0"/>
      <point x="228" y="0" type="curve" smooth="yes"/>
      <point x="241" y="0"/>
      <point x="251" y="6"/>
      <point x="255" y="19" type="curve" smooth="yes"/>
      <point x="428" y="556" type="line"/>
      <point x="576" y="20" type="line"/>
      <point x="579" y="7"/>
      <point x="589" y="0"/>
      <point x="603" y="0" type="curve" smooth="yes"/>
    </contour>
  </outline>
</glyph>
<glyph name="Z" format="1">
  <advance width="639"/>
  <unicode hex="005A"/>
  <outline>
    <contour>
      <point x="126" y="60" type="line"/>
      <point x="581" y="626" type="line"/>
      <point x="585" y="632"/>
      <point x="589" y="639"/>
      <point x="589" y="648" type="curve" smooth="yes"/>
      <point x="589" y="666"/>
      <point x="574" y="680"/>
      <point x="556" y="680" type="curve" smooth="yes"/>
      <point x="94" y="680" type="line" smooth="yes"/>
      <point x="78" y="680"/>
      <point x="65" y="666"/>
      <point x="65" y="650" type="curve" smooth="yes"/>
      <point x="65" y="633"/>
      <point x="78" y="619"/>
      <point x="94" y="619" type="curve" smooth="yes"/>
      <point x="511" y="619" type="line"/>
      <point x="56" y="55" type="line"/>
      <point x="51" y="48"/>
      <point x="48" y="40"/>
      <point x="48" y="30" type="curve"/>
      <point x="49" y="12"/>
      <point x="64" y="0"/>
      <point x="81" y="0" type="curve" smooth="yes"/>
      <point x="543" y="0" type="line" smooth="yes"/>
      <point x="559" y="0"/>
      <point x="572" y="14"/>
      <point x="572" y="30" type="curve" smooth="yes"/>
      <point x="572" y="47"/>
      <point x="559" y="60"/>
      <point x="543" y="60" type="curve" smooth="yes"/>
    </contour>
  </outline>
</glyph>
<glyph name="underscore" format="1">
  <advance width="490"/>
  <unicode hex="005F"/>
  <outline>
    <contour>
      <point x="505" y="-56"/>
      <point x="518" y="-44"/>
      <point x="518" y="-28" type="curve" smooth="yes"/>
      <point x="518" y="-13"/>
      <point x="505" y="0"/>
      <point x="490" y="0" type="curve" smooth="yes"/>
      <point x="0" y="0" type="line" smooth="yes"/>
      <point x="-16" y="0"/>
      <point x="-28" y="-13"/>
      <point x="-28" y="-28" type="curve" smooth="yes"/>
      <point x="-28" y="-44"/>
      <point x="-16" y="-56"/>
      <point x="0" y="-56" type="curve" smooth="yes"/>
      <point x="490" y="-56" type="line" smooth="yes"/>
    </contour>
  </outline>
</glyph>
<glyph name="d" format="1">
  <advance width="530"/>
  <unicode hex="0064"/>
  <outline>
    <contour>
      <point x="465" y="667" type="line" smooth="yes"/>
      <point x="465" y="683"/>
      <point x="452" y="697"/>
      <point x="437" y="697" type="curve" smooth="yes"/>
      <point x="421" y="697"/>
      <point x="408" y="684"/>
      <point x="408" y="668" type="curve" smooth="yes"/>
      <point x="403" y="467" type="line"/>
      <point x="370" y="482"/>
      <point x="321" y="498"/>
      <point x="265" y="498" type="curve" smooth="yes"/>
      <point x="110" y="498"/>
      <point x="51" y="368"/>
      <point x="51" y="226" type="curve" smooth="yes"/>
      <point x="51" y="116"/>
      <point x="105" y="4"/>
      <point x="223" y="4" type="curve" smooth="yes"/>
      <point x="302" y="4"/>
      <point x="359" y="46"/>
      <point x="395" y="79" type="curve"/>
      <point x="393" y="34" type="line" smooth="yes"/>
      <point x="392" y="17"/>
      <point x="402" y="0"/>
      <point x="421" y="0" type="curve" smooth="yes"/>
      <point x="437" y="0"/>
      <point x="450" y="11"/>
      <point x="450" y="27" type="curve" smooth="yes"/>
    </contour>
    <contour>
      <point x="106" y="316"/>
      <point x="131" y="444"/>
      <point x="267" y="444" type="curve" smooth="yes"/>
      <point x="326" y="444"/>
      <point x="383" y="416"/>
      <point x="402" y="406" type="curve"/>
      <point x="397" y="161" type="line" smooth="yes"/>
      <point x="396" y="130"/>
      <point x="327" y="53"/>
      <point x="223" y="53" type="curve" smooth="yes"/>
      <point x="131" y="53"/>
      <point x="106" y="156"/>
      <point x="106" y="229" type="curve" smooth="yes"/>
    </contour>
  </outline>
</glyph>
<glyph name="f" format="1">
  <advance width="371"/>
  <unicode hex="0066"/>
  <outline>
    <contour>
      <point x="44" y="501" type="line" smooth="yes"/>
      <point x="32" y="501"/>
      <point x="20" y="489"/>
      <point x="20" y="475" type="curve" smooth="yes"/>
      <point x="20" y="461"/>
      <point x="32" y="449"/>
      <point x="46" y="449" type="curve" smooth="yes"/>
      <point x="121" y="449" type="line"/>
      <point x="121" y="26" type="line" smooth="yes"/>
      <point x="121" y="12"/>
      <point x="134" y="0"/>
      <point x="149" y="0" type="curve" smooth="yes"/>
      <point x="164" y="0"/>
      <point x="177" y="12"/>
      <point x="177" y="26" type="curve" smooth="yes"/>
      <point x="177" y="449" type="line"/>
      <point x="315" y="449" type="line" smooth="yes"/>
      <point x="329" y="449"/>
      <point x="340" y="461"/>
      <point x="340" y="475" type="curve" smooth="yes"/>
      <point x="340" y="489"/>
      <point x="326" y="500"/>
      <point x="315" y="500" type="curve" smooth="yes"/>
      <point x="177" y="501" type="line"/>
      <point x="177" y="622"/>
      <point x="214" y="638"/>
      <point x="334" y="638" type="curve" smooth="yes"/>
      <point x="351" y="638"/>
      <point x="361" y="651"/>
      <point x="361" y="665" type="curve" smooth="yes"/>
      <point x="361" y="686"/>
      <point x="344" y="691"/>
      <point x="322" y="691" type="curve" smooth="yes"/>
      <point x="181" y="691"/>
      <point x="121" y="644"/>
      <point x="121" y="501" type="curve"/>
    </contour>
  </outline>
</glyph>
<glyph name="g" format="1">
  <advance width="521"/>
  <unicode hex="0067"/>
  <outline>
    <contour>
      <point x="148" y="-177"/>
      <point x="192" y="-185"/>
      <point x="240" y="-185" type="curve" smooth="yes"/>
      <point x="357" y="-185"/>
      <point x="442" y="-122"/>
      <point x="445" y="19" type="curve" smooth="yes"/>
      <point x="456" y="482" type="line" smooth="yes"/>
      <point x="456" y="498"/>
      <point x="443" y="511"/>
      <point x="428" y="511" type="curve" smooth="yes"/>
      <point x="404" y="511"/>
      <point x="399" y="492"/>
      <point x="399" y="468" type="curve"/>
      <point x="373" y="483"/>
      <point x="335" y="500"/>
      <point x="288" y="500" type="curve" smooth="yes"/>
      <point x="153" y="500"/>
      <point x="51" y="374"/>
      <point x="51" y="241" type="curve" smooth="yes"/>
      <point x="51" y="105"/>
      <point x="134" y="-1"/>
      <point x="249" y="-1" type="curve"/>
      <point x="306" y="1"/>
      <point x="355" y="29"/>
      <point x="391" y="78" type="curve"/>
      <point x="389" y="23" type="line" smooth="yes"/>
      <point x="386" y="-69"/>
      <point x="348" y="-129"/>
      <point x="239" y="-129" type="curve" smooth="yes"/>
      <point x="163" y="-129"/>
      <point x="142" y="-115"/>
      <point x="123" y="-115" type="curve" smooth="yes"/>
      <point x="108" y="-115"/>
      <point x="95" y="-127"/>
      <point x="95" y="-143" type="curve" smooth="yes"/>
      <point x="95" y="-156"/>
      <point x="104" y="-167"/>
      <point x="117" y="-170" type="curve" smooth="yes"/>
    </contour>
    <contour>
      <point x="395" y="267" type="line" smooth="yes"/>
      <point x="395" y="102"/>
      <point x="310" y="52"/>
      <point x="241" y="52" type="curve" smooth="yes"/>
      <point x="140" y="52"/>
      <point x="101" y="165"/>
      <point x="101" y="237" type="curve" smooth="yes"/>
      <point x="101" y="356"/>
      <point x="187" y="445"/>
      <point x="292" y="445" type="curve" smooth="yes"/>
      <point x="331" y="445"/>
      <point x="373" y="431"/>
      <point x="395" y="412" type="curve"/>
    </contour>
  </outline>
</glyph>
<glyph name="i" format="1">
  <advance width="194"/>
  <unicode hex="0069"/>
  <outline>
    <contour>
      <point x="129" y="483"/>
      <point x="116" y="496"/>
      <point x="100" y="496" type="curve" smooth="yes"/>
      <point x="84" y="496"/>
      <point x="71" y="483"/>
      <point x="71" y="467" type="curve"/>
      <point x="71" y="467"/>
      <point x="65" y="29"/>
      <point x="65" y="29" type="curve"/>
      <point x="65" y="13"/>
      <point x="78" y="0"/>
      <point x="94" y="0" type="curve" smooth="yes"/>
      <point x="110" y="0"/>
      <point x="123" y="13"/>
      <point x="123" y="29" type="curve"/>
      <point x="123" y="29"/>
      <point x="129" y="467"/>
      <point x="129" y="467" type="curve"/>
    </contour>
    <contour>
      <point x="115" y="585"/>
      <point x="127" y="596"/>
      <point x="128" y="612" type="curve"/>
      <point x="129" y="653" type="line" smooth="yes"/>
      <point x="129" y="667"/>
      <point x="117" y="681"/>
      <point x="102" y="681" type="curve" smooth="yes"/>
      <point x="87" y="681"/>
      <point x="74" y="669"/>
      <point x="74" y="654" type="curve" smooth="yes"/>
      <point x="73" y="613" type="line" smooth="yes"/>
      <point x="73" y="598"/>
      <point x="85" y="585"/>
      <point x="100" y="585" type="curve" smooth="yes"/>
    </contour>
  </outline>
</glyph>
<glyph name="k" format="1">
  <advance width="494"/>
  <unicode hex="006B"/>
  <outline>
    <contour>
      <point x="300" y="336"/>
      <point x="381" y="418"/>
      <point x="424" y="475" type="curve" smooth="yes"/>
      <point x="427" y="479"/>
      <point x="430" y="485"/>
      <point x="430" y="491" type="curve" smooth="yes"/>
      <point x="430" y="506"/>
      <point x="418" y="518"/>
      <point x="403" y="518" type="curve" smooth="yes"/>
      <point x="393" y="518"/>
      <point x="385" y="513"/>
      <point x="380" y="506" type="curve" smooth="yes"/>
      <point x="303" y="405"/>
      <point x="179" y="291"/>
      <point x="122" y="254" type="curve"/>
      <point x="121" y="661" type="line"/>
      <point x="121" y="676"/>
      <point x="110" y="690"/>
      <point x="93" y="690" type="curve" smooth="yes"/>
      <point x="78" y="690"/>
      <point x="65" y="678"/>
      <point x="65" y="663" type="curve" smooth="yes"/>
      <point x="67" y="28" type="line" smooth="yes"/>
      <point x="67" y="13"/>
      <point x="80" y="0"/>
      <point x="95" y="0" type="curve" smooth="yes"/>
      <point x="111" y="0"/>
      <point x="123" y="13"/>
      <point x="123" y="28" type="curve" smooth="yes"/>
      <point x="123" y="202" type="line"/>
      <point x="145" y="215"/>
      <point x="177" y="236"/>
      <point x="215" y="266" type="curve"/>
      <point x="247" y="227"/>
      <point x="352" y="95"/>
      <point x="413" y="13" type="curve"/>
      <point x="418" y="7"/>
      <point x="426" y="3"/>
      <point x="435" y="3" type="curve" smooth="yes"/>
      <point x="452" y="3"/>
      <point x="463" y="17"/>
      <point x="463" y="33" type="curve" smooth="yes"/>
      <point x="463" y="40"/>
      <point x="459" y="46"/>
      <point x="455" y="50" type="curve"/>
      <point x="396" y="126"/>
      <point x="262" y="291"/>
      <point x="257" y="298" type="curve"/>
    </contour>
  </outline>
</glyph>
<glyph name="p" format="1">
  <advance width="520"/>
  <unicode hex="0070"/>
  <outline>
    <contour>
      <point x="220" y="500"/>
      <point x="162" y="469"/>
      <point x="121" y="431" type="curve"/>
      <point x="121" y="471" type="line" smooth="yes"/>
      <point x="121" y="487"/>
      <point x="109" y="500"/>
      <point x="93" y="500" type="curve" smooth="yes"/>
      <point x="77" y="500"/>
      <point x="65" y="487"/>
      <point x="65" y="471" type="curve" smooth="yes"/>
      <point x="65" y="-167" type="line" smooth="yes"/>
      <point x="65" y="-182"/>
      <point x="78" y="-195"/>
      <point x="93" y="-195" type="curve" smooth="yes"/>
      <point x="108" y="-195"/>
      <point x="121" y="-182"/>
      <point x="121" y="-167" type="curve" smooth="yes"/>
      <point x="121" y="36" type="line"/>
      <point x="152" y="24"/>
      <point x="199" y="8"/>
      <point x="251" y="8" type="curve" smooth="yes"/>
      <point x="427" y="8"/>
      <point x="470" y="162"/>
      <point x="470" y="276" type="curve" smooth="yes"/>
      <point x="470" y="381"/>
      <point x="420" y="495"/>
      <point x="309" y="500" type="curve"/>
    </contour>
    <contour>
      <point x="198" y="65"/>
      <point x="140" y="90"/>
      <point x="121" y="99" type="curve"/>
      <point x="121" y="363" type="line"/>
      <point x="138" y="388"/>
      <point x="196" y="451"/>
      <point x="301" y="451" type="curve" smooth="yes"/>
      <point x="395" y="451"/>
      <point x="420" y="338"/>
      <point x="420" y="276" type="curve" smooth="yes"/>
      <point x="420" y="156"/>
      <point x="379" y="65"/>
      <point x="257" y="65" type="curve" smooth="yes"/>
    </contour>
  </outline>
</glyph>
<glyph name="r" format="1">
  <advance width="416"/>
  <unicode hex="0072"/>
  <outline>
    <contour>
      <point x="376" y="422" type="line" smooth="yes"/>
      <point x="376" y="458"/>
      <point x="358" y="502"/>
      <point x="295" y="502" type="curve" smooth="yes"/>
      <point x="207" y="502"/>
      <point x="152" y="430"/>
      <point x="122" y="376" type="curve"/>
      <point x="122" y="472" type="line" smooth="yes"/>
      <point x="122" y="487"/>
      <point x="109" y="499"/>
      <point x="93" y="499" type="curve" smooth="yes"/>
      <point x="78" y="499"/>
      <point x="65" y="487"/>
      <point x="65" y="472" type="curve" smooth="yes"/>
      <point x="65" y="26" type="line" smooth="yes"/>
      <point x="65" y="12"/>
      <point x="79" y="0"/>
      <point x="93" y="0" type="curve" smooth="yes"/>
      <point x="108" y="0"/>
      <point x="121" y="12"/>
      <point x="121" y="26" type="curve" smooth="yes"/>
      <point x="122" y="253" type="line" smooth="yes"/>
      <point x="122" y="285"/>
      <point x="137" y="332"/>
      <point x="156" y="357" type="curve" smooth="yes"/>
      <point x="193" y="407"/>
      <point x="238" y="447"/>
      <point x="286" y="447" type="curve" smooth="yes"/>
      <point x="315" y="447"/>
      <point x="322" y="432"/>
      <point x="322" y="415" type="curve" smooth="yes"/>
      <point x="322" y="390" type="line" smooth="yes"/>
      <point x="322" y="377"/>
      <point x="328" y="362"/>
      <point x="348" y="362" type="curve" smooth="yes"/>
      <point x="364" y="362"/>
      <point x="376" y="374"/>
      <point x="376" y="389" type="curve" smooth="yes"/>
    </contour>
  </outline>
</glyph>
<glyph name="v" format="1">
  <advance width="436"/>
  <unicode hex="0076"/>
  <outline>
    <contour>
      <point x="423" y="460" type="line"/>
      <point x="424" y="463"/>
      <point x="426" y="467"/>
      <point x="426" y="472" type="curve" smooth="yes"/>
      <point x="426" y="487"/>
      <point x="413" y="500"/>
      <point x="398" y="500" type="curve" smooth="yes"/>
      <point x="386" y="500"/>
      <point x="376" y="493"/>
      <point x="372" y="483" type="curve" smooth="yes"/>
      <point x="218" y="94" type="line"/>
      <point x="65" y="480" type="line" smooth="yes"/>
      <point x="60" y="492"/>
      <point x="52" y="499"/>
      <point x="39" y="499" type="curve" smooth="yes"/>
      <point x="23" y="499"/>
      <point x="10" y="487"/>
      <point x="10" y="471" type="curve" smooth="yes"/>
      <point x="10" y="468"/>
      <point x="11" y="465"/>
      <point x="12" y="462" type="curve"/>
      <point x="192" y="19" type="line"/>
      <point x="196" y="8"/>
      <point x="206" y="-1"/>
      <point x="218" y="-1" type="curve" smooth="yes"/>
      <point x="231" y="-1"/>
      <point x="239" y="6"/>
      <point x="244" y="17" type="curve"/>
    </contour>
  </outline>
</glyph>
<glyph name="x" format="1">
  <advance width="510"/>
  <unicode hex="0078"/>
  <outline>
    <contour>
      <point x="496" y="456"/>
      <point x="499" y="463"/>
      <point x="499" y="470" type="curve" smooth="yes"/>
      <point x="499" y="485"/>
      <point x="486" y="498"/>
      <point x="471" y="498" type="curve" smooth="yes"/>
      <point x="464" y="498"/>
      <point x="456" y="495"/>
      <point x="451" y="490" type="curve" smooth="yes"/>
      <point x="262" y="293" type="line"/>
      <point x="99" y="492" type="line"/>
      <point x="94" y="499"/>
      <point x="86" y="500"/>
      <point x="79" y="500" type="curve" smooth="yes"/>
      <point x="64" y="500"/>
      <point x="52" y="487"/>
      <point x="52" y="472" type="curve" smooth="yes"/>
      <point x="52" y="465"/>
      <point x="55" y="458"/>
      <point x="60" y="452" type="curve" smooth="yes"/>
      <point x="223" y="258" type="line"/>
      <point x="19" y="49" type="line" smooth="yes"/>
      <point x="13" y="43"/>
      <point x="11" y="36"/>
      <point x="11" y="29" type="curve" smooth="yes"/>
      <point x="11" y="14"/>
      <point x="23" y="1"/>
      <point x="38" y="1" type="curve" smooth="yes"/>
      <point x="45" y="1"/>
      <point x="52" y="3"/>
      <point x="58" y="9" type="curve" smooth="yes"/>
      <point x="259" y="220" type="line"/>
      <point x="432" y="8" type="line" smooth="yes"/>
      <point x="437" y="2"/>
      <point x="445" y="0"/>
      <point x="452" y="0" type="curve" smooth="yes"/>
      <point x="467" y="0"/>
      <point x="480" y="12"/>
      <point x="480" y="28" type="curve" smooth="yes"/>
      <point x="480" y="34"/>
      <point x="478" y="40"/>
      <point x="474" y="45" type="curve" smooth="yes"/>
      <point x="299" y="255" type="line"/>
      <point x="491" y="451" type="line" smooth="yes"/>
    </contour>
  </outline>
</glyph>
<glyph name="y" format="1">
  <advance width="489"/>
  <unicode hex="0079"/>
  <outline>
    <contour>
      <point x="467" y="461" type="line" smooth="yes"/>
      <point x="469" y="465"/>
      <point x="469" y="469"/>
      <point x="469" y="473" type="curve" smooth="yes"/>
      <point x="469" y="489"/>
      <point x="456" y="501"/>
      <point x="441" y="501" type="curve" smooth="yes"/>
      <point x="428" y="501"/>
      <point x="418" y="493"/>
      <point x="414" y="483" type="curve"/>
      <point x="251" y="127" type="line"/>
      <point x="75" y="481" type="line" smooth="yes"/>
      <point x="70" y="491"/>
      <point x="60" y="500"/>
      <point x="48" y="500" type="curve" smooth="yes"/>
      <point x="32" y="500"/>
      <point x="20" y="487"/>
      <point x="20" y="471" type="curve" smooth="yes"/>
      <point x="20" y="466"/>
      <point x="22" y="460"/>
      <point x="24" y="456" type="curve" smooth="yes"/>
      <point x="220" y="61" type="line"/>
      <point x="121" y="-156" type="line"/>
      <point x="119" y="-160"/>
      <point x="118" y="-164"/>
      <point x="118" y="-168" type="curve" smooth="yes"/>
      <point x="118" y="-184"/>
      <point x="131" y="-197"/>
      <point x="146" y="-197" type="curve" smooth="yes"/>
      <point x="159" y="-197"/>
      <point x="169" y="-189"/>
      <point x="173" y="-179" type="curve"/>
    </contour>
  </outline>
</glyph>
<glyph name="braceleft" format="1">
  <advance width="376"/>
  <unicode hex="007B"/>
  <outline>
    <contour>
      <point x="193" y="226" type="line" smooth="yes"/>
      <point x="193" y="282"/>
      <point x="167" y="325"/>
      <point x="134" y="350" type="curve"/>
      <point x="169" y="378"/>
      <point x="193" y="419"/>
      <point x="193" y="474" type="curve" smooth="yes"/>
      <point x="193" y="662" type="line" smooth="yes"/>
      <point x="193" y="727"/>
      <point x="254" y="748"/>
      <point x="289" y="754" type="curve" smooth="yes"/>
      <point x="307" y="757"/>
      <point x="315" y="767"/>
      <point x="315" y="781" type="curve" smooth="yes"/>
      <point x="315" y="795"/>
      <point x="302" y="811"/>
      <point x="283" y="808" type="curve" smooth="yes"/>
      <point x="221" y="798"/>
      <point x="139" y="758"/>
      <point x="139" y="662" type="curve" smooth="yes"/>
      <point x="139" y="473" type="line" smooth="yes"/>
      <point x="139" y="432"/>
      <point x="125" y="401"/>
      <point x="71" y="374" type="curve" smooth="yes"/>
      <point x="58" y="368"/>
      <point x="54" y="364"/>
      <point x="54" y="350" type="curve" smooth="yes"/>
      <point x="54" y="341"/>
      <point x="59" y="330"/>
      <point x="72" y="325" type="curve" smooth="yes"/>
      <point x="109" y="311"/>
      <point x="139" y="278"/>
      <point x="139" y="227" type="curve" smooth="yes"/>
      <point x="139" y="22" type="line" smooth="yes"/>
      <point x="139" y="-73"/>
      <point x="217" y="-111"/>
      <point x="278" y="-123" type="curve" smooth="yes"/>
      <point x="299" y="-127"/>
      <point x="315" y="-116"/>
      <point x="315" y="-97" type="curve" smooth="yes"/>
      <point x="315" y="-83"/>
      <point x="305" y="-72"/>
      <point x="289" y="-70" type="curve"/>
      <point x="254" y="-63"/>
      <point x="193" y="-43"/>
      <point x="193" y="22" type="curve" smooth="yes"/>
    </contour>
  </outline>
</glyph>
<glyph name="asciitilde" format="1">
  <advance width="640"/>
  <unicode hex="007E"/>
  <outline>
    <contour>
      <point x="572" y="299"/>
      <point x="572" y="303"/>
      <point x="572" y="306" type="curve" smooth="yes"/>
      <point x="572" y="321"/>
      <point x="560" y="333"/>
      <point x="545" y="333" type="curve" smooth="yes"/>
      <point x="534" y="333"/>
      <point x="524" y="325"/>
      <point x="518" y="308" type="curve" smooth="yes"/>
      <point x="504" y="271"/>
      <point x="472" y="204"/>
      <point x="418" y="204" type="curve" smooth="yes"/>
      <point x="386" y="204"/>
      <point x="366" y="228"/>
      <point x="337" y="267" type="curve" smooth="yes"/>
      <point x="308" y="307"/>
      <point x="275" y="352"/>
      <point x="213" y="352" type="curve" smooth="yes"/>
      <point x="138" y="352"/>
      <point x="93" y="293"/>
      <point x="68" y="224" type="curve" smooth="yes"/>
      <point x="66" y="218"/>
      <point x="65" y="214"/>
      <point x="65" y="211" type="curve" smooth="yes"/>
      <point x="65" y="196"/>
      <point x="77" y="184"/>
      <point x="92" y="184" type="curve" smooth="yes"/>
      <point x="105" y="184"/>
      <point x="114" y="192"/>
      <point x="118" y="204" type="curve"/>
      <point x="129" y="242"/>
      <point x="161" y="298"/>
      <point x="213" y="298" type="curve" smooth="yes"/>
      <point x="245" y="298"/>
      <point x="265" y="275"/>
      <point x="293" y="236" type="curve" smooth="yes"/>
      <point x="323" y="195"/>
      <point x="356" y="150"/>
      <point x="418" y="150" type="curve" smooth="yes"/>
      <point x="507" y="150"/>
      <point x="552" y="243"/>
      <point x="569" y="291" type="curve" smooth="yes"/>
    </contour>
  </outline>
</glyph>
<glyph name="exclamdown" format="1">
  <advance width="196"/>
  <unicode hex="00A1"/>
  <outline>
    <contour>
      <point x="115" y="315" type="line" smooth="yes"/>
      <point x="115" y="331"/>
      <point x="102" y="344"/>
      <point x="86" y="344" type="curve" smooth="yes"/>
      <point x="70" y="344"/>
      <point x="57" y="331"/>
      <point x="57" y="315" type="curve" smooth="yes"/>
      <point x="56" y="-167" type="line" smooth="yes"/>
      <point x="56" y="-183"/>
      <point x="69" y="-197"/>
      <point x="85" y="-197" type="curve" smooth="yes"/>
      <point x="101" y="-197"/>
      <point x="114" y="-183"/>
      <point x="114" y="-167" type="curve" smooth="yes"/>
    </contour>
    <contour>
      <point x="55" y="430"/>
      <point x="68" y="413"/>
      <point x="87" y="413" type="curve" smooth="yes"/>
      <point x="108" y="413"/>
      <point x="127" y="435"/>
      <point x="127" y="459" type="curve" smooth="yes"/>
      <point x="127" y="480"/>
      <point x="114" y="496"/>
      <point x="95" y="496" type="curve" smooth="yes"/>
      <point x="75" y="496"/>
      <point x="55" y="476"/>
      <point x="55" y="449" type="curve" smooth="yes"/>
    </contour>
  </outline>
</glyph>
<glyph name="cent" format="1">
  <advance width="556"/>
  <unicode hex="00A2"/>
  <outline>
    <contour>
      <point x="441" y="238"/>
      <point x="433" y="225"/>
      <point x="430" y="221" type="curve" smooth="yes"/>
      <point x="400" y="180"/>
      <point x="355" y="154"/>
      <point x="300" y="151" type="curve"/>
      <point x="310" y="546" type="line"/>
      <point x="348" y="543"/>
      <point x="382" y="524"/>
      <point x="405" y="492" type="curve"/>
      <point x="410" y="486"/>
      <point x="417" y="483"/>
      <point x="426" y="483" type="curve" smooth="yes"/>
      <point x="441" y="483"/>
      <point x="453" y="495"/>
      <point x="453" y="510" type="curve" smooth="yes"/>
      <point x="453" y="545"/>
      <point x="367" y="600"/>
      <point x="312" y="598" type="curve"/>
      <point x="314" y="665" type="line" smooth="yes"/>
      <point x="314" y="678"/>
      <point x="303" y="691"/>
      <point x="289" y="691" type="curve" smooth="yes"/>
      <point x="276" y="691"/>
      <point x="264" y="680"/>
      <point x="264" y="666" type="curve" smooth="yes"/>
      <point x="262" y="595" type="line"/>
      <point x="143" y="558"/>
      <point x="74" y="428"/>
      <point x="74" y="314" type="curve" smooth="yes"/>
      <point x="74" y="249"/>
      <point x="105" y="138"/>
      <point x="248" y="103" type="curve"/>
      <point x="246" y="26" type="line" smooth="yes"/>
      <point x="246" y="12"/>
      <point x="257" y="0"/>
      <point x="271" y="0" type="curve" smooth="yes"/>
      <point x="285" y="0"/>
      <point x="296" y="11"/>
      <point x="296" y="24" type="curve" smooth="yes"/>
      <point x="298" y="99" type="line"/>
      <point x="372" y="99"/>
      <point x="437" y="139"/>
      <point x="475" y="192" type="curve" smooth="yes"/>
      <point x="479" y="198"/>
      <point x="482" y="203"/>
      <point x="482" y="210" type="curve" smooth="yes"/>
      <point x="482" y="225"/>
      <point x="470" y="238"/>
      <point x="455" y="238" type="curve" smooth="yes"/>
    </contour>
    <contour>
      <point x="127" y="369"/>
      <point x="157" y="488"/>
      <point x="260" y="540" type="curve"/>
      <point x="250" y="156" type="line"/>
      <point x="176" y="179"/>
      <point x="127" y="242"/>
      <point x="127" y="316" type="curve" smooth="yes"/>
    </contour>
  </outline>
</glyph>
<glyph name="sterling" format="1">
  <advance width="744"/>
  <unicode hex="00A3"/>
  <outline>
    <contour>
      <point x="642" y="157"/>
      <point x="631" y="148"/>
      <point x="627" y="130" type="curve" smooth="yes"/>
      <point x="614" y="72"/>
      <point x="578" y="44"/>
      <point x="526" y="44" type="curve" smooth="yes"/>
      <point x="485" y="44"/>
      <point x="437" y="61"/>
      <point x="395" y="94" type="curve" smooth="yes"/>
      <point x="368" y="114"/>
      <point x="337" y="125"/>
      <point x="304" y="125" type="curve" smooth="yes"/>
      <point x="287" y="125"/>
      <point x="270" y="122"/>
      <point x="252" y="117" type="curve"/>
      <point x="266" y="145"/>
      <point x="271" y="183"/>
      <point x="271" y="211" type="curve" smooth="yes"/>
      <point x="271" y="252"/>
      <point x="255" y="291"/>
      <point x="247" y="327" type="curve"/>
      <point x="473" y="327" type="line" smooth="yes"/>
      <point x="488" y="327"/>
      <point x="500" y="340"/>
      <point x="500" y="354" type="curve" smooth="yes"/>
      <point x="500" y="369"/>
      <point x="488" y="381"/>
      <point x="473" y="381" type="curve" smooth="yes"/>
      <point x="237" y="381" type="line"/>
      <point x="230" y="418"/>
      <point x="227" y="452"/>
      <point x="227" y="482" type="curve" smooth="yes"/>
      <point x="227" y="615"/>
      <point x="285" y="672"/>
      <point x="426" y="672" type="curve" smooth="yes"/>
      <point x="501" y="672"/>
      <point x="557" y="622"/>
      <point x="573" y="537" type="curve" smooth="yes"/>
      <point x="576" y="520"/>
      <point x="587" y="510"/>
      <point x="601" y="510" type="curve" smooth="yes"/>
      <point x="622" y="510"/>
      <point x="631" y="527"/>
      <point x="626" y="547" type="curve" smooth="yes"/>
      <point x="608" y="625"/>
      <point x="557" y="726"/>
      <point x="426" y="726" type="curve" smooth="yes"/>
      <point x="256" y="726"/>
      <point x="173" y="644"/>
      <point x="173" y="482" type="curve" smooth="yes"/>
      <point x="173" y="451"/>
      <point x="176" y="417"/>
      <point x="182" y="381" type="curve"/>
      <point x="91" y="381" type="line" smooth="yes"/>
      <point x="76" y="381"/>
      <point x="64" y="369"/>
      <point x="64" y="354" type="curve" smooth="yes"/>
      <point x="64" y="340"/>
      <point x="76" y="327"/>
      <point x="91" y="327" type="curve" smooth="yes"/>
      <point x="192" y="327" type="line"/>
      <point x="200" y="294"/>
      <point x="217" y="249"/>
      <point x="217" y="211" type="curve" smooth="yes"/>
      <point x="217" y="159"/>
      <point x="191" y="91"/>
      <point x="137" y="49" type="curve"/>
      <point x="130" y="44"/>
      <point x="126" y="36"/>
      <point x="126" y="27" type="curve" smooth="yes"/>
      <point x="126" y="12"/>
      <point x="138" y="0"/>
      <point x="153" y="0" type="curve" smooth="yes"/>
      <point x="172" y="0"/>
      <point x="228" y="71"/>
      <point x="304" y="71" type="curve" smooth="yes"/>
      <point x="323" y="71"/>
      <point x="343" y="65"/>
      <point x="362" y="51" type="curve" smooth="yes"/>
      <point x="415" y="11"/>
      <point x="474" y="-10"/>
      <point x="526" y="-10" type="curve" smooth="yes"/>
      <point x="572" y="-10"/>
      <point x="653" y="7"/>
      <point x="680" y="119" type="curve" smooth="yes"/>
      <point x="685" y="138"/>
      <point x="675" y="157"/>
      <point x="655" y="157" type="curve" smooth="yes"/>
    </contour>
  </outline>
</glyph>
<glyph name="section" format="1">
  <advance width="457"/>
  <unicode hex="00A7"/>
  <outline>
    <contour>
      <point x="403" y="384"/>
      <point x="331" y="406"/>
      <point x="238" y="436" type="curve" smooth="yes"/>
      <point x="198" y="448"/>
      <point x="131" y="467"/>
      <point x="131" y="524" type="curve" smooth="yes"/>
      <point x="131" y="569"/>
      <point x="181" y="594"/>
      <point x="252" y="594" type="curve" smooth="yes"/>
      <point x="321" y="594"/>
      <point x="351" y="570"/>
      <point x="351" y="533" type="curve" smooth="yes"/>
      <point x="351" y="524"/>
      <point x="349" y="516"/>
      <point x="349" y="513" type="curve" smooth="yes"/>
      <point x="349" y="499"/>
      <point x="358" y="486"/>
      <point x="376" y="486" type="curve" smooth="yes"/>
      <point x="396" y="486"/>
      <point x="404" y="502"/>
      <point x="404" y="532" type="curve" smooth="yes"/>
      <point x="404" y="600"/>
      <point x="350" y="644"/>
      <point x="249" y="644" type="curve" smooth="yes"/>
      <point x="178" y="644"/>
      <point x="79" y="620"/>
      <point x="79" y="525" type="curve" smooth="yes"/>
      <point x="79" y="496"/>
      <point x="88" y="472"/>
      <point x="105" y="452" type="curve"/>
      <point x="90" y="434"/>
      <point x="80" y="412"/>
      <point x="80" y="382" type="curve" smooth="yes"/>
      <point x="80" y="311"/>
      <point x="127" y="273"/>
      <point x="233" y="241" type="curve" smooth="yes"/>
      <point x="331" y="211"/>
      <point x="351" y="187"/>
      <point x="351" y="147" type="curve" smooth="yes"/>
      <point x="351" y="110"/>
      <point x="322" y="53"/>
      <point x="233" y="53" type="curve" smooth="yes"/>
      <point x="169" y="53"/>
      <point x="121" y="85"/>
      <point x="103" y="138" type="curve"/>
      <point x="100" y="149"/>
      <point x="91" y="157"/>
      <point x="78" y="157" type="curve" smooth="yes"/>
      <point x="63" y="157"/>
      <point x="51" y="145"/>
      <point x="51" y="130" type="curve" smooth="yes"/>
      <point x="51" y="96"/>
      <point x="110" y="0"/>
      <point x="233" y="0" type="curve" smooth="yes"/>
      <point x="338" y="0"/>
      <point x="404" y="74"/>
      <point x="404" y="141" type="curve" smooth="yes"/>
      <point x="404" y="174"/>
      <point x="396" y="199"/>
      <point x="382" y="218" type="curve"/>
      <point x="396" y="239"/>
      <point x="403" y="262"/>
      <point x="403" y="284" type="curve" smooth="yes"/>
    </contour>
    <contour>
      <point x="132" y="396"/>
      <point x="137" y="408"/>
      <point x="147" y="419" type="curve"/>
      <point x="171" y="406"/>
      <point x="196" y="397"/>
      <point x="219" y="389" type="curve" smooth="yes"/>
      <point x="290" y="364"/>
      <point x="350" y="350"/>
      <point x="350" y="291" type="curve" smooth="yes"/>
      <point x="350" y="277"/>
      <point x="348" y="265"/>
      <point x="342" y="253" type="curve"/>
      <point x="314" y="269"/>
      <point x="278" y="281"/>
      <point x="239" y="293" type="curve" smooth="yes"/>
      <point x="199" y="305"/>
      <point x="132" y="324"/>
      <point x="132" y="381" type="curve" smooth="yes"/>
    </contour>
  </outline>
</glyph>
<glyph name="ordfeminine" format="1">
  <advance width="250"/>
  <unicode hex="00AA"/>
  <outline>
    <contour>
      <point x="238" y="342"/>
      <point x="250" y="354"/>
      <point x="250" y="367" type="curve"/>
      <point x="249" y="639" type="line"/>
      <point x="234" y="651"/>
      <point x="191" y="668"/>
      <point x="147" y="668" type="curve" smooth="yes"/>
      <point x="52" y="668"/>
      <point x="0" y="569"/>
      <point x="0" y="483" type="curve" smooth="yes"/>
      <point x="0" y="405"/>
      <point x="50" y="347"/>
      <point x="118" y="347" type="curve" smooth="yes"/>
      <point x="157" y="347"/>
      <point x="175" y="358"/>
      <point x="200" y="369" type="curve"/>
      <point x="200" y="354"/>
      <point x="212" y="342"/>
      <point x="225" y="342" type="curve" smooth="yes"/>
    </contour>
    <contour>
      <point x="168" y="618"/>
      <point x="193" y="614"/>
      <point x="202" y="609" type="curve"/>
      <point x="199" y="427" type="line"/>
      <point x="190" y="421"/>
      <point x="156" y="396"/>
      <point x="119" y="396" type="curve" smooth="yes"/>
      <point x="70" y="396"/>
      <point x="50" y="445"/>
      <point x="50" y="485" type="curve" smooth="yes"/>
      <point x="50" y="540"/>
      <point x="79" y="618"/>
      <point x="151" y="618" type="curve" smooth="yes"/>
    </contour>
  </outline>
</glyph>
<glyph name="degree" format="1">
  <advance width="243"/>
  <unicode hex="00B0"/>
  <outline>
    <contour>
      <point x="189" y="464"/>
      <point x="243" y="519"/>
      <point x="243" y="586" type="curve" smooth="yes"/>
      <point x="243" y="653"/>
      <point x="189" y="708"/>
      <point x="122" y="708" type="curve" smooth="yes"/>
      <point x="55" y="708"/>
      <point x="0" y="653"/>
      <point x="0" y="586" type="curve" smooth="yes"/>
      <point x="0" y="519"/>
      <point x="55" y="464"/>
      <point x="122" y="464" type="curve" smooth="yes"/>
    </contour>
    <contour>
      <point x="164" y="662"/>
      <point x="198" y="628"/>
      <point x="198" y="586" type="curve" smooth="yes"/>
      <point x="198" y="544"/>
      <point x="164" y="510"/>
      <point x="122" y="510" type="curve" smooth="yes"/>
      <point x="80" y="510"/>
      <point x="45" y="544"/>
      <point x="45" y="586" type="curve" smooth="yes"/>
      <point x="45" y="628"/>
      <point x="80" y="662"/>
      <point x="122" y="662" type="curve" smooth="yes"/>
    </contour>
  </outline>
</glyph>
<glyph name="plusminus" format="1">
  <advance width="441"/>
  <unicode hex="00B1"/>
  <outline>
    <contour>
      <point x="59" y="283"/>
      <point x="69" y="270"/>
      <point x="84" y="270" type="curve" smooth="yes"/>
      <point x="193" y="270" type="line"/>
      <point x="193" y="162" type="line" smooth="yes"/>
      <point x="193" y="149"/>
      <point x="205" y="136"/>
      <point x="220" y="136" type="curve" smooth="yes"/>
      <point x="233" y="136"/>
      <point x="246" y="148"/>
      <point x="246" y="162" type="curve" smooth="yes"/>
      <point x="246" y="270" type="line"/>
      <point x="356" y="270" type="line" smooth="yes"/>
      <point x="369" y="270"/>
      <point x="382" y="282"/>
      <point x="382" y="296" type="curve" smooth="yes"/>
      <point x="382" y="311"/>
      <point x="369" y="323"/>
      <point x="356" y="323" type="curve" smooth="yes"/>
      <point x="246" y="323" type="line"/>
      <point x="246" y="421" type="line" smooth="yes"/>
      <point x="246" y="434"/>
      <point x="235" y="447"/>
      <point x="220" y="447" type="curve" smooth="yes"/>
      <point x="203" y="447"/>
      <point x="193" y="434"/>
      <point x="193" y="421" type="curve" smooth="yes"/>
      <point x="193" y="323" type="line"/>
      <point x="84" y="323" type="line" smooth="yes"/>
      <point x="70" y="323"/>
      <point x="58" y="310"/>
      <point x="58" y="296" type="curve"/>
    </contour>
    <contour>
      <point x="74" y="9"/>
      <point x="87" y="-1"/>
      <point x="100" y="-1" type="curve" smooth="yes"/>
      <point x="339" y="-1" type="line" smooth="yes"/>
      <point x="353" y="-1"/>
      <point x="365" y="10"/>
      <point x="365" y="26" type="curve" smooth="yes"/>
      <point x="365" y="40"/>
      <point x="353" y="52"/>
      <point x="339" y="52" type="curve" smooth="yes"/>
      <point x="100" y="52" type="line" smooth="yes"/>
      <point x="87" y="52"/>
      <point x="74" y="41"/>
      <point x="74" y="26" type="curve" smooth="yes"/>
    </contour>
  </outline>
</glyph>
<glyph name="acute" format="1">
  <advance width="500"/>
  <unicode hex="00B4"/>
  <outline>
    <contour>
      <point x="337" y="666" type="line" smooth="yes"/>
      <point x="344" y="671"/>
      <point x="347" y="680"/>
      <point x="347" y="689" type="curve" smooth="yes"/>
      <point x="347" y="709"/>
      <point x="332" y="725"/>
      <point x="313" y="725" type="curve" smooth="yes"/>
      <point x="302" y="725"/>
      <point x="292" y="717"/>
      <point x="284" y="710" type="curve" smooth="yes"/>
      <point x="158" y="607" type="line" smooth="yes"/>
      <point x="153" y="603"/>
      <point x="152" y="596"/>
      <point x="152" y="590" type="curve" smooth="yes"/>
      <point x="152" y="575"/>
      <point x="164" y="563"/>
      <point x="178" y="563" type="curve" smooth="yes"/>
      <point x="184" y="563"/>
      <point x="192" y="567"/>
      <point x="199" y="572" type="curve" smooth="yes"/>
    </contour>
  </outline>
</glyph>
<glyph name="cedilla" format="1">
  <advance width="500"/>
  <unicode hex="00B8"/>
  <outline>
    <contour>
      <point x="294" y="-201"/>
      <point x="335" y="-160"/>
      <point x="335" y="-110" type="curve" smooth="yes"/>
      <point x="335" y="-62"/>
      <point x="301" y="-19"/>
      <point x="233" y="-19" type="curve"/>
      <point x="235" y="22" type="line" smooth="yes"/>
      <point x="236" y="38"/>
      <point x="230" y="42"/>
      <point x="222" y="42" type="curve" smooth="yes"/>
      <point x="209" y="42"/>
      <point x="209" y="30"/>
      <point x="186" y="-33" type="curve" smooth="yes"/>
      <point x="182" y="-43"/>
      <point x="180" y="-50"/>
      <point x="180" y="-56" type="curve" smooth="yes"/>
      <point x="180" y="-68"/>
      <point x="190" y="-76"/>
      <point x="201" y="-76" type="curve" smooth="yes"/>
      <point x="205" y="-76"/>
      <point x="209" y="-74"/>
      <point x="213" y="-71" type="curve"/>
      <point x="220" y="-67"/>
      <point x="229" y="-61"/>
      <point x="244" y="-61" type="curve" smooth="yes"/>
      <point x="271" y="-61"/>
      <point x="293" y="-83"/>
      <point x="293" y="-110" type="curve" smooth="yes"/>
      <point x="293" y="-137"/>
      <point x="271" y="-159"/>
      <point x="244" y="-159" type="curve" smooth="yes"/>
      <point x="221" y="-159"/>
      <point x="212" y="-148"/>
      <point x="204" y="-139" type="curve" smooth="yes"/>
      <point x="199" y="-133"/>
      <point x="194" y="-128"/>
      <point x="186" y="-128" type="curve" smooth="yes"/>
      <point x="174" y="-128"/>
      <point x="165" y="-138"/>
      <point x="165" y="-146" type="curve" smooth="yes"/>
      <point x="165" y="-179"/>
      <point x="212" y="-201"/>
      <point x="244" y="-201" type="curve" smooth="yes"/>
    </contour>
  </outline>
</glyph>
<glyph name="onesuperior" format="1">
  <advance width="166"/>
  <unicode hex="00B9"/>
  <outline>
    <contour>
      <point x="143" y="444" type="line" smooth="yes"/>
      <point x="154" y="444"/>
      <point x="166" y="452"/>
      <point x="166" y="467" type="curve" smooth="yes"/>
      <point x="166" y="479"/>
      <point x="155" y="490"/>
      <point x="143" y="490" type="curve" smooth="yes"/>
      <point x="111" y="490" type="line"/>
      <point x="116" y="805" type="line" smooth="yes"/>
      <point x="116" y="817"/>
      <point x="105" y="829"/>
      <point x="92" y="829" type="curve" smooth="yes"/>
      <point x="86" y="829"/>
      <point x="80" y="826"/>
      <point x="75" y="821" type="curve"/>
      <point x="6" y="746" type="line"/>
      <point x="2" y="741"/>
      <point x="0" y="735"/>
      <point x="0" y="729" type="curve" smooth="yes"/>
      <point x="0" y="716"/>
      <point x="12" y="707"/>
      <point x="22" y="707" type="curve" smooth="yes"/>
      <point x="30" y="707"/>
      <point x="35" y="709"/>
      <point x="40" y="714" type="curve" smooth="yes"/>
      <point x="69" y="745" type="line"/>
      <point x="65" y="490" type="line"/>
      <point x="25" y="490" type="line" smooth="yes"/>
      <point x="13" y="490"/>
      <point x="2" y="481"/>
      <point x="2" y="467" type="curve" smooth="yes"/>
      <point x="2" y="455"/>
      <point x="9" y="444"/>
      <point x="25" y="444" type="curve" smooth="yes"/>
    </contour>
  </outline>
</glyph>
<glyph name="guillemotright" format="1">
  <advance width="591"/>
  <unicode hex="00BB"/>
  <outline>
    <contour>
      <point x="122" y="76"/>
      <point x="128" y="78"/>
      <point x="134" y="83" type="curve"/>
      <point x="297" y="229" type="line"/>
      <point x="303" y="234"/>
      <point x="306" y="242"/>
      <point x="306" y="250" type="curve" smooth="yes"/>
      <point x="306" y="258"/>
      <point x="303" y="266"/>
      <point x="297" y="271" type="curve" smooth="yes"/>
      <point x="117" y="426" type="line"/>
      <point x="112" y="430"/>
      <point x="105" y="433"/>
      <point x="99" y="433" type="curve" smooth="yes"/>
      <point x="85" y="433"/>
      <point x="71" y="421"/>
      <point x="71" y="405" type="curve" smooth="yes"/>
      <point x="71" y="397"/>
      <point x="75" y="390"/>
      <point x="81" y="384" type="curve"/>
      <point x="236" y="249" type="line"/>
      <point x="96" y="124" type="line" smooth="yes"/>
      <point x="90" y="119"/>
      <point x="87" y="111"/>
      <point x="87" y="103" type="curve" smooth="yes"/>
      <point x="87" y="88"/>
      <point x="100" y="76"/>
      <point x="115" y="76" type="curve" smooth="yes"/>
    </contour>
    <contour>
      <point x="327" y="76"/>
      <point x="333" y="78"/>
      <point x="339" y="83" type="curve"/>
      <point x="502" y="229" type="line"/>
      <point x="508" y="234"/>
      <point x="511" y="242"/>
      <point x="511" y="250" type="curve" smooth="yes"/>
      <point x="511" y="258"/>
      <point x="508" y="266"/>
      <point x="502" y="271" type="curve" smooth="yes"/>
      <point x="322" y="426" type="line"/>
      <point x="317" y="430"/>
      <point x="310" y="433"/>
      <point x="304" y="433" type="curve" smooth="yes"/>
      <point x="290" y="433"/>
      <point x="276" y="421"/>
      <point x="276" y="405" type="curve" smooth="yes"/>
      <point x="276" y="397"/>
      <point x="280" y="390"/>
      <point x="286" y="384" type="curve"/>
      <point x="441" y="249" type="line"/>
      <point x="301" y="124" type="line" smooth="yes"/>
      <point x="295" y="119"/>
      <point x="292" y="111"/>
      <point x="292" y="103" type="curve" smooth="yes"/>
      <point x="292" y="88"/>
      <point x="305" y="76"/>
      <point x="320" y="76" type="curve" smooth="yes"/>
    </contour>
  </outline>
</glyph>
<glyph name="questiondown" format="1">
  <advance width="533"/>
  <unicode hex="00BF"/>
  <outline>
    <contour>
      <point x="284" y="304"/>
      <point x="233" y="257"/>
      <point x="189" y="220" type="curve" smooth="yes"/>
      <point x="138" y="176"/>
      <point x="65" y="116"/>
      <point x="65" y="15" type="curve" smooth="yes"/>
      <point x="65" y="-108"/>
      <point x="151" y="-187"/>
      <point x="272" y="-187" type="curve" smooth="yes"/>
      <point x="348" y="-187"/>
      <point x="404" y="-150"/>
      <point x="436" y="-115" type="curve" smooth="yes"/>
      <point x="448" y="-102"/>
      <point x="457" y="-91"/>
      <point x="457" y="-81" type="curve" smooth="yes"/>
      <point x="457" y="-65"/>
      <point x="444" y="-55"/>
      <point x="429" y="-55" type="curve" smooth="yes"/>
      <point x="423" y="-55"/>
      <point x="416" y="-59"/>
      <point x="412" y="-63" type="curve"/>
      <point x="382" y="-97"/>
      <point x="340" y="-135"/>
      <point x="272" y="-135" type="curve" smooth="yes"/>
      <point x="158" y="-135"/>
      <point x="116" y="-58"/>
      <point x="116" y="15" type="curve" smooth="yes"/>
      <point x="116" y="91"/>
      <point x="175" y="135"/>
      <point x="222" y="178" type="curve" smooth="yes"/>
      <point x="268" y="221"/>
      <point x="322" y="269"/>
      <point x="342" y="286" type="curve" smooth="yes"/>
      <point x="348" y="291"/>
      <point x="352" y="297"/>
      <point x="352" y="305" type="curve" smooth="yes"/>
      <point x="352" y="320"/>
      <point x="340" y="332"/>
      <point x="325" y="332" type="curve" smooth="yes"/>
      <point x="318" y="332"/>
      <point x="311" y="328"/>
      <point x="306" y="323" type="curve"/>
    </contour>
    <contour>
      <point x="338" y="501"/>
      <point x="319" y="481"/>
      <point x="319" y="455" type="curve" smooth="yes"/>
      <point x="319" y="435"/>
      <point x="333" y="421"/>
      <point x="351" y="421" type="curve" smooth="yes"/>
      <point x="372" y="421"/>
      <point x="390" y="441"/>
      <point x="390" y="464" type="curve" smooth="yes"/>
      <point x="390" y="485"/>
      <point x="378" y="501"/>
      <point x="359" y="501" type="curve" smooth="yes"/>
    </contour>
  </outline>
</glyph>
<glyph name="Agrave" format="1">
  <advance width="624"/>
  <unicode hex="00C0"/>
  <outline>
    <contour>
      <point x="347" y="725" type="line" smooth="yes"/>
      <point x="352" y="720"/>
      <point x="358" y="716"/>
      <point x="366" y="716" type="curve" smooth="yes"/>
      <point x="380" y="716"/>
      <point x="394" y="727"/>
      <point x="394" y="742" type="curve" smooth="yes"/>
      <point x="394" y="748"/>
      <point x="392" y="753"/>
      <point x="387" y="760" type="curve"/>
      <point x="282" y="890" type="line"/>
      <point x="275" y="898"/>
      <point x="264" y="905"/>
      <point x="253" y="905" type="curve" smooth="yes"/>
      <point x="235" y="905"/>
      <point x="218" y="889"/>
      <point x="218" y="871" type="curve" smooth="yes"/>
      <point x="218" y="861"/>
      <point x="222" y="853"/>
      <point x="229" y="846" type="curve" smooth="yes"/>
    </contour>
    <contour>
      <point x="354" y="670" type="line" smooth="yes"/>
      <point x="350" y="681"/>
      <point x="339" y="689"/>
      <point x="328" y="689" type="curve" smooth="yes"/>
      <point x="316" y="689"/>
      <point x="305" y="682"/>
      <point x="300" y="671" type="curve"/>
      <point x="137" y="256" type="line"/>
      <point x="85" y="244" type="line" smooth="yes"/>
      <point x="72" y="241"/>
      <point x="63" y="230"/>
      <point x="63" y="217" type="curve" smooth="yes"/>
      <point x="63" y="200"/>
      <point x="76" y="188"/>
      <point x="92" y="188" type="curve" smooth="yes"/>
      <point x="94" y="188"/>
      <point x="96" y="188"/>
      <point x="112" y="192" type="curve"/>
      <point x="52" y="39" type="line"/>
      <point x="51" y="36"/>
      <point x="50" y="32"/>
      <point x="50" y="29" type="curve" smooth="yes"/>
      <point x="50" y="15"/>
      <point x="62" y="0"/>
      <point x="79" y="0" type="curve" smooth="yes"/>
      <point x="90" y="0"/>
      <point x="101" y="7"/>
      <point x="105" y="18" type="curve" smooth="yes"/>
      <point x="179" y="206" type="line"/>
      <point x="434" y="262" type="line"/>
      <point x="518" y="18" type="line" smooth="yes"/>
      <point x="522" y="6"/>
      <point x="533" y="-1"/>
      <point x="545" y="-1" type="curve" smooth="yes"/>
      <point x="562" y="-1"/>
      <point x="573" y="13"/>
      <point x="573" y="28" type="curve" smooth="yes"/>
      <point x="573" y="31"/>
      <point x="573" y="34"/>
      <point x="572" y="37" type="curve" smooth="yes"/>
    </contour>
    <contour>
      <point x="204" y="270" type="line"/>
      <point x="325" y="578" type="line"/>
      <point x="415" y="316" type="line"/>
    </contour>
  </outline>
</glyph>
<glyph name="Aacute" format="1">
  <advance width="624"/>
  <unicode hex="00C1"/>
  <outline>
    <contour>
      <point x="431" y="835" type="line" smooth="yes"/>
      <point x="438" y="840"/>
      <point x="441" y="849"/>
      <point x="441" y="858" type="curve" smooth="yes"/>
      <point x="441" y="878"/>
      <point x="426" y="894"/>
      <point x="407" y="894" type="curve" smooth="yes"/>
      <point x="396" y="894"/>
      <point x="386" y="886"/>
      <point x="378" y="879" type="curve" smooth="yes"/>
      <point x="252" y="776" type="line" smooth="yes"/>
      <point x="247" y="772"/>
      <point x="246" y="765"/>
      <point x="246" y="759" type="curve" smooth="yes"/>
      <point x="246" y="744"/>
      <point x="258" y="732"/>
      <point x="272" y="732" type="curve" smooth="yes"/>
      <point x="278" y="732"/>
      <point x="286" y="736"/>
      <point x="293" y="741" type="curve" smooth="yes"/>
    </contour>
    <contour>
      <point x="354" y="670" type="line" smooth="yes"/>
      <point x="350" y="681"/>
      <point x="339" y="689"/>
      <point x="328" y="689" type="curve" smooth="yes"/>
      <point x="316" y="689"/>
      <point x="305" y="682"/>
      <point x="300" y="671" type="curve"/>
      <point x="137" y="256" type="line"/>
      <point x="85" y="244" type="line" smooth="yes"/>
      <point x="72" y="241"/>
      <point x="63" y="230"/>
      <point x="63" y="217" type="curve" smooth="yes"/>
      <point x="63" y="200"/>
      <point x="76" y="188"/>
      <point x="92" y="188" type="curve" smooth="yes"/>
      <point x="94" y="188"/>
      <point x="96" y="188"/>
      <point x="112" y="192" type="curve"/>
      <point x="52" y="39" type="line"/>
      <point x="51" y="36"/>
      <point x="50" y="32"/>
      <point x="50" y="29" type="curve" smooth="yes"/>
      <point x="50" y="15"/>
      <point x="62" y="0"/>
      <point x="79" y="0" type="curve" smooth="yes"/>
      <point x="90" y="0"/>
      <point x="101" y="7"/>
      <point x="105" y="18" type="curve" smooth="yes"/>
      <point x="179" y="206" type="line"/>
      <point x="434" y="262" type="line"/>
      <point x="518" y="18" type="line" smooth="yes"/>
      <point x="522" y="6"/>
      <point x="533" y="-1"/>
      <point x="545" y="-1" type="curve" smooth="yes"/>
      <point x="562" y="-1"/>
      <point x="573" y="13"/>
      <point x="573" y="28" type="curve" smooth="yes"/>
      <point x="573" y="31"/>
      <point x="573" y="34"/>
      <point x="572" y="37" type="curve" smooth="yes"/>
    </contour>
    <contour>
      <point x="204" y="270" type="line"/>
      <point x="325" y="578" type="line"/>
      <point x="415" y="316" type="line"/>
    </contour>
  </outline>
</glyph>
<glyph name="Acircumflex" format="1">
  <advance width="624"/>
  <unicode hex="00C2"/>
  <outline>
    <contour>
      <point x="356" y="887" type="line"/>
      <point x="350" y="892"/>
      <point x="343" y="895"/>
      <point x="336" y="895" type="curve" smooth="yes"/>
      <point x="330" y="895"/>
      <point x="323" y="893"/>
      <point x="317" y="888" type="curve" smooth="yes"/>
      <point x="186" y="778" type="line"/>
      <point x="179" y="773"/>
      <point x="176" y="765"/>
      <point x="176" y="757" type="curve" smooth="yes"/>
      <point x="176" y="742"/>
      <point x="188" y="731"/>
      <point x="202" y="731" type="curve" smooth="yes"/>
      <point x="208" y="731"/>
      <point x="214" y="732"/>
      <point x="219" y="736" type="curve" smooth="yes"/>
      <point x="334" y="825" type="line"/>
      <point x="430" y="738" type="line"/>
      <point x="435" y="733"/>
      <point x="442" y="731"/>
      <point x="449" y="731" type="curve" smooth="yes"/>
      <point x="463" y="731"/>
      <point x="475" y="743"/>
      <point x="475" y="757" type="curve" smooth="yes"/>
      <point x="475" y="765"/>
      <point x="472" y="772"/>
      <point x="466" y="777" type="curve"/>
    </contour>
    <contour>
      <point x="354" y="670" type="line" smooth="yes"/>
      <point x="350" y="681"/>
      <point x="339" y="689"/>
      <point x="328" y="689" type="curve" smooth="yes"/>
      <point x="316" y="689"/>
      <point x="305" y="682"/>
      <point x="300" y="671" type="curve"/>
      <point x="137" y="256" type="line"/>
      <point x="85" y="244" type="line" smooth="yes"/>
      <point x="72" y="241"/>
      <point x="63" y="230"/>
      <point x="63" y="217" type="curve" smooth="yes"/>
      <point x="63" y="200"/>
      <point x="76" y="188"/>
      <point x="92" y="188" type="curve" smooth="yes"/>
      <point x="94" y="188"/>
      <point x="96" y="188"/>
      <point x="112" y="192" type="curve"/>
      <point x="52" y="39" type="line"/>
      <point x="51" y="36"/>
      <point x="50" y="32"/>
      <point x="50" y="29" type="curve" smooth="yes"/>
      <point x="50" y="15"/>
      <point x="62" y="0"/>
      <point x="79" y="0" type="curve" smooth="yes"/>
      <point x="90" y="0"/>
      <point x="101" y="7"/>
      <point x="105" y="18" type="curve" smooth="yes"/>
      <point x="179" y="206" type="line"/>
      <point x="434" y="262" type="line"/>
      <point x="518" y="18" type="line" smooth="yes"/>
      <point x="522" y="6"/>
      <point x="533" y="-1"/>
      <point x="545" y="-1" type="curve" smooth="yes"/>
      <point x="562" y="-1"/>
      <point x="573" y="13"/>
      <point x="573" y="28" type="curve" smooth="yes"/>
      <point x="573" y="31"/>
      <point x="573" y="34"/>
      <point x="572" y="37" type="curve" smooth="yes"/>
    </contour>
    <contour>
      <point x="204" y="270" type="line"/>
      <point x="325" y="578" type="line"/>
      <point x="415" y="316" type="line"/>
    </contour>
  </outline>
</glyph>
<glyph name="Adieresis" format="1">
  <advance width="624"/>
  <unicode hex="00C4"/>
  <outline>
    <contour>
      <point x="294" y="799"/>
      <point x="272" y="816"/>
      <point x="249" y="816" type="curve" smooth="yes"/>
      <point x="221" y="816"/>
      <point x="198" y="795"/>
      <point x="198" y="772" type="curve" smooth="yes"/>
      <point x="198" y="749"/>
      <point x="218" y="733"/>
      <point x="243" y="733" type="curve" smooth="yes"/>
      <point x="272" y="733"/>
      <point x="294" y="753"/>
      <point x="294" y="777" type="curve" smooth="yes"/>
    </contour>
    <contour>
      <point x="453" y="799"/>
      <point x="431" y="816"/>
      <point x="408" y="816" type="curve" smooth="yes"/>
      <point x="380" y="816"/>
      <point x="357" y="795"/>
      <point x="357" y="772" type="curve" smooth="yes"/>
      <point x="357" y="749"/>
      <point x="377" y="733"/>
      <point x="402" y="733" type="curve" smooth="yes"/>
      <point x="431" y="733"/>
      <point x="453" y="753"/>
      <point x="453" y="777" type="curve" smooth="yes"/>
    </contour>
    <contour>
      <point x="354" y="670" type="line" smooth="yes"/>
      <point x="350" y="681"/>
      <point x="339" y="689"/>
      <point x="328" y="689" type="curve" smooth="yes"/>
      <point x="316" y="689"/>
      <point x="305" y="682"/>
      <point x="300" y="671" type="curve"/>
      <point x="137" y="256" type="line"/>
      <point x="85" y="244" type="line" smooth="yes"/>
      <point x="72" y="241"/>
      <point x="63" y="230"/>
      <point x="63" y="217" type="curve" smooth="yes"/>
      <point x="63" y="200"/>
      <point x="76" y="188"/>
      <point x="92" y="188" type="curve" smooth="yes"/>
      <point x="94" y="188"/>
      <point x="96" y="188"/>
      <point x="112" y="192" type="curve"/>
      <point x="52" y="39" type="line"/>
      <point x="51" y="36"/>
      <point x="50" y="32"/>
      <point x="50" y="29" type="curve" smooth="yes"/>
      <point x="50" y="15"/>
      <point x="62" y="0"/>
      <point x="79" y="0" type="curve" smooth="yes"/>
      <point x="90" y="0"/>
      <point x="101" y="7"/>
      <point x="105" y="18" type="curve" smooth="yes"/>
      <point x="179" y="206" type="line"/>
      <point x="434" y="262" type="line"/>
      <point x="518" y="18" type="line" smooth="yes"/>
      <point x="522" y="6"/>
      <point x="533" y="-1"/>
      <point x="545" y="-1" type="curve" smooth="yes"/>
      <point x="562" y="-1"/>
      <point x="573" y="13"/>
      <point x="573" y="28" type="curve" smooth="yes"/>
      <point x="573" y="31"/>
      <point x="573" y="34"/>
      <point x="572" y="37" type="curve" smooth="yes"/>
    </contour>
    <contour>
      <point x="204" y="270" type="line"/>
      <point x="325" y="578" type="line"/>
      <point x="415" y="316" type="line"/>
    </contour>
  </outline>
</glyph>
<glyph name="Ccedilla" format="1">
  <advance width="632"/>
  <unicode hex="00C7"/>
  <outline>
    <contour>
      <point x="260" y="-43"/>
      <point x="258" y="-50"/>
      <point x="258" y="-56" type="curve" smooth="yes"/>
      <point x="258" y="-68"/>
      <point x="268" y="-76"/>
      <point x="279" y="-76" type="curve" smooth="yes"/>
      <point x="283" y="-76"/>
      <point x="287" y="-74"/>
      <point x="291" y="-71" type="curve"/>
      <point x="298" y="-67"/>
      <point x="307" y="-61"/>
      <point x="322" y="-61" type="curve" smooth="yes"/>
      <point x="349" y="-61"/>
      <point x="371" y="-83"/>
      <point x="371" y="-110" type="curve" smooth="yes"/>
      <point x="371" y="-137"/>
      <point x="349" y="-159"/>
      <point x="322" y="-159" type="curve" smooth="yes"/>
      <point x="299" y="-159"/>
      <point x="290" y="-148"/>
      <point x="282" y="-139" type="curve" smooth="yes"/>
      <point x="277" y="-133"/>
      <point x="272" y="-128"/>
      <point x="264" y="-128" type="curve" smooth="yes"/>
      <point x="252" y="-128"/>
      <point x="243" y="-138"/>
      <point x="243" y="-146" type="curve" smooth="yes"/>
      <point x="243" y="-179"/>
      <point x="290" y="-201"/>
      <point x="322" y="-201" type="curve" smooth="yes"/>
      <point x="372" y="-201"/>
      <point x="413" y="-160"/>
      <point x="413" y="-110" type="curve" smooth="yes"/>
      <point x="413" y="-62"/>
      <point x="379" y="-19"/>
      <point x="311" y="-19" type="curve"/>
      <point x="312" y="-1" type="line"/>
      <point x="320" y="-2"/>
      <point x="329" y="-2"/>
      <point x="338" y="-2" type="curve" smooth="yes"/>
      <point x="434" y="-2"/>
      <point x="519" y="40"/>
      <point x="576" y="116" type="curve" smooth="yes"/>
      <point x="580" y="121"/>
      <point x="581" y="127"/>
      <point x="581" y="133" type="curve" smooth="yes"/>
      <point x="581" y="151"/>
      <point x="567" y="161"/>
      <point x="552" y="161" type="curve" smooth="yes"/>
      <point x="544" y="161"/>
      <point x="537" y="159"/>
      <point x="530" y="150" type="curve" smooth="yes"/>
      <point x="477" y="81"/>
      <point x="410" y="55"/>
      <point x="338" y="55" type="curve" smooth="yes"/>
      <point x="248" y="55"/>
      <point x="107" y="124"/>
      <point x="107" y="296" type="curve" smooth="yes"/>
      <point x="107" y="460"/>
      <point x="234" y="627"/>
      <point x="346" y="627" type="curve" smooth="yes"/>
      <point x="431" y="627"/>
      <point x="468" y="593"/>
      <point x="488" y="572" type="curve"/>
      <point x="488" y="567" type="line" smooth="yes"/>
      <point x="488" y="551"/>
      <point x="501" y="538"/>
      <point x="517" y="538" type="curve" smooth="yes"/>
      <point x="533" y="538"/>
      <point x="545" y="551"/>
      <point x="545" y="567" type="curve" smooth="yes"/>
      <point x="545" y="631" type="line" smooth="yes"/>
      <point x="545" y="647"/>
      <point x="533" y="659"/>
      <point x="517" y="659" type="curve" smooth="yes"/>
      <point x="506" y="659"/>
      <point x="496" y="653"/>
      <point x="492" y="644" type="curve"/>
      <point x="461" y="664"/>
      <point x="415" y="684"/>
      <point x="346" y="684" type="curve" smooth="yes"/>
      <point x="208" y="684"/>
      <point x="50" y="500"/>
      <point x="50" y="296" type="curve" smooth="yes"/>
      <point x="50" y="148"/>
      <point x="148" y="32"/>
      <point x="277" y="4" type="curve"/>
      <point x="274" y="-5"/>
      <point x="269" y="-17"/>
      <point x="264" y="-33" type="curve"/>
    </contour>
  </outline>
</glyph>
<glyph name="Ecircumflex" format="1">
  <advance width="610"/>
  <unicode hex="00CA"/>
  <outline>
    <contour>
      <point x="348" y="887" type="line"/>
      <point x="342" y="892"/>
      <point x="335" y="895"/>
      <point x="328" y="895" type="curve" smooth="yes"/>
      <point x="322" y="895"/>
      <point x="315" y="893"/>
      <point x="309" y="888" type="curve" smooth="yes"/>
      <point x="178" y="778" type="line"/>
      <point x="171" y="773"/>
      <point x="168" y="765"/>
      <point x="168" y="757" type="curve" smooth="yes"/>
      <point x="168" y="742"/>
      <point x="180" y="731"/>
      <point x="194" y="731" type="curve" smooth="yes"/>
      <point x="200" y="731"/>
      <point x="206" y="732"/>
      <point x="211" y="736" type="curve" smooth="yes"/>
      <point x="326" y="825" type="line"/>
      <point x="422" y="738" type="line"/>
      <point x="427" y="733"/>
      <point x="434" y="731"/>
      <point x="441" y="731" type="curve" smooth="yes"/>
      <point x="455" y="731"/>
      <point x="467" y="743"/>
      <point x="467" y="757" type="curve" smooth="yes"/>
      <point x="467" y="765"/>
      <point x="464" y="772"/>
      <point x="458" y="777" type="curve"/>
    </contour>
    <contour>
      <point x="122" y="57" type="line"/>
      <point x="122" y="324" type="line"/>
      <point x="473" y="324" type="line" smooth="yes"/>
      <point x="489" y="324"/>
      <point x="501" y="337"/>
      <point x="501" y="353" type="curve" smooth="yes"/>
      <point x="501" y="369"/>
      <point x="489" y="381"/>
      <point x="473" y="381" type="curve" smooth="yes"/>
      <point x="122" y="381" type="line"/>
      <point x="122" y="625" type="line"/>
      <point x="522" y="625" type="line" smooth="yes"/>
      <point x="538" y="625"/>
      <point x="550" y="638"/>
      <point x="550" y="654" type="curve" smooth="yes"/>
      <point x="550" y="670"/>
      <point x="538" y="682"/>
      <point x="522" y="682" type="curve" smooth="yes"/>
      <point x="94" y="682" type="line" smooth="yes"/>
      <point x="78" y="682"/>
      <point x="65" y="670"/>
      <point x="65" y="654" type="curve" smooth="yes"/>
      <point x="65" y="29" type="line" smooth="yes"/>
      <point x="65" y="13"/>
      <point x="78" y="0"/>
      <point x="94" y="0" type="curve" smooth="yes"/>
      <point x="520" y="0" type="line" smooth="yes"/>
      <point x="536" y="0"/>
      <point x="548" y="13"/>
      <point x="548" y="29" type="curve" smooth="yes"/>
      <point x="548" y="45"/>
      <point x="536" y="57"/>
      <point x="520" y="57" type="curve" smooth="yes"/>
    </contour>
  </outline>
</glyph>
<glyph name="Iacute" format="1">
  <advance width="433"/>
  <unicode hex="00CD"/>
  <outline>
    <contour>
      <point x="246" y="56" type="line"/>
      <point x="246" y="624" type="line"/>
      <point x="345" y="624" type="line" smooth="yes"/>
      <point x="361" y="624"/>
      <point x="373" y="637"/>
      <point x="373" y="653" type="curve" smooth="yes"/>
      <point x="373" y="669"/>
      <point x="361" y="681"/>
      <point x="345" y="681" type="curve" smooth="yes"/>
      <point x="89" y="681" type="line" smooth="yes"/>
      <point x="73" y="681"/>
      <point x="60" y="669"/>
      <point x="60" y="653" type="curve" smooth="yes"/>
      <point x="60" y="637"/>
      <point x="73" y="624"/>
      <point x="89" y="624" type="curve" smooth="yes"/>
      <point x="189" y="624" type="line"/>
      <point x="189" y="56" type="line"/>
      <point x="89" y="56" type="line" smooth="yes"/>
      <point x="73" y="56"/>
      <point x="60" y="44"/>
      <point x="60" y="28" type="curve" smooth="yes"/>
      <point x="60" y="12"/>
      <point x="73" y="-1"/>
      <point x="89" y="-1" type="curve" smooth="yes"/>
      <point x="345" y="-1" type="line" smooth="yes"/>
      <point x="361" y="-1"/>
      <point x="373" y="12"/>
      <point x="373" y="28" type="curve" smooth="yes"/>
      <point x="373" y="44"/>
      <point x="362" y="56"/>
      <point x="345" y="56" type="curve" smooth="yes"/>
    </contour>
    <contour>
      <point x="324" y="835" type="line" smooth="yes"/>
      <point x="331" y="840"/>
      <point x="334" y="849"/>
      <point x="334" y="858" type="curve" smooth="yes"/>
      <point x="334" y="878"/>
      <point x="319" y="894"/>
      <point x="300" y="894" type="curve" smooth="yes"/>
      <point x="289" y="894"/>
      <point x="279" y="886"/>
      <point x="271" y="879" type="curve" smooth="yes"/>
      <point x="145" y="776" type="line" smooth="yes"/>
      <point x="140" y="772"/>
      <point x="139" y="765"/>
      <point x="139" y="759" type="curve" smooth="yes"/>
      <point x="139" y="744"/>
      <point x="151" y="732"/>
      <point x="165" y="732" type="curve" smooth="yes"/>
      <point x="171" y="732"/>
      <point x="179" y="736"/>
      <point x="186" y="741" type="curve" smooth="yes"/>
    </contour>
  </outline>
</glyph>
<glyph name="Eth" format="1">
  <advance width="655"/>
  <unicode hex="00D0"/>
  <outline>
    <contour>
      <point x="464" y="-20"/>
      <point x="604" y="77"/>
      <point x="604" y="300" type="curve" smooth="yes"/>
      <point x="604" y="626"/>
      <point x="318" y="681"/>
      <point x="155" y="681" type="curve" smooth="yes"/>
      <point x="139" y="681"/>
      <point x="126" y="669"/>
      <point x="126" y="653" type="curve" smooth="yes"/>
      <point x="126" y="338" type="line"/>
      <point x="63" y="338" type="line" smooth="yes"/>
      <point x="48" y="338"/>
      <point x="35" y="325"/>
      <point x="35" y="309" type="curve" smooth="yes"/>
      <point x="35" y="294"/>
      <point x="48" y="281"/>
      <point x="63" y="281" type="curve" smooth="yes"/>
      <point x="126" y="281" type="line"/>
      <point x="126" y="25" type="line" smooth="yes"/>
      <point x="126" y="12"/>
      <point x="135" y="0"/>
      <point x="148" y="-3" type="curve" smooth="yes"/>
      <point x="156" y="-5"/>
      <point x="212" y="-20"/>
      <point x="271" y="-20" type="curve" smooth="yes"/>
    </contour>
    <contour>
      <point x="180" y="281" type="line"/>
      <point x="284" y="281" type="line" smooth="yes"/>
      <point x="299" y="281"/>
      <point x="312" y="294"/>
      <point x="312" y="309" type="curve" smooth="yes"/>
      <point x="312" y="325"/>
      <point x="299" y="338"/>
      <point x="284" y="338" type="curve" smooth="yes"/>
      <point x="180" y="338" type="line"/>
      <point x="180" y="624" type="line"/>
      <point x="383" y="615"/>
      <point x="549" y="532"/>
      <point x="549" y="300" type="curve" smooth="yes"/>
      <point x="549" y="123"/>
      <point x="449" y="37"/>
      <point x="271" y="37" type="curve" smooth="yes"/>
      <point x="239" y="37"/>
      <point x="202" y="43"/>
      <point x="180" y="48" type="curve"/>
    </contour>
  </outline>
</glyph>
<glyph name="Ocircumflex" format="1">
  <advance width="660"/>
  <unicode hex="00D4"/>
  <outline>
    <contour>
      <point x="465" y="-2"/>
      <point x="600" y="167"/>
      <point x="600" y="367" type="curve" smooth="yes"/>
      <point x="600" y="539"/>
      <point x="495" y="682"/>
      <point x="351" y="682" type="curve" smooth="yes"/>
      <point x="195" y="682"/>
      <point x="60" y="513"/>
      <point x="60" y="313" type="curve" smooth="yes"/>
      <point x="60" y="143"/>
      <point x="164" y="-2"/>
      <point x="309" y="-2" type="curve" smooth="yes"/>
    </contour>
    <contour>
      <point x="463" y="630"/>
      <point x="547" y="498"/>
      <point x="547" y="363" type="curve" smooth="yes"/>
      <point x="547" y="193"/>
      <point x="432" y="50"/>
      <point x="309" y="50" type="curve" smooth="yes"/>
      <point x="195" y="50"/>
      <point x="113" y="169"/>
      <point x="113" y="313" type="curve" smooth="yes"/>
      <point x="113" y="489"/>
      <point x="221" y="630"/>
      <point x="344" y="630" type="curve" smooth="yes"/>
    </contour>
    <contour>
      <point x="389" y="887" type="line"/>
      <point x="383" y="892"/>
      <point x="376" y="895"/>
      <point x="369" y="895" type="curve" smooth="yes"/>
      <point x="363" y="895"/>
      <point x="356" y="893"/>
      <point x="350" y="888" type="curve" smooth="yes"/>
      <point x="219" y="778" type="line"/>
      <point x="212" y="773"/>
      <point x="209" y="765"/>
      <point x="209" y="757" type="curve" smooth="yes"/>
      <point x="209" y="742"/>
      <point x="221" y="731"/>
      <point x="235" y="731" type="curve" smooth="yes"/>
      <point x="241" y="731"/>
      <point x="247" y="732"/>
      <point x="252" y="736" type="curve" smooth="yes"/>
      <point x="367" y="825" type="line"/>
      <point x="463" y="738" type="line"/>
      <point x="468" y="733"/>
      <point x="475" y="731"/>
      <point x="482" y="731" type="curve" smooth="yes"/>
      <point x="496" y="731"/>
      <point x="508" y="743"/>
      <point x="508" y="757" type="curve" smooth="yes"/>
      <point x="508" y="765"/>
      <point x="505" y="772"/>
      <point x="499" y="777" type="curve"/>
    </contour>
  </outline>
</glyph>
<glyph name="Otilde" format="1">
  <advance width="660"/>
  <unicode hex="00D5"/>
  <outline>
    <contour>
      <point x="465" y="-2"/>
      <point x="600" y="167"/>
      <point x="600" y="367" type="curve" smooth="yes"/>
      <point x="600" y="539"/>
      <point x="495" y="682"/>
      <point x="351" y="682" type="curve" smooth="yes"/>
      <point x="195" y="682"/>
      <point x="60" y="513"/>
      <point x="60" y="313" type="curve" smooth="yes"/>
      <point x="60" y="143"/>
      <point x="164" y="-2"/>
      <point x="309" y="-2" type="curve" smooth="yes"/>
    </contour>
    <contour>
      <point x="463" y="630"/>
      <point x="547" y="498"/>
      <point x="547" y="363" type="curve" smooth="yes"/>
      <point x="547" y="193"/>
      <point x="432" y="50"/>
      <point x="309" y="50" type="curve" smooth="yes"/>
      <point x="195" y="50"/>
      <point x="113" y="169"/>
      <point x="113" y="313" type="curve" smooth="yes"/>
      <point x="113" y="489"/>
      <point x="221" y="630"/>
      <point x="344" y="630" type="curve" smooth="yes"/>
    </contour>
    <contour>
      <point x="483" y="804"/>
      <point x="464" y="755"/>
      <point x="434" y="755" type="curve" smooth="yes"/>
      <point x="417" y="755"/>
      <point x="406" y="777"/>
      <point x="387" y="803" type="curve" smooth="yes"/>
      <point x="367" y="830"/>
      <point x="343" y="863"/>
      <point x="298" y="863" type="curve" smooth="yes"/>
      <point x="261" y="863"/>
      <point x="230" y="842"/>
      <point x="208" y="804" type="curve" smooth="yes"/>
      <point x="202" y="793"/>
      <point x="192" y="776"/>
      <point x="192" y="761" type="curve" smooth="yes"/>
      <point x="192" y="747"/>
      <point x="204" y="736"/>
      <point x="218" y="736" type="curve" smooth="yes"/>
      <point x="230" y="736"/>
      <point x="239" y="742"/>
      <point x="243" y="755" type="curve" smooth="yes"/>
      <point x="259" y="804"/>
      <point x="285" y="821"/>
      <point x="298" y="821" type="curve" smooth="yes"/>
      <point x="315" y="821"/>
      <point x="326" y="799"/>
      <point x="345" y="773" type="curve" smooth="yes"/>
      <point x="365" y="745"/>
      <point x="389" y="713"/>
      <point x="434" y="713" type="curve" smooth="yes"/>
      <point x="499" y="713"/>
      <point x="530" y="781"/>
      <point x="541" y="812" type="curve" smooth="yes"/>
      <point x="543" y="818"/>
      <point x="544" y="821"/>
      <point x="544" y="826" type="curve" smooth="yes"/>
      <point x="544" y="839"/>
      <point x="532" y="850"/>
      <point x="518" y="850" type="curve" smooth="yes"/>
      <point x="508" y="850"/>
      <point x="498" y="843"/>
      <point x="494" y="833" type="curve" smooth="yes"/>
    </contour>
  </outline>
</glyph>
<glyph name="Oslash" format="1">
  <advance width="660"/>
  <unicode hex="00D8"/>
  <outline>
    <contour>
      <point x="465" y="-2"/>
      <point x="600" y="167"/>
      <point x="600" y="367" type="curve" smooth="yes"/>
      <point x="600" y="473"/>
      <point x="560" y="567"/>
      <point x="496" y="625" type="curve"/>
      <point x="540" y="704" type="line"/>
      <point x="542" y="708"/>
      <point x="543" y="713"/>
      <point x="543" y="717" type="curve" smooth="yes"/>
      <point x="543" y="733"/>
      <point x="529" y="743"/>
      <point x="517" y="743" type="curve" smooth="yes"/>
      <point x="507" y="743"/>
      <point x="498" y="738"/>
      <point x="494" y="730" type="curve"/>
      <point x="453" y="655" type="line"/>
      <point x="422" y="672"/>
      <point x="388" y="682"/>
      <point x="351" y="682" type="curve" smooth="yes"/>
      <point x="195" y="682"/>
      <point x="60" y="513"/>
      <point x="60" y="313" type="curve" smooth="yes"/>
      <point x="60" y="224"/>
      <point x="88" y="143"/>
      <point x="135" y="85" type="curve"/>
      <point x="92" y="7" type="line"/>
      <point x="90" y="3"/>
      <point x="89" y="-1"/>
      <point x="89" y="-5" type="curve" smooth="yes"/>
      <point x="89" y="-20"/>
      <point x="98" y="-32"/>
      <point x="116" y="-32" type="curve" smooth="yes"/>
      <point x="126" y="-32"/>
      <point x="133" y="-28"/>
      <point x="138" y="-19" type="curve" smooth="yes"/>
      <point x="174" y="46" type="line"/>
      <point x="212" y="15"/>
      <point x="258" y="-2"/>
      <point x="309" y="-2" type="curve" smooth="yes"/>
    </contour>
    <contour>
      <point x="267" y="50"/>
      <point x="230" y="65"/>
      <point x="200" y="92" type="curve"/>
      <point x="468" y="574" type="line"/>
      <point x="517" y="523"/>
      <point x="547" y="443"/>
      <point x="547" y="363" type="curve" smooth="yes"/>
      <point x="547" y="193"/>
      <point x="432" y="50"/>
      <point x="309" y="50" type="curve" smooth="yes"/>
    </contour>
    <contour>
      <point x="373" y="630"/>
      <point x="401" y="622"/>
      <point x="426" y="607" type="curve"/>
      <point x="163" y="135" type="line"/>
      <point x="131" y="182"/>
      <point x="113" y="244"/>
      <point x="113" y="313" type="curve" smooth="yes"/>
      <point x="113" y="489"/>
      <point x="221" y="630"/>
      <point x="344" y="630" type="curve" smooth="yes"/>
    </contour>
  </outline>
</glyph>
<glyph name="Uacute" format="1">
  <advance width="683"/>
  <unicode hex="00DA"/>
  <outline>
    <contour>
      <point x="616" y="668"/>
      <point x="603" y="681"/>
      <point x="588" y="681" type="curve" smooth="yes"/>
      <point x="570" y="681"/>
      <point x="560" y="667"/>
      <point x="560" y="651" type="curve" smooth="yes"/>
      <point x="560" y="518"/>
      <point x="565" y="397"/>
      <point x="552" y="277" type="curve" smooth="yes"/>
      <point x="536" y="139"/>
      <point x="470" y="49"/>
      <point x="335" y="49" type="curve" smooth="yes"/>
      <point x="159" y="49"/>
      <point x="128" y="236"/>
      <point x="123" y="381" type="curve" smooth="yes"/>
      <point x="120" y="474"/>
      <point x="121" y="564"/>
      <point x="123" y="653" type="curve" smooth="yes"/>
      <point x="123" y="669"/>
      <point x="110" y="681"/>
      <point x="95" y="681" type="curve" smooth="yes"/>
      <point x="81" y="681"/>
      <point x="67" y="670"/>
      <point x="67" y="654" type="curve" smooth="yes"/>
      <point x="66" y="569"/>
      <point x="63" y="474"/>
      <point x="67" y="367" type="curve" smooth="yes"/>
      <point x="76" y="125"/>
      <point x="165" y="0"/>
      <point x="333" y="0" type="curve" smooth="yes"/>
      <point x="510" y="0"/>
      <point x="587" y="110"/>
      <point x="608" y="270" type="curve" smooth="yes"/>
      <point x="625" y="400"/>
      <point x="620" y="527"/>
      <point x="616" y="653" type="curve"/>
    </contour>
    <contour>
      <point x="453" y="835" type="line" smooth="yes"/>
      <point x="460" y="840"/>
      <point x="463" y="849"/>
      <point x="463" y="858" type="curve" smooth="yes"/>
      <point x="463" y="878"/>
      <point x="448" y="894"/>
      <point x="429" y="894" type="curve" smooth="yes"/>
      <point x="418" y="894"/>
      <point x="408" y="886"/>
      <point x="400" y="879" type="curve" smooth="yes"/>
      <point x="274" y="776" type="line" smooth="yes"/>
      <point x="269" y="772"/>
      <point x="268" y="765"/>
      <point x="268" y="759" type="curve" smooth="yes"/>
      <point x="268" y="744"/>
      <point x="280" y="732"/>
      <point x="294" y="732" type="curve" smooth="yes"/>
      <point x="300" y="732"/>
      <point x="308" y="736"/>
      <point x="315" y="741" type="curve" smooth="yes"/>
    </contour>
  </outline>
</glyph>
<glyph name="Ucircumflex" format="1">
  <advance width="683"/>
  <unicode hex="00DB"/>
  <outline>
    <contour>
      <point x="616" y="668"/>
      <point x="603" y="681"/>
      <point x="588" y="681" type="curve" smooth="yes"/>
      <point x="570" y="681"/>
      <point x="560" y="667"/>
      <point x="560" y="651" type="curve" smooth="yes"/>
      <point x="560" y="518"/>
      <point x="565" y="397"/>
      <point x="552" y="277" type="curve" smooth="yes"/>
      <point x="536" y="139"/>
      <point x="470" y="49"/>
      <point x="335" y="49" type="curve" smooth="yes"/>
      <point x="159" y="49"/>
      <point x="128" y="236"/>
      <point x="123" y="381" type="curve" smooth="yes"/>
      <point x="120" y="474"/>
      <point x="121" y="564"/>
      <point x="123" y="653" type="curve" smooth="yes"/>
      <point x="123" y="669"/>
      <point x="110" y="681"/>
      <point x="95" y="681" type="curve" smooth="yes"/>
      <point x="81" y="681"/>
      <point x="67" y="670"/>
      <point x="67" y="654" type="curve" smooth="yes"/>
      <point x="66" y="569"/>
      <point x="63" y="474"/>
      <point x="67" y="367" type="curve" smooth="yes"/>
      <point x="76" y="125"/>
      <point x="165" y="0"/>
      <point x="333" y="0" type="curve" smooth="yes"/>
      <point x="510" y="0"/>
      <point x="587" y="110"/>
      <point x="608" y="270" type="curve" smooth="yes"/>
      <point x="625" y="400"/>
      <point x="620" y="527"/>
      <point x="616" y="653" type="curve"/>
    </contour>
    <contour>
      <point x="382" y="887" type="line"/>
      <point x="376" y="892"/>
      <point x="369" y="895"/>
      <point x="362" y="895" type="curve" smooth="yes"/>
      <point x="356" y="895"/>
      <point x="349" y="893"/>
      <point x="343" y="888" type="curve" smooth="yes"/>
      <point x="212" y="778" type="line"/>
      <point x="205" y="773"/>
      <point x="202" y="765"/>
      <point x="202" y="757" type="curve" smooth="yes"/>
      <point x="202" y="742"/>
      <point x="214" y="731"/>
      <point x="228" y="731" type="curve" smooth="yes"/>
      <point x="234" y="731"/>
      <point x="240" y="732"/>
      <point x="245" y="736" type="curve" smooth="yes"/>
      <point x="360" y="825" type="line"/>
      <point x="456" y="738" type="line"/>
      <point x="461" y="733"/>
      <point x="468" y="731"/>
      <point x="475" y="731" type="curve" smooth="yes"/>
      <point x="489" y="731"/>
      <point x="501" y="743"/>
      <point x="501" y="757" type="curve" smooth="yes"/>
      <point x="501" y="765"/>
      <point x="498" y="772"/>
      <point x="492" y="777" type="curve"/>
    </contour>
  </outline>
</glyph>
<glyph name="Udieresis" format="1">
  <advance width="683"/>
  <unicode hex="00DC"/>
  <outline>
    <contour>
      <point x="616" y="668"/>
      <point x="603" y="681"/>
      <point x="588" y="681" type="curve" smooth="yes"/>
      <point x="570" y="681"/>
      <point x="560" y="667"/>
      <point x="560" y="651" type="curve" smooth="yes"/>
      <point x="560" y="518"/>
      <point x="565" y="397"/>
      <point x="552" y="277" type="curve" smooth="yes"/>
      <point x="536" y="139"/>
      <point x="470" y="49"/>
      <point x="335" y="49" type="curve" smooth="yes"/>
      <point x="159" y="49"/>
      <point x="128" y="236"/>
      <point x="123" y="381" type="curve" smooth="yes"/>
      <point x="120" y="474"/>
      <point x="121" y="564"/>
      <point x="123" y="653" type="curve" smooth="yes"/>
      <point x="123" y="669"/>
      <point x="110" y="681"/>
      <point x="95" y="681" type="curve" smooth="yes"/>
      <point x="81" y="681"/>
      <point x="67" y="670"/>
      <point x="67" y="654" type="curve" smooth="yes"/>
      <point x="66" y="569"/>
      <point x="63" y="474"/>
      <point x="67" y="367" type="curve" smooth="yes"/>
      <point x="76" y="125"/>
      <point x="165" y="0"/>
      <point x="333" y="0" type="curve" smooth="yes"/>
      <point x="510" y="0"/>
      <point x="587" y="110"/>
      <point x="608" y="270" type="curve" smooth="yes"/>
      <point x="625" y="400"/>
      <point x="620" y="527"/>
      <point x="616" y="653" type="curve"/>
    </contour>
    <contour>
      <point x="312" y="799"/>
      <point x="290" y="816"/>
      <point x="267" y="816" type="curve" smooth="yes"/>
      <point x="239" y="816"/>
      <point x="216" y="795"/>
      <point x="216" y="772" type="curve" smooth="yes"/>
      <point x="216" y="749"/>
      <point x="236" y="733"/>
      <point x="261" y="733" type="curve" smooth="yes"/>
      <point x="290" y="733"/>
      <point x="312" y="753"/>
      <point x="312" y="777" type="curve" smooth="yes"/>
    </contour>
    <contour>
      <point x="471" y="799"/>
      <point x="449" y="816"/>
      <point x="426" y="816" type="curve" smooth="yes"/>
      <point x="398" y="816"/>
      <point x="375" y="795"/>
      <point x="375" y="772" type="curve" smooth="yes"/>
      <point x="375" y="749"/>
      <point x="395" y="733"/>
      <point x="420" y="733" type="curve" smooth="yes"/>
      <point x="449" y="733"/>
      <point x="471" y="753"/>
      <point x="471" y="777" type="curve" smooth="yes"/>
    </contour>
  </outline>
</glyph>
<glyph name="agrave" format="1">
  <advance width="505"/>
  <unicode hex="00E0"/>
  <outline>
    <contour>
      <point x="440" y="463" type="line"/>
      <point x="425" y="471"/>
      <point x="363" y="504"/>
      <point x="289" y="504" type="curve" smooth="yes"/>
      <point x="115" y="504"/>
      <point x="50" y="318"/>
      <point x="50" y="214" type="curve" smooth="yes"/>
      <point x="50" y="85"/>
      <point x="130" y="-2"/>
      <point x="238" y="-2" type="curve" smooth="yes"/>
      <point x="293" y="-2"/>
      <point x="348" y="23"/>
      <point x="384" y="45" type="curve"/>
      <point x="384" y="22" type="line" smooth="yes"/>
      <point x="384" y="5"/>
      <point x="393" y="-10"/>
      <point x="412" y="-10" type="curve" smooth="yes"/>
      <point x="428" y="-10"/>
      <point x="440" y="4"/>
      <point x="440" y="20" type="curve" smooth="yes"/>
    </contour>
    <contour>
      <point x="382" y="111" type="line"/>
      <point x="359" y="95"/>
      <point x="297" y="53"/>
      <point x="236" y="53" type="curve" smooth="yes"/>
      <point x="141" y="53"/>
      <point x="107" y="146"/>
      <point x="107" y="216" type="curve" smooth="yes"/>
      <point x="107" y="299"/>
      <point x="155" y="449"/>
      <point x="292" y="449" type="curve" smooth="yes"/>
      <point x="326" y="449"/>
      <point x="367" y="436"/>
      <point x="386" y="428" type="curve"/>
    </contour>
    <contour>
      <point x="328" y="567" type="line" smooth="yes"/>
      <point x="333" y="562"/>
      <point x="339" y="558"/>
      <point x="347" y="558" type="curve" smooth="yes"/>
      <point x="361" y="558"/>
      <point x="375" y="569"/>
      <point x="375" y="584" type="curve" smooth="yes"/>
      <point x="375" y="590"/>
      <point x="373" y="595"/>
      <point x="368" y="602" type="curve"/>
      <point x="263" y="732" type="line"/>
      <point x="256" y="740"/>
      <point x="245" y="747"/>
      <point x="234" y="747" type="curve" smooth="yes"/>
      <point x="216" y="747"/>
      <point x="199" y="731"/>
      <point x="199" y="713" type="curve" smooth="yes"/>
      <point x="199" y="703"/>
      <point x="203" y="695"/>
      <point x="210" y="688" type="curve" smooth="yes"/>
    </contour>
  </outline>
</glyph>
<glyph name="acircumflex" format="1">
  <advance width="505"/>
  <unicode hex="00E2"/>
  <outline>
    <contour>
      <point x="440" y="463" type="line"/>
      <point x="425" y="471"/>
      <point x="363" y="504"/>
      <point x="289" y="504" type="curve" smooth="yes"/>
      <point x="115" y="504"/>
      <point x="50" y="318"/>
      <point x="50" y="214" type="curve" smooth="yes"/>
      <point x="50" y="85"/>
      <point x="130" y="-2"/>
      <point x="238" y="-2" type="curve" smooth="yes"/>
      <point x="293" y="-2"/>
      <point x="348" y="23"/>
      <point x="384" y="45" type="curve"/>
      <point x="384" y="22" type="line" smooth="yes"/>
      <point x="384" y="5"/>
      <point x="393" y="-10"/>
      <point x="412" y="-10" type="curve" smooth="yes"/>
      <point x="428" y="-10"/>
      <point x="440" y="4"/>
      <point x="440" y="20" type="curve" smooth="yes"/>
    </contour>
    <contour>
      <point x="382" y="111" type="line"/>
      <point x="359" y="95"/>
      <point x="297" y="53"/>
      <point x="236" y="53" type="curve" smooth="yes"/>
      <point x="141" y="53"/>
      <point x="107" y="146"/>
      <point x="107" y="216" type="curve" smooth="yes"/>
      <point x="107" y="299"/>
      <point x="155" y="449"/>
      <point x="292" y="449" type="curve" smooth="yes"/>
      <point x="326" y="449"/>
      <point x="367" y="436"/>
      <point x="386" y="428" type="curve"/>
    </contour>
    <contour>
      <point x="327" y="730" type="line"/>
      <point x="321" y="735"/>
      <point x="314" y="738"/>
      <point x="307" y="738" type="curve" smooth="yes"/>
      <point x="301" y="738"/>
      <point x="294" y="736"/>
      <point x="288" y="731" type="curve" smooth="yes"/>
      <point x="157" y="621" type="line"/>
      <point x="150" y="616"/>
      <point x="147" y="608"/>
      <point x="147" y="600" type="curve" smooth="yes"/>
      <point x="147" y="585"/>
      <point x="159" y="574"/>
      <point x="173" y="574" type="curve" smooth="yes"/>
      <point x="179" y="574"/>
      <point x="185" y="575"/>
      <point x="190" y="579" type="curve" smooth="yes"/>
      <point x="305" y="668" type="line"/>
      <point x="401" y="581" type="line"/>
      <point x="406" y="576"/>
      <point x="413" y="574"/>
      <point x="420" y="574" type="curve" smooth="yes"/>
      <point x="434" y="574"/>
      <point x="446" y="586"/>
      <point x="446" y="600" type="curve" smooth="yes"/>
      <point x="446" y="608"/>
      <point x="443" y="615"/>
      <point x="437" y="620" type="curve"/>
    </contour>
  </outline>
</glyph>
<glyph name="atilde" format="1">
  <advance width="505"/>
  <unicode hex="00E3"/>
  <outline>
    <contour>
      <point x="440" y="463" type="line"/>
      <point x="425" y="471"/>
      <point x="363" y="504"/>
      <point x="289" y="504" type="curve" smooth="yes"/>
      <point x="115" y="504"/>
      <point x="50" y="318"/>
      <point x="50" y="214" type="curve" smooth="yes"/>
      <point x="50" y="85"/>
      <point x="130" y="-2"/>
      <point x="238" y="-2" type="curve" smooth="yes"/>
      <point x="293" y="-2"/>
      <point x="348" y="23"/>
      <point x="384" y="45" type="curve"/>
      <point x="384" y="22" type="line" smooth="yes"/>
      <point x="384" y="5"/>
      <point x="393" y="-10"/>
      <point x="412" y="-10" type="curve" smooth="yes"/>
      <point x="428" y="-10"/>
      <point x="440" y="4"/>
      <point x="440" y="20" type="curve" smooth="yes"/>
    </contour>
    <contour>
      <point x="382" y="111" type="line"/>
      <point x="359" y="95"/>
      <point x="297" y="53"/>
      <point x="236" y="53" type="curve" smooth="yes"/>
      <point x="141" y="53"/>
      <point x="107" y="146"/>
      <point x="107" y="216" type="curve" smooth="yes"/>
      <point x="107" y="299"/>
      <point x="155" y="449"/>
      <point x="292" y="449" type="curve" smooth="yes"/>
      <point x="326" y="449"/>
      <point x="367" y="436"/>
      <point x="386" y="428" type="curve"/>
    </contour>
    <contour>
      <point x="381" y="647"/>
      <point x="362" y="598"/>
      <point x="332" y="598" type="curve" smooth="yes"/>
      <point x="315" y="598"/>
      <point x="304" y="620"/>
      <point x="285" y="646" type="curve" smooth="yes"/>
      <point x="265" y="673"/>
      <point x="241" y="706"/>
      <point x="196" y="706" type="curve" smooth="yes"/>
      <point x="159" y="706"/>
      <point x="128" y="685"/>
      <point x="106" y="647" type="curve" smooth="yes"/>
      <point x="100" y="636"/>
      <point x="90" y="619"/>
      <point x="90" y="604" type="curve" smooth="yes"/>
      <point x="90" y="590"/>
      <point x="102" y="579"/>
      <point x="116" y="579" type="curve" smooth="yes"/>
      <point x="128" y="579"/>
      <point x="137" y="585"/>
      <point x="141" y="598" type="curve" smooth="yes"/>
      <point x="157" y="647"/>
      <point x="183" y="664"/>
      <point x="196" y="664" type="curve" smooth="yes"/>
      <point x="213" y="664"/>
      <point x="224" y="642"/>
      <point x="243" y="616" type="curve" smooth="yes"/>
      <point x="263" y="588"/>
      <point x="287" y="556"/>
      <point x="332" y="556" type="curve" smooth="yes"/>
      <point x="397" y="556"/>
      <point x="428" y="624"/>
      <point x="439" y="655" type="curve" smooth="yes"/>
      <point x="441" y="661"/>
      <point x="442" y="664"/>
      <point x="442" y="669" type="curve" smooth="yes"/>
      <point x="442" y="682"/>
      <point x="430" y="693"/>
      <point x="416" y="693" type="curve" smooth="yes"/>
      <point x="406" y="693"/>
      <point x="396" y="686"/>
      <point x="392" y="676" type="curve" smooth="yes"/>
    </contour>
  </outline>
</glyph>
<glyph name="aring" format="1">
  <advance width="505"/>
  <unicode hex="00E5"/>
  <outline>
    <contour>
      <point x="440" y="463" type="line"/>
      <point x="425" y="471"/>
      <point x="363" y="504"/>
      <point x="289" y="504" type="curve" smooth="yes"/>
      <point x="115" y="504"/>
      <point x="50" y="318"/>
      <point x="50" y="214" type="curve" smooth="yes"/>
      <point x="50" y="85"/>
      <point x="130" y="-2"/>
      <point x="238" y="-2" type="curve" smooth="yes"/>
      <point x="293" y="-2"/>
      <point x="348" y="23"/>
      <point x="384" y="45" type="curve"/>
      <point x="384" y="22" type="line" smooth="yes"/>
      <point x="384" y="5"/>
      <point x="393" y="-10"/>
      <point x="412" y="-10" type="curve" smooth="yes"/>
      <point x="428" y="-10"/>
      <point x="440" y="4"/>
      <point x="440" y="20" type="curve" smooth="yes"/>
    </contour>
    <contour>
      <point x="382" y="111" type="line"/>
      <point x="359" y="95"/>
      <point x="297" y="53"/>
      <point x="236" y="53" type="curve" smooth="yes"/>
      <point x="141" y="53"/>
      <point x="107" y="146"/>
      <point x="107" y="216" type="curve" smooth="yes"/>
      <point x="107" y="299"/>
      <point x="155" y="449"/>
      <point x="292" y="449" type="curve" smooth="yes"/>
      <point x="326" y="449"/>
      <point x="367" y="436"/>
      <point x="386" y="428" type="curve"/>
    </contour>
    <contour>
      <point x="359" y="563"/>
      <point x="427" y="610"/>
      <point x="427" y="679" type="curve" smooth="yes"/>
      <point x="427" y="737"/>
      <point x="374" y="782"/>
      <point x="314" y="782" type="curve" smooth="yes"/>
      <point x="246" y="782"/>
      <point x="178" y="733"/>
      <point x="178" y="665" type="curve" smooth="yes"/>
      <point x="178" y="608"/>
      <point x="230" y="563"/>
      <point x="292" y="563" type="curve" smooth="yes"/>
    </contour>
    <contour>
      <point x="353" y="735"/>
      <point x="385" y="706"/>
      <point x="385" y="677" type="curve" smooth="yes"/>
      <point x="385" y="635"/>
      <point x="336" y="609"/>
      <point x="301" y="609" type="curve" smooth="yes"/>
      <point x="255" y="609"/>
      <point x="220" y="630"/>
      <point x="220" y="665" type="curve" smooth="yes"/>
      <point x="220" y="695"/>
      <point x="256" y="735"/>
      <point x="310" y="735" type="curve" smooth="yes"/>
    </contour>
  </outline>
</glyph>
<glyph name="ae" format="1">
  <advance width="832"/>
  <unicode hex="00E6"/>
  <outline>
    <contour>
      <point x="426" y="458" type="line"/>
      <point x="410" y="470"/>
      <point x="340" y="498"/>
      <point x="275" y="498" type="curve" smooth="yes"/>
      <point x="156" y="498"/>
      <point x="50" y="380"/>
      <point x="50" y="214" type="curve" smooth="yes"/>
      <point x="50" y="86"/>
      <point x="129" y="8"/>
      <point x="233" y="8" type="curve" smooth="yes"/>
      <point x="285" y="8"/>
      <point x="338" y="32"/>
      <point x="372" y="53" type="curve"/>
      <point x="372" y="27" type="line" smooth="yes"/>
      <point x="372" y="14"/>
      <point x="383" y="0"/>
      <point x="400" y="0" type="curve" smooth="yes"/>
      <point x="414" y="0"/>
      <point x="427" y="14"/>
      <point x="427" y="27" type="curve" smooth="yes"/>
      <point x="427" y="82" type="line"/>
      <point x="472" y="27"/>
      <point x="535" y="0"/>
      <point x="612" y="0" type="curve" smooth="yes"/>
      <point x="673" y="0"/>
      <point x="739" y="32"/>
      <point x="774" y="72" type="curve"/>
      <point x="778" y="76"/>
      <point x="781" y="83"/>
      <point x="781" y="90" type="curve" smooth="yes"/>
      <point x="781" y="105"/>
      <point x="770" y="116"/>
      <point x="755" y="116" type="curve" smooth="yes"/>
      <point x="748" y="116"/>
      <point x="741" y="113"/>
      <point x="737" y="108" type="curve"/>
      <point x="710" y="77"/>
      <point x="662" y="52"/>
      <point x="619" y="52" type="curve" smooth="yes"/>
      <point x="538" y="52"/>
      <point x="478" y="78"/>
      <point x="441" y="147" type="curve"/>
      <point x="750" y="325" type="line" smooth="yes"/>
      <point x="766" y="334"/>
      <point x="772" y="343"/>
      <point x="772" y="354" type="curve" smooth="yes"/>
      <point x="772" y="397"/>
      <point x="715" y="483"/>
      <point x="595" y="483" type="curve" smooth="yes"/>
      <point x="535" y="483"/>
      <point x="470" y="455"/>
      <point x="426" y="398" type="curve"/>
    </contour>
    <contour>
      <point x="343" y="95"/>
      <point x="280" y="61"/>
      <point x="229" y="61" type="curve" smooth="yes"/>
      <point x="150" y="61"/>
      <point x="104" y="131"/>
      <point x="104" y="217" type="curve" smooth="yes"/>
      <point x="104" y="298"/>
      <point x="150" y="445"/>
      <point x="283" y="445" type="curve" smooth="yes"/>
      <point x="317" y="445"/>
      <point x="358" y="432"/>
      <point x="375" y="424" type="curve"/>
      <point x="370" y="117" type="line"/>
    </contour>
    <contour>
      <point x="660" y="430"/>
      <point x="693" y="411"/>
      <point x="718" y="361" type="curve"/>
      <point x="424" y="198" type="line"/>
      <point x="422" y="209"/>
      <point x="422" y="218"/>
      <point x="422" y="229" type="curve" smooth="yes"/>
      <point x="422" y="345"/>
      <point x="498" y="430"/>
      <point x="595" y="430" type="curve" smooth="yes"/>
    </contour>
  </outline>
</glyph>
<glyph name="edieresis" format="1">
  <advance width="521"/>
  <unicode hex="00EB"/>
  <outline>
    <contour>
      <point x="471" y="105"/>
      <point x="460" y="116"/>
      <point x="445" y="116" type="curve" smooth="yes"/>
      <point x="438" y="116"/>
      <point x="431" y="113"/>
      <point x="427" y="108" type="curve"/>
      <point x="400" y="77"/>
      <point x="342" y="52"/>
      <point x="299" y="52" type="curve" smooth="yes"/>
      <point x="218" y="52"/>
      <point x="159" y="86"/>
      <point x="122" y="155" type="curve"/>
      <point x="440" y="337" type="line" smooth="yes"/>
      <point x="456" y="346"/>
      <point x="462" y="355"/>
      <point x="462" y="366" type="curve" smooth="yes"/>
      <point x="462" y="409"/>
      <point x="404" y="499"/>
      <point x="275" y="499" type="curve" smooth="yes"/>
      <point x="139" y="499"/>
      <point x="51" y="376"/>
      <point x="51" y="238" type="curve" smooth="yes"/>
      <point x="51" y="114"/>
      <point x="147" y="0"/>
      <point x="300" y="0" type="curve" smooth="yes"/>
      <point x="361" y="0"/>
      <point x="429" y="32"/>
      <point x="464" y="72" type="curve"/>
      <point x="468" y="76"/>
      <point x="471" y="83"/>
      <point x="471" y="90" type="curve" smooth="yes"/>
    </contour>
    <contour>
      <point x="350" y="446"/>
      <point x="390" y="420"/>
      <point x="408" y="373" type="curve"/>
      <point x="104" y="206" type="line"/>
      <point x="102" y="217"/>
      <point x="102" y="226"/>
      <point x="102" y="237" type="curve" smooth="yes"/>
      <point x="102" y="353"/>
      <point x="173" y="446"/>
      <point x="275" y="446" type="curve" smooth="yes"/>
    </contour>
    <contour>
      <point x="259" y="642"/>
      <point x="237" y="659"/>
      <point x="214" y="659" type="curve" smooth="yes"/>
      <point x="186" y="659"/>
      <point x="163" y="638"/>
      <point x="163" y="615" type="curve" smooth="yes"/>
      <point x="163" y="592"/>
      <point x="183" y="576"/>
      <point x="208" y="576" type="curve" smooth="yes"/>
      <point x="237" y="576"/>
      <point x="259" y="596"/>
      <point x="259" y="620" type="curve" smooth="yes"/>
    </contour>
    <contour>
      <point x="418" y="642"/>
      <point x="396" y="659"/>
      <point x="373" y="659" type="curve" smooth="yes"/>
      <point x="345" y="659"/>
      <point x="322" y="638"/>
      <point x="322" y="615" type="curve" smooth="yes"/>
      <point x="322" y="592"/>
      <point x="342" y="576"/>
      <point x="367" y="576" type="curve" smooth="yes"/>
      <point x="396" y="576"/>
      <point x="418" y="596"/>
      <point x="418" y="620" type="curve" smooth="yes"/>
    </contour>
  </outline>
</glyph>
<glyph name="igrave" format="1">
  <advance width="194"/>
  <unicode hex="00EC"/>
  <outline>
    <contour>
      <point x="129" y="483"/>
      <point x="116" y="496"/>
      <point x="100" y="496" type="curve" smooth="yes"/>
      <point x="84" y="496"/>
      <point x="71" y="483"/>
      <point x="71" y="467" type="curve"/>
      <point x="71" y="467"/>
      <point x="65" y="29"/>
      <point x="65" y="29" type="curve"/>
      <point x="65" y="13"/>
      <point x="78" y="0"/>
      <point x="94" y="0" type="curve" smooth="yes"/>
      <point x="110" y="0"/>
      <point x="123" y="13"/>
      <point x="123" y="29" type="curve"/>
      <point x="123" y="29"/>
      <point x="129" y="467"/>
      <point x="129" y="467" type="curve"/>
    </contour>
    <contour>
      <point x="144" y="567" type="line" smooth="yes"/>
      <point x="149" y="562"/>
      <point x="155" y="558"/>
      <point x="163" y="558" type="curve" smooth="yes"/>
      <point x="177" y="558"/>
      <point x="191" y="569"/>
      <point x="191" y="584" type="curve" smooth="yes"/>
      <point x="191" y="590"/>
      <point x="189" y="595"/>
      <point x="184" y="602" type="curve"/>
      <point x="79" y="732" type="line"/>
      <point x="72" y="740"/>
      <point x="61" y="747"/>
      <point x="50" y="747" type="curve" smooth="yes"/>
      <point x="32" y="747"/>
      <point x="15" y="731"/>
      <point x="15" y="713" type="curve" smooth="yes"/>
      <point x="15" y="703"/>
      <point x="19" y="695"/>
      <point x="26" y="688" type="curve" smooth="yes"/>
    </contour>
  </outline>
</glyph>
<glyph name="icircumflex" format="1">
  <advance width="234"/>
  <unicode hex="00EE"/>
  <outline>
    <contour>
      <point x="153" y="483"/>
      <point x="140" y="496"/>
      <point x="124" y="496" type="curve" smooth="yes"/>
      <point x="108" y="496"/>
      <point x="95" y="483"/>
      <point x="95" y="467" type="curve"/>
      <point x="95" y="467"/>
      <point x="89" y="29"/>
      <point x="89" y="29" type="curve"/>
      <point x="89" y="13"/>
      <point x="102" y="0"/>
      <point x="118" y="0" type="curve" smooth="yes"/>
      <point x="134" y="0"/>
      <point x="147" y="13"/>
      <point x="147" y="29" type="curve"/>
      <point x="147" y="29"/>
      <point x="153" y="467"/>
      <point x="153" y="467" type="curve"/>
    </contour>
    <contour>
      <point x="156" y="730" type="line"/>
      <point x="150" y="735"/>
      <point x="143" y="738"/>
      <point x="136" y="738" type="curve" smooth="yes"/>
      <point x="130" y="738"/>
      <point x="123" y="736"/>
      <point x="117" y="731" type="curve" smooth="yes"/>
      <point x="-14" y="621" type="line"/>
      <point x="-21" y="616"/>
      <point x="-24" y="608"/>
      <point x="-24" y="600" type="curve" smooth="yes"/>
      <point x="-24" y="585"/>
      <point x="-12" y="574"/>
      <point x="2" y="574" type="curve" smooth="yes"/>
      <point x="8" y="574"/>
      <point x="14" y="575"/>
      <point x="19" y="579" type="curve" smooth="yes"/>
      <point x="134" y="668" type="line"/>
      <point x="230" y="581" type="line"/>
      <point x="235" y="576"/>
      <point x="242" y="574"/>
      <point x="249" y="574" type="curve" smooth="yes"/>
      <point x="263" y="574"/>
      <point x="275" y="586"/>
      <point x="275" y="600" type="curve" smooth="yes"/>
      <point x="275" y="608"/>
      <point x="272" y="615"/>
      <point x="266" y="620" type="curve"/>
    </contour>
  </outline>
</glyph>
<glyph name="ntilde" format="1">
  <advance width="535"/>
  <unicode hex="00F1"/>
  <outline>
    <contour>
      <point x="121" y="473" type="line" smooth="yes"/>
      <point x="121" y="488"/>
      <point x="108" y="500"/>
      <point x="93" y="500" type="curve" smooth="yes"/>
      <point x="78" y="500"/>
      <point x="65" y="488"/>
      <point x="65" y="473" type="curve" smooth="yes"/>
      <point x="65" y="26" type="line" smooth="yes"/>
      <point x="65" y="12"/>
      <point x="78" y="0"/>
      <point x="93" y="0" type="curve" smooth="yes"/>
      <point x="110" y="0"/>
      <point x="120" y="13"/>
      <point x="120" y="30" type="curve" smooth="yes"/>
      <point x="121" y="111" type="line" smooth="yes"/>
      <point x="122" y="181"/>
      <point x="141" y="264"/>
      <point x="175" y="326" type="curve" smooth="yes"/>
      <point x="228" y="424"/>
      <point x="281" y="445"/>
      <point x="325" y="445" type="curve" smooth="yes"/>
      <point x="430" y="445"/>
      <point x="411" y="305"/>
      <point x="416" y="28" type="curve" smooth="yes"/>
      <point x="416" y="13"/>
      <point x="428" y="0"/>
      <point x="443" y="0" type="curve" smooth="yes"/>
      <point x="459" y="0"/>
      <point x="469" y="13"/>
      <point x="469" y="29" type="curve" smooth="yes"/>
      <point x="473" y="351"/>
      <point x="472" y="499"/>
      <point x="328" y="499" type="curve" smooth="yes"/>
      <point x="222" y="499"/>
      <point x="141" y="406"/>
      <point x="121" y="292" type="curve"/>
    </contour>
    <contour>
      <point x="405" y="647"/>
      <point x="386" y="598"/>
      <point x="356" y="598" type="curve" smooth="yes"/>
      <point x="339" y="598"/>
      <point x="328" y="620"/>
      <point x="309" y="646" type="curve" smooth="yes"/>
      <point x="289" y="673"/>
      <point x="265" y="706"/>
      <point x="220" y="706" type="curve" smooth="yes"/>
      <point x="183" y="706"/>
      <point x="152" y="685"/>
      <point x="130" y="647" type="curve" smooth="yes"/>
      <point x="124" y="636"/>
      <point x="114" y="619"/>
      <point x="114" y="604" type="curve" smooth="yes"/>
      <point x="114" y="590"/>
      <point x="126" y="579"/>
      <point x="140" y="579" type="curve" smooth="yes"/>
      <point x="152" y="579"/>
      <point x="161" y="585"/>
      <point x="165" y="598" type="curve" smooth="yes"/>
      <point x="181" y="647"/>
      <point x="207" y="664"/>
      <point x="220" y="664" type="curve" smooth="yes"/>
      <point x="237" y="664"/>
      <point x="248" y="642"/>
      <point x="267" y="616" type="curve" smooth="yes"/>
      <point x="287" y="588"/>
      <point x="311" y="556"/>
      <point x="356" y="556" type="curve" smooth="yes"/>
      <point x="421" y="556"/>
      <point x="452" y="624"/>
      <point x="463" y="655" type="curve" smooth="yes"/>
      <point x="465" y="661"/>
      <point x="466" y="664"/>
      <point x="466" y="669" type="curve" smooth="yes"/>
      <point x="466" y="682"/>
      <point x="454" y="693"/>
      <point x="440" y="693" type="curve" smooth="yes"/>
      <point x="430" y="693"/>
      <point x="420" y="686"/>
      <point x="416" y="676" type="curve" smooth="yes"/>
    </contour>
  </outline>
</glyph>
<glyph name="oacute" format="1">
  <advance width="535"/>
  <unicode hex="00F3"/>
  <outline>
    <contour>
      <point x="378" y="0"/>
      <point x="485" y="123"/>
      <point x="485" y="270" type="curve" smooth="yes"/>
      <point x="485" y="394"/>
      <point x="397" y="500"/>
      <point x="283" y="500" type="curve" smooth="yes"/>
      <point x="157" y="500"/>
      <point x="50" y="376"/>
      <point x="50" y="230" type="curve" smooth="yes"/>
      <point x="50" y="104"/>
      <point x="137" y="0"/>
      <point x="252" y="0" type="curve" smooth="yes"/>
    </contour>
    <contour>
      <point x="361" y="452"/>
      <point x="427" y="365"/>
      <point x="427" y="265" type="curve" smooth="yes"/>
      <point x="427" y="149"/>
      <point x="343" y="48"/>
      <point x="252" y="48" type="curve" smooth="yes"/>
      <point x="165" y="48"/>
      <point x="107" y="133"/>
      <point x="107" y="232" type="curve" smooth="yes"/>
      <point x="107" y="349"/>
      <point x="185" y="452"/>
      <point x="278" y="452" type="curve" smooth="yes"/>
    </contour>
    <contour>
      <point x="387" y="666" type="line" smooth="yes"/>
      <point x="394" y="671"/>
      <point x="397" y="680"/>
      <point x="397" y="689" type="curve" smooth="yes"/>
      <point x="397" y="709"/>
      <point x="382" y="725"/>
      <point x="363" y="725" type="curve" smooth="yes"/>
      <point x="352" y="725"/>
      <point x="342" y="717"/>
      <point x="334" y="710" type="curve" smooth="yes"/>
      <point x="208" y="607" type="line" smooth="yes"/>
      <point x="203" y="603"/>
      <point x="202" y="596"/>
      <point x="202" y="590" type="curve" smooth="yes"/>
      <point x="202" y="575"/>
      <point x="214" y="563"/>
      <point x="228" y="563" type="curve" smooth="yes"/>
      <point x="234" y="563"/>
      <point x="242" y="567"/>
      <point x="249" y="572" type="curve" smooth="yes"/>
    </contour>
  </outline>
</glyph>
<glyph name="oslash" format="1">
  <advance width="535"/>
  <unicode hex="00F8"/>
  <outline>
    <contour>
      <point x="378" y="0"/>
      <point x="485" y="123"/>
      <point x="485" y="270" type="curve" smooth="yes"/>
      <point x="485" y="342"/>
      <point x="455" y="408"/>
      <point x="408" y="451" type="curve"/>
      <point x="440" y="506" type="line" smooth="yes"/>
      <point x="443" y="511"/>
      <point x="444" y="515"/>
      <point x="444" y="519" type="curve" smooth="yes"/>
      <point x="444" y="533"/>
      <point x="431" y="544"/>
      <point x="418" y="544" type="curve" smooth="yes"/>
      <point x="409" y="544"/>
      <point x="401" y="540"/>
      <point x="396" y="532" type="curve" smooth="yes"/>
      <point x="365" y="480" type="line"/>
      <point x="340" y="493"/>
      <point x="312" y="500"/>
      <point x="283" y="500" type="curve" smooth="yes"/>
      <point x="157" y="500"/>
      <point x="50" y="376"/>
      <point x="50" y="230" type="curve" smooth="yes"/>
      <point x="50" y="161"/>
      <point x="76" y="99"/>
      <point x="118" y="56" type="curve"/>
      <point x="87" y="4" type="line"/>
      <point x="85" y="0"/>
      <point x="84" y="-3"/>
      <point x="84" y="-7" type="curve"/>
      <point x="83" y="-22"/>
      <point x="95" y="-35"/>
      <point x="109" y="-35" type="curve" smooth="yes"/>
      <point x="118" y="-35"/>
      <point x="126" y="-30"/>
      <point x="131" y="-22" type="curve"/>
      <point x="158" y="25" type="line"/>
      <point x="186" y="9"/>
      <point x="218" y="0"/>
      <point x="252" y="0" type="curve" smooth="yes"/>
    </contour>
    <contour>
      <point x="226" y="48"/>
      <point x="203" y="55"/>
      <point x="183" y="68" type="curve"/>
      <point x="379" y="402" type="line"/>
      <point x="408" y="367"/>
      <point x="427" y="318"/>
      <point x="427" y="265" type="curve" smooth="yes"/>
      <point x="427" y="149"/>
      <point x="343" y="48"/>
      <point x="252" y="48" type="curve" smooth="yes"/>
    </contour>
    <contour>
      <point x="300" y="452"/>
      <point x="321" y="446"/>
      <point x="339" y="435" type="curve"/>
      <point x="146" y="104" type="line"/>
      <point x="121" y="138"/>
      <point x="107" y="183"/>
      <point x="107" y="232" type="curve" smooth="yes"/>
      <point x="107" y="349"/>
      <point x="185" y="452"/>
      <point x="278" y="452" type="curve" smooth="yes"/>
    </contour>
  </outline>
</glyph>
<glyph name="yacute" format="1">
  <advance width="489"/>
  <unicode hex="00FD"/>
  <outline>
    <contour>
      <point x="467" y="461" type="line" smooth="yes"/>
      <point x="469" y="465"/>
      <point x="469" y="469"/>
      <point x="469" y="473" type="curve" smooth="yes"/>
      <point x="469" y="489"/>
      <point x="456" y="501"/>
      <point x="441" y="501" type="curve" smooth="yes"/>
      <point x="428" y="501"/>
      <point x="418" y="493"/>
      <point x="414" y="483" type="curve"/>
      <point x="251" y="127" type="line"/>
      <point x="75" y="481" type="line" smooth="yes"/>
      <point x="70" y="491"/>
      <point x="60" y="500"/>
      <point x="48" y="500" type="curve" smooth="yes"/>
      <point x="32" y="500"/>
      <point x="20" y="487"/>
      <point x="20" y="471" type="curve" smooth="yes"/>
      <point x="20" y="466"/>
      <point x="22" y="460"/>
      <point x="24" y="456" type="curve" smooth="yes"/>
      <point x="220" y="61" type="line"/>
      <point x="121" y="-156" type="line"/>
      <point x="119" y="-160"/>
      <point x="118" y="-164"/>
      <point x="118" y="-168" type="curve" smooth="yes"/>
      <point x="118" y="-184"/>
      <point x="131" y="-197"/>
      <point x="146" y="-197" type="curve" smooth="yes"/>
      <point x="159" y="-197"/>
      <point x="169" y="-189"/>
      <point x="173" y="-179" type="curve"/>
    </contour>
    <contour>
      <point x="353" y="666" type="line" smooth="yes"/>
      <point x="360" y="671"/>
      <point x="363" y="680"/>
      <point x="363" y="689" type="curve" smooth="yes"/>
      <point x="363" y="709"/>
      <point x="348" y="725"/>
      <point x="329" y="725" type="curve" smooth="yes"/>
      <point x="318" y="725"/>
      <point x="308" y="717"/>
      <point x="300" y="710" type="curve" smooth="yes"/>
      <point x="174" y="607" type="line" smooth="yes"/>
      <point x="169" y="603"/>
      <point x="168" y="596"/>
      <point x="168" y="590" type="curve" smooth="yes"/>
      <point x="168" y="575"/>
      <point x="180" y="563"/>
      <point x="194" y="563" type="curve" smooth="yes"/>
      <point x="200" y="563"/>
      <point x="208" y="567"/>
      <point x="215" y="572" type="curve" smooth="yes"/>
    </contour>
  </outline>
</glyph>
<glyph name="abreve" format="1">
  <advance width="505"/>
  <unicode hex="0103"/>
  <outline>
    <contour>
      <point x="440" y="463" type="line"/>
      <point x="425" y="471"/>
      <point x="363" y="504"/>
      <point x="289" y="504" type="curve" smooth="yes"/>
      <point x="115" y="504"/>
      <point x="50" y="318"/>
      <point x="50" y="214" type="curve" smooth="yes"/>
      <point x="50" y="85"/>
      <point x="130" y="-2"/>
      <point x="238" y="-2" type="curve" smooth="yes"/>
      <point x="293" y="-2"/>
      <point x="348" y="23"/>
      <point x="384" y="45" type="curve"/>
      <point x="384" y="22" type="line" smooth="yes"/>
      <point x="384" y="5"/>
      <point x="393" y="-10"/>
      <point x="412" y="-10" type="curve" smooth="yes"/>
      <point x="428" y="-10"/>
      <point x="440" y="4"/>
      <point x="440" y="20" type="curve" smooth="yes"/>
    </contour>
    <contour>
      <point x="382" y="111" type="line"/>
      <point x="359" y="95"/>
      <point x="297" y="53"/>
      <point x="236" y="53" type="curve" smooth="yes"/>
      <point x="141" y="53"/>
      <point x="107" y="146"/>
      <point x="107" y="216" type="curve" smooth="yes"/>
      <point x="107" y="299"/>
      <point x="155" y="449"/>
      <point x="292" y="449" type="curve" smooth="yes"/>
      <point x="326" y="449"/>
      <point x="367" y="436"/>
      <point x="386" y="428" type="curve"/>
    </contour>
    <contour>
      <point x="127" y="650"/>
      <point x="167" y="559"/>
      <point x="285" y="559" type="curve" smooth="yes"/>
      <point x="380" y="559"/>
      <point x="433" y="633"/>
      <point x="433" y="678" type="curve" smooth="yes"/>
      <point x="433" y="687"/>
      <point x="425" y="695"/>
      <point x="416" y="695" type="curve" smooth="yes"/>
      <point x="403" y="695"/>
      <point x="398" y="686"/>
      <point x="393" y="674" type="curve" smooth="yes"/>
      <point x="373" y="625"/>
      <point x="338" y="605"/>
      <point x="287" y="605" type="curve" smooth="yes"/>
      <point x="250" y="605"/>
      <point x="192" y="622"/>
      <point x="167" y="672" type="curve"/>
      <point x="163" y="679"/>
      <point x="155" y="690"/>
      <point x="144" y="690" type="curve" smooth="yes"/>
      <point x="129" y="690"/>
      <point x="127" y="679"/>
      <point x="127" y="671" type="curve" smooth="yes"/>
    </contour>
  </outline>
</glyph>
<glyph name="Aogonek" format="1">
  <advance width="624"/>
  <unicode hex="0104"/>
  <outline>
    <contour>
      <point x="571" y="-201"/>
      <point x="639" y="-181"/>
      <point x="639" y="-152" type="curve" smooth="yes"/>
      <point x="639" y="-141"/>
      <point x="628" y="-131"/>
      <point x="618" y="-131" type="curve" smooth="yes"/>
      <point x="613" y="-131"/>
      <point x="609" y="-132"/>
      <point x="605" y="-135" type="curve" smooth="yes"/>
      <point x="585" y="-151"/>
      <point x="563" y="-158"/>
      <point x="543" y="-158" type="curve" smooth="yes"/>
      <point x="509" y="-158"/>
      <point x="482" y="-135"/>
      <point x="482" y="-101" type="curve" smooth="yes"/>
      <point x="482" y="-57"/>
      <point x="519" y="-30"/>
      <point x="545" y="-11" type="curve" smooth="yes"/>
      <point x="563" y="2"/>
      <point x="579" y="15"/>
      <point x="570" y="42" type="curve" smooth="yes"/>
      <point x="354" y="670" type="line" smooth="yes"/>
      <point x="350" y="681"/>
      <point x="339" y="689"/>
      <point x="328" y="689" type="curve" smooth="yes"/>
      <point x="316" y="689"/>
      <point x="305" y="682"/>
      <point x="300" y="671" type="curve"/>
      <point x="137" y="256" type="line"/>
      <point x="85" y="244" type="line" smooth="yes"/>
      <point x="72" y="241"/>
      <point x="63" y="230"/>
      <point x="63" y="217" type="curve" smooth="yes"/>
      <point x="63" y="200"/>
      <point x="76" y="188"/>
      <point x="92" y="188" type="curve" smooth="yes"/>
      <point x="94" y="188"/>
      <point x="96" y="188"/>
      <point x="112" y="192" type="curve"/>
      <point x="52" y="39" type="line"/>
      <point x="51" y="36"/>
      <point x="50" y="32"/>
      <point x="50" y="29" type="curve" smooth="yes"/>
      <point x="50" y="15"/>
      <point x="62" y="0"/>
      <point x="79" y="0" type="curve" smooth="yes"/>
      <point x="90" y="0"/>
      <point x="101" y="7"/>
      <point x="105" y="18" type="curve" smooth="yes"/>
      <point x="179" y="206" type="line"/>
      <point x="434" y="262" type="line"/>
      <point x="517" y="21" type="line"/>
      <point x="477" y="-7"/>
      <point x="440" y="-48"/>
      <point x="440" y="-100" type="curve" smooth="yes"/>
      <point x="440" y="-158"/>
      <point x="484" y="-200"/>
      <point x="543" y="-201" type="curve" smooth="yes"/>
    </contour>
    <contour>
      <point x="204" y="270" type="line"/>
      <point x="325" y="578" type="line"/>
      <point x="415" y="316" type="line"/>
    </contour>
  </outline>
</glyph>
<glyph name="cacute" format="1">
  <advance width="509"/>
  <unicode hex="0107"/>
  <outline>
    <contour>
      <point x="459" y="127"/>
      <point x="447" y="139"/>
      <point x="432" y="139" type="curve" smooth="yes"/>
      <point x="419" y="139"/>
      <point x="410" y="129"/>
      <point x="406" y="123" type="curve"/>
      <point x="377" y="84"/>
      <point x="334" y="52"/>
      <point x="262" y="52" type="curve" smooth="yes"/>
      <point x="218" y="52"/>
      <point x="103" y="90"/>
      <point x="103" y="218" type="curve" smooth="yes"/>
      <point x="103" y="245"/>
      <point x="108" y="278"/>
      <point x="123" y="316" type="curve" smooth="yes"/>
      <point x="146" y="373"/>
      <point x="207" y="448"/>
      <point x="274" y="448" type="curve" smooth="yes"/>
      <point x="326" y="448"/>
      <point x="355" y="426"/>
      <point x="382" y="393" type="curve"/>
      <point x="387" y="388"/>
      <point x="394" y="384"/>
      <point x="402" y="384" type="curve" smooth="yes"/>
      <point x="417" y="384"/>
      <point x="429" y="396"/>
      <point x="429" y="411" type="curve" smooth="yes"/>
      <point x="429" y="418"/>
      <point x="426" y="426"/>
      <point x="422" y="430" type="curve"/>
      <point x="384" y="474"/>
      <point x="346" y="500"/>
      <point x="272" y="500" type="curve" smooth="yes"/>
      <point x="175" y="500"/>
      <point x="100" y="401"/>
      <point x="74" y="335" type="curve" smooth="yes"/>
      <point x="64" y="309"/>
      <point x="50" y="265"/>
      <point x="50" y="216" type="curve" smooth="yes"/>
      <point x="50" y="89"/>
      <point x="159" y="-6"/>
      <point x="277" y="0" type="curve" smooth="yes"/>
      <point x="351" y="3"/>
      <point x="418" y="43"/>
      <point x="451" y="93" type="curve" smooth="yes"/>
      <point x="455" y="99"/>
      <point x="459" y="105"/>
      <point x="459" y="112" type="curve" smooth="yes"/>
    </contour>
    <contour>
      <point x="389" y="666" type="line" smooth="yes"/>
      <point x="396" y="671"/>
      <point x="399" y="680"/>
      <point x="399" y="689" type="curve" smooth="yes"/>
      <point x="399" y="709"/>
      <point x="384" y="725"/>
      <point x="365" y="725" type="curve" smooth="yes"/>
      <point x="354" y="725"/>
      <point x="344" y="717"/>
      <point x="336" y="710" type="curve" smooth="yes"/>
      <point x="210" y="607" type="line" smooth="yes"/>
      <point x="205" y="603"/>
      <point x="204" y="596"/>
      <point x="204" y="590" type="curve" smooth="yes"/>
      <point x="204" y="575"/>
      <point x="216" y="563"/>
      <point x="230" y="563" type="curve" smooth="yes"/>
      <point x="236" y="563"/>
      <point x="244" y="567"/>
      <point x="251" y="572" type="curve" smooth="yes"/>
    </contour>
  </outline>
</glyph>
<glyph name="ccaron" format="1">
  <advance width="509"/>
  <unicode hex="010D"/>
  <outline>
    <contour>
      <point x="459" y="127"/>
      <point x="447" y="139"/>
      <point x="432" y="139" type="curve" smooth="yes"/>
      <point x="419" y="139"/>
      <point x="410" y="129"/>
      <point x="406" y="123" type="curve"/>
      <point x="377" y="84"/>
      <point x="334" y="52"/>
      <point x="262" y="52" type="curve" smooth="yes"/>
      <point x="218" y="52"/>
      <point x="103" y="90"/>
      <point x="103" y="218" type="curve" smooth="yes"/>
      <point x="103" y="245"/>
      <point x="108" y="278"/>
      <point x="123" y="316" type="curve" smooth="yes"/>
      <point x="146" y="373"/>
      <point x="207" y="448"/>
      <point x="274" y="448" type="curve" smooth="yes"/>
      <point x="326" y="448"/>
      <point x="355" y="426"/>
      <point x="382" y="393" type="curve"/>
      <point x="387" y="388"/>
      <point x="394" y="384"/>
      <point x="402" y="384" type="curve" smooth="yes"/>
      <point x="417" y="384"/>
      <point x="429" y="396"/>
      <point x="429" y="411" type="curve" smooth="yes"/>
      <point x="429" y="418"/>
      <point x="426" y="426"/>
      <point x="422" y="430" type="curve"/>
      <point x="384" y="474"/>
      <point x="346" y="500"/>
      <point x="272" y="500" type="curve" smooth="yes"/>
      <point x="175" y="500"/>
      <point x="100" y="401"/>
      <point x="74" y="335" type="curve" smooth="yes"/>
      <point x="64" y="309"/>
      <point x="50" y="265"/>
      <point x="50" y="216" type="curve" smooth="yes"/>
      <point x="50" y="89"/>
      <point x="159" y="-6"/>
      <point x="277" y="0" type="curve" smooth="yes"/>
      <point x="351" y="3"/>
      <point x="418" y="43"/>
      <point x="451" y="93" type="curve" smooth="yes"/>
      <point x="455" y="99"/>
      <point x="459" y="105"/>
      <point x="459" y="112" type="curve" smooth="yes"/>
    </contour>
    <contour>
      <point x="251" y="573" type="line"/>
      <point x="257" y="568"/>
      <point x="264" y="565"/>
      <point x="271" y="565" type="curve" smooth="yes"/>
      <point x="277" y="565"/>
      <point x="284" y="567"/>
      <point x="290" y="572" type="curve" smooth="yes"/>
      <point x="421" y="682" type="line"/>
      <point x="428" y="687"/>
      <point x="431" y="695"/>
      <point x="431" y="703" type="curve" smooth="yes"/>
      <point x="431" y="718"/>
      <point x="419" y="729"/>
      <point x="405" y="729" type="curve" smooth="yes"/>
      <point x="399" y="729"/>
      <point x="393" y="728"/>
      <point x="388" y="724" type="curve" smooth="yes"/>
      <point x="273" y="635" type="line"/>
      <point x="177" y="722" type="line"/>
      <point x="172" y="727"/>
      <point x="165" y="729"/>
      <point x="158" y="729" type="curve" smooth="yes"/>
      <point x="144" y="729"/>
      <point x="132" y="717"/>
      <point x="132" y="703" type="curve" smooth="yes"/>
      <point x="132" y="695"/>
      <point x="135" y="688"/>
      <point x="141" y="683" type="curve"/>
    </contour>
  </outline>
</glyph>
<glyph name="dcaron" format="1">
  <advance width="545"/>
  <unicode hex="010F"/>
  <outline>
    <contour>
      <point x="465" y="667" type="line" smooth="yes"/>
      <point x="465" y="683"/>
      <point x="452" y="697"/>
      <point x="437" y="697" type="curve" smooth="yes"/>
      <point x="421" y="697"/>
      <point x="408" y="684"/>
      <point x="408" y="668" type="curve" smooth="yes"/>
      <point x="403" y="467" type="line"/>
      <point x="370" y="482"/>
      <point x="321" y="498"/>
      <point x="265" y="498" type="curve" smooth="yes"/>
      <point x="110" y="498"/>
      <point x="51" y="368"/>
      <point x="51" y="226" type="curve" smooth="yes"/>
      <point x="51" y="116"/>
      <point x="105" y="4"/>
      <point x="223" y="4" type="curve" smooth="yes"/>
      <point x="302" y="4"/>
      <point x="359" y="46"/>
      <point x="395" y="79" type="curve"/>
      <point x="393" y="34" type="line" smooth="yes"/>
      <point x="392" y="17"/>
      <point x="402" y="0"/>
      <point x="421" y="0" type="curve" smooth="yes"/>
      <point x="437" y="0"/>
      <point x="450" y="11"/>
      <point x="450" y="27" type="curve" smooth="yes"/>
    </contour>
    <contour>
      <point x="106" y="316"/>
      <point x="131" y="444"/>
      <point x="267" y="444" type="curve" smooth="yes"/>
      <point x="326" y="444"/>
      <point x="383" y="416"/>
      <point x="402" y="406" type="curve"/>
      <point x="397" y="161" type="line" smooth="yes"/>
      <point x="396" y="130"/>
      <point x="327" y="53"/>
      <point x="223" y="53" type="curve" smooth="yes"/>
      <point x="131" y="53"/>
      <point x="106" y="156"/>
      <point x="106" y="229" type="curve" smooth="yes"/>
    </contour>
    <contour>
      <point x="535" y="690"/>
      <point x="516" y="669"/>
      <point x="516" y="645" type="curve" smooth="yes"/>
      <point x="516" y="633"/>
      <point x="521" y="622"/>
      <point x="528" y="615" type="curve"/>
      <point x="504" y="551" type="line"/>
      <point x="503" y="548"/>
      <point x="502" y="545"/>
      <point x="502" y="542" type="curve" smooth="yes"/>
      <point x="502" y="530"/>
      <point x="512" y="520"/>
      <point x="525" y="520" type="curve" smooth="yes"/>
      <point x="544" y="520"/>
      <point x="545" y="536"/>
      <point x="569" y="594" type="curve" smooth="yes"/>
      <point x="584" y="630"/>
      <point x="588" y="639"/>
      <point x="588" y="658" type="curve" smooth="yes"/>
      <point x="588" y="673"/>
      <point x="574" y="690"/>
      <point x="556" y="690" type="curve" smooth="yes"/>
    </contour>
  </outline>
</glyph>
<glyph name="dcroat" format="1">
  <advance width="557"/>
  <unicode hex="0111"/>
  <outline>
    <contour>
      <point x="465" y="667" type="line" smooth="yes"/>
      <point x="465" y="683"/>
      <point x="452" y="697"/>
      <point x="437" y="697" type="curve" smooth="yes"/>
      <point x="421" y="697"/>
      <point x="408" y="684"/>
      <point x="408" y="668" type="curve" smooth="yes"/>
      <point x="406" y="603" type="line"/>
      <point x="333" y="603" type="line" smooth="yes"/>
      <point x="319" y="603"/>
      <point x="307" y="592"/>
      <point x="307" y="578" type="curve" smooth="yes"/>
      <point x="307" y="564"/>
      <point x="319" y="552"/>
      <point x="333" y="552" type="curve" smooth="yes"/>
      <point x="405" y="552" type="line"/>
      <point x="403" y="467" type="line"/>
      <point x="370" y="482"/>
      <point x="321" y="498"/>
      <point x="265" y="498" type="curve" smooth="yes"/>
      <point x="110" y="498"/>
      <point x="51" y="368"/>
      <point x="51" y="226" type="curve" smooth="yes"/>
      <point x="51" y="116"/>
      <point x="105" y="4"/>
      <point x="223" y="4" type="curve" smooth="yes"/>
      <point x="302" y="4"/>
      <point x="359" y="46"/>
      <point x="395" y="79" type="curve"/>
      <point x="393" y="34" type="line" smooth="yes"/>
      <point x="392" y="17"/>
      <point x="402" y="0"/>
      <point x="421" y="0" type="curve" smooth="yes"/>
      <point x="437" y="0"/>
      <point x="450" y="11"/>
      <point x="450" y="27" type="curve" smooth="yes"/>
      <point x="462" y="552" type="line"/>
      <point x="529" y="552" type="line" smooth="yes"/>
      <point x="543" y="552"/>
      <point x="554" y="564"/>
      <point x="554" y="578" type="curve" smooth="yes"/>
      <point x="554" y="592"/>
      <point x="543" y="603"/>
      <point x="529" y="603" type="curve" smooth="yes"/>
      <point x="463" y="603" type="line"/>
    </contour>
    <contour>
      <point x="106" y="316"/>
      <point x="131" y="444"/>
      <point x="267" y="444" type="curve" smooth="yes"/>
      <point x="326" y="444"/>
      <point x="383" y="416"/>
      <point x="402" y="406" type="curve"/>
      <point x="397" y="161" type="line" smooth="yes"/>
      <point x="396" y="130"/>
      <point x="327" y="53"/>
      <point x="223" y="53" type="curve" smooth="yes"/>
      <point x="131" y="53"/>
      <point x="106" y="156"/>
      <point x="106" y="229" type="curve" smooth="yes"/>
    </contour>
  </outline>
</glyph>
<glyph name="Eogonek" format="1">
  <advance width="610"/>
  <unicode hex="0118"/>
  <outline>
    <contour>
      <point x="492" y="-201"/>
      <point x="560" y="-181"/>
      <point x="560" y="-152" type="curve" smooth="yes"/>
      <point x="560" y="-141"/>
      <point x="549" y="-131"/>
      <point x="539" y="-131" type="curve" smooth="yes"/>
      <point x="534" y="-131"/>
      <point x="530" y="-132"/>
      <point x="526" y="-135" type="curve" smooth="yes"/>
      <point x="506" y="-151"/>
      <point x="484" y="-158"/>
      <point x="464" y="-158" type="curve" smooth="yes"/>
      <point x="430" y="-158"/>
      <point x="403" y="-135"/>
      <point x="403" y="-101" type="curve" smooth="yes"/>
      <point x="403" y="-57"/>
      <point x="440" y="-30"/>
      <point x="466" y="-11" type="curve" smooth="yes"/>
      <point x="480" y="0" type="line"/>
      <point x="520" y="0" type="line" smooth="yes"/>
      <point x="536" y="0"/>
      <point x="548" y="13"/>
      <point x="548" y="29" type="curve" smooth="yes"/>
      <point x="548" y="45"/>
      <point x="536" y="57"/>
      <point x="520" y="57" type="curve" smooth="yes"/>
      <point x="122" y="57" type="line"/>
      <point x="122" y="324" type="line"/>
      <point x="473" y="324" type="line" smooth="yes"/>
      <point x="489" y="324"/>
      <point x="501" y="337"/>
      <point x="501" y="353" type="curve" smooth="yes"/>
      <point x="501" y="369"/>
      <point x="489" y="381"/>
      <point x="473" y="381" type="curve" smooth="yes"/>
      <point x="122" y="381" type="line"/>
      <point x="122" y="625" type="line"/>
      <point x="522" y="625" type="line" smooth="yes"/>
      <point x="538" y="625"/>
      <point x="550" y="638"/>
      <point x="550" y="654" type="curve" smooth="yes"/>
      <point x="550" y="670"/>
      <point x="538" y="682"/>
      <point x="522" y="682" type="curve" smooth="yes"/>
      <point x="94" y="682" type="line" smooth="yes"/>
      <point x="78" y="682"/>
      <point x="65" y="670"/>
      <point x="65" y="654" type="curve" smooth="yes"/>
      <point x="65" y="29" type="line" smooth="yes"/>
      <point x="65" y="13"/>
      <point x="78" y="0"/>
      <point x="94" y="0" type="curve" smooth="yes"/>
      <point x="412" y="0" type="line"/>
      <point x="383" y="-26"/>
      <point x="361" y="-60"/>
      <point x="361" y="-100" type="curve" smooth="yes"/>
      <point x="361" y="-158"/>
      <point x="405" y="-200"/>
      <point x="464" y="-201" type="curve" smooth="yes"/>
    </contour>
  </outline>
</glyph>
<glyph name="Ecaron" format="1">
  <advance width="610"/>
  <unicode hex="011A"/>
  <outline>
    <contour>
      <point x="281" y="730" type="line"/>
      <point x="287" y="725"/>
      <point x="294" y="722"/>
      <point x="301" y="722" type="curve" smooth="yes"/>
      <point x="307" y="722"/>
      <point x="314" y="724"/>
      <point x="320" y="729" type="curve" smooth="yes"/>
      <point x="451" y="839" type="line"/>
      <point x="458" y="844"/>
      <point x="461" y="852"/>
      <point x="461" y="860" type="curve" smooth="yes"/>
      <point x="461" y="875"/>
      <point x="449" y="886"/>
      <point x="435" y="886" type="curve" smooth="yes"/>
      <point x="429" y="886"/>
      <point x="423" y="885"/>
      <point x="418" y="881" type="curve" smooth="yes"/>
      <point x="303" y="792" type="line"/>
      <point x="207" y="879" type="line"/>
      <point x="202" y="884"/>
      <point x="195" y="886"/>
      <point x="188" y="886" type="curve" smooth="yes"/>
      <point x="174" y="886"/>
      <point x="162" y="874"/>
      <point x="162" y="860" type="curve" smooth="yes"/>
      <point x="162" y="852"/>
      <point x="165" y="845"/>
      <point x="171" y="840" type="curve"/>
    </contour>
    <contour>
      <point x="122" y="57" type="line"/>
      <point x="122" y="324" type="line"/>
      <point x="473" y="324" type="line" smooth="yes"/>
      <point x="489" y="324"/>
      <point x="501" y="337"/>
      <point x="501" y="353" type="curve" smooth="yes"/>
      <point x="501" y="369"/>
      <point x="489" y="381"/>
      <point x="473" y="381" type="curve" smooth="yes"/>
      <point x="122" y="381" type="line"/>
      <point x="122" y="625" type="line"/>
      <point x="522" y="625" type="line" smooth="yes"/>
      <point x="538" y="625"/>
      <point x="550" y="638"/>
      <point x="550" y="654" type="curve" smooth="yes"/>
      <point x="550" y="670"/>
      <point x="538" y="682"/>
      <point x="522" y="682" type="curve" smooth="yes"/>
      <point x="94" y="682" type="line" smooth="yes"/>
      <point x="78" y="682"/>
      <point x="65" y="670"/>
      <point x="65" y="654" type="curve" smooth="yes"/>
      <point x="65" y="29" type="line" smooth="yes"/>
      <point x="65" y="13"/>
      <point x="78" y="0"/>
      <point x="94" y="0" type="curve" smooth="yes"/>
      <point x="520" y="0" type="line" smooth="yes"/>
      <point x="536" y="0"/>
      <point x="548" y="13"/>
      <point x="548" y="29" type="curve" smooth="yes"/>
      <point x="548" y="45"/>
      <point x="536" y="57"/>
      <point x="520" y="57" type="curve" smooth="yes"/>
    </contour>
  </outline>
</glyph>
<glyph name="Lacute" format="1">
  <advance width="477"/>
  <unicode hex="0139"/>
  <outline>
    <contour>
      <point x="440" y="24" type="line" smooth="yes"/>
      <point x="455" y="25"/>
      <point x="466" y="38"/>
      <point x="466" y="52" type="curve" smooth="yes"/>
      <point x="466" y="70"/>
      <point x="453" y="81"/>
      <point x="436" y="80" type="curve" smooth="yes"/>
      <point x="121" y="58" type="line"/>
      <point x="121" y="653" type="line" smooth="yes"/>
      <point x="121" y="668"/>
      <point x="108" y="681"/>
      <point x="93" y="681" type="curve" smooth="yes"/>
      <point x="77" y="681"/>
      <point x="65" y="668"/>
      <point x="65" y="653" type="curve" smooth="yes"/>
      <point x="65" y="28" type="line" smooth="yes"/>
      <point x="65" y="13"/>
      <point x="79" y="-1"/>
      <point x="94" y="0" type="curve" smooth="yes"/>
    </contour>
    <contour>
      <point x="333" y="853" type="line" smooth="yes"/>
      <point x="340" y="858"/>
      <point x="343" y="867"/>
      <point x="343" y="876" type="curve" smooth="yes"/>
      <point x="343" y="896"/>
      <point x="328" y="912"/>
      <point x="309" y="912" type="curve" smooth="yes"/>
      <point x="298" y="912"/>
      <point x="288" y="904"/>
      <point x="280" y="897" type="curve" smooth="yes"/>
      <point x="154" y="794" type="line" smooth="yes"/>
      <point x="149" y="790"/>
      <point x="148" y="783"/>
      <point x="148" y="777" type="curve" smooth="yes"/>
      <point x="148" y="762"/>
      <point x="160" y="750"/>
      <point x="174" y="750" type="curve" smooth="yes"/>
      <point x="180" y="750"/>
      <point x="188" y="754"/>
      <point x="195" y="759" type="curve" smooth="yes"/>
    </contour>
  </outline>
</glyph>
<glyph name="Lcaron" format="1">
  <advance width="477"/>
  <unicode hex="013D"/>
  <outline>
    <contour>
      <point x="440" y="24" type="line" smooth="yes"/>
      <point x="455" y="25"/>
      <point x="466" y="38"/>
      <point x="466" y="52" type="curve" smooth="yes"/>
      <point x="466" y="70"/>
      <point x="453" y="81"/>
      <point x="436" y="80" type="curve" smooth="yes"/>
      <point x="121" y="58" type="line"/>
      <point x="121" y="653" type="line" smooth="yes"/>
      <point x="121" y="668"/>
      <point x="108" y="681"/>
      <point x="93" y="681" type="curve" smooth="yes"/>
      <point x="77" y="681"/>
      <point x="65" y="668"/>
      <point x="65" y="653" type="curve" smooth="yes"/>
      <point x="65" y="28" type="line" smooth="yes"/>
      <point x="65" y="13"/>
      <point x="79" y="-1"/>
      <point x="94" y="0" type="curve" smooth="yes"/>
    </contour>
    <contour>
      <point x="129" y="730" type="line"/>
      <point x="135" y="725"/>
      <point x="142" y="722"/>
      <point x="149" y="722" type="curve" smooth="yes"/>
      <point x="155" y="722"/>
      <point x="162" y="724"/>
      <point x="168" y="729" type="curve" smooth="yes"/>
      <point x="299" y="839" type="line"/>
      <point x="306" y="844"/>
      <point x="309" y="852"/>
      <point x="309" y="860" type="curve" smooth="yes"/>
      <point x="309" y="875"/>
      <point x="297" y="886"/>
      <point x="283" y="886" type="curve" smooth="yes"/>
      <point x="277" y="886"/>
      <point x="271" y="885"/>
      <point x="266" y="881" type="curve" smooth="yes"/>
      <point x="151" y="792" type="line"/>
      <point x="55" y="879" type="line"/>
      <point x="50" y="884"/>
      <point x="43" y="886"/>
      <point x="36" y="886" type="curve" smooth="yes"/>
      <point x="22" y="886"/>
      <point x="10" y="874"/>
      <point x="10" y="860" type="curve" smooth="yes"/>
      <point x="10" y="852"/>
      <point x="13" y="845"/>
      <point x="19" y="840" type="curve"/>
    </contour>
  </outline>
</glyph>
<glyph name="Nacute" format="1">
  <advance width="619"/>
  <unicode hex="0143"/>
  <outline>
    <contour>
      <point x="542" y="0"/>
      <point x="554" y="13"/>
      <point x="554" y="28" type="curve" smooth="yes"/>
      <point x="554" y="654" type="line" smooth="yes"/>
      <point x="554" y="669"/>
      <point x="541" y="682"/>
      <point x="526" y="682" type="curve" smooth="yes"/>
      <point x="510" y="682"/>
      <point x="498" y="669"/>
      <point x="498" y="654" type="curve" smooth="yes"/>
      <point x="498" y="117" type="line"/>
      <point x="117" y="669" type="line"/>
      <point x="111" y="677"/>
      <point x="102" y="681"/>
      <point x="93" y="681" type="curve" smooth="yes"/>
      <point x="77" y="681"/>
      <point x="66" y="667"/>
      <point x="66" y="653" type="curve" smooth="yes"/>
      <point x="65" y="28" type="line" smooth="yes"/>
      <point x="65" y="13"/>
      <point x="78" y="0"/>
      <point x="93" y="0" type="curve" smooth="yes"/>
      <point x="109" y="0"/>
      <point x="121" y="12"/>
      <point x="121" y="28" type="curve" smooth="yes"/>
      <point x="122" y="563" type="line"/>
      <point x="503" y="12" type="line"/>
      <point x="508" y="4"/>
      <point x="517" y="0"/>
      <point x="526" y="0" type="curve" smooth="yes"/>
    </contour>
    <contour>
      <point x="418" y="869" type="line" smooth="yes"/>
      <point x="425" y="874"/>
      <point x="428" y="883"/>
      <point x="428" y="892" type="curve" smooth="yes"/>
      <point x="428" y="912"/>
      <point x="413" y="928"/>
      <point x="394" y="928" type="curve" smooth="yes"/>
      <point x="383" y="928"/>
      <point x="373" y="920"/>
      <point x="365" y="913" type="curve" smooth="yes"/>
      <point x="239" y="810" type="line" smooth="yes"/>
      <point x="234" y="806"/>
      <point x="233" y="799"/>
      <point x="233" y="793" type="curve" smooth="yes"/>
      <point x="233" y="778"/>
      <point x="245" y="766"/>
      <point x="259" y="766" type="curve" smooth="yes"/>
      <point x="265" y="766"/>
      <point x="273" y="770"/>
      <point x="280" y="775" type="curve" smooth="yes"/>
    </contour>
  </outline>
</glyph>
<glyph name="ncaron" format="1">
  <advance width="535"/>
  <unicode hex="0148"/>
  <outline>
    <contour>
      <point x="121" y="473" type="line" smooth="yes"/>
      <point x="121" y="488"/>
      <point x="108" y="500"/>
      <point x="93" y="500" type="curve" smooth="yes"/>
      <point x="78" y="500"/>
      <point x="65" y="488"/>
      <point x="65" y="473" type="curve" smooth="yes"/>
      <point x="65" y="26" type="line" smooth="yes"/>
      <point x="65" y="12"/>
      <point x="78" y="0"/>
      <point x="93" y="0" type="curve" smooth="yes"/>
      <point x="110" y="0"/>
      <point x="120" y="13"/>
      <point x="120" y="30" type="curve" smooth="yes"/>
      <point x="121" y="111" type="line" smooth="yes"/>
      <point x="122" y="181"/>
      <point x="141" y="264"/>
      <point x="175" y="326" type="curve" smooth="yes"/>
      <point x="228" y="424"/>
      <point x="281" y="445"/>
      <point x="325" y="445" type="curve" smooth="yes"/>
      <point x="430" y="445"/>
      <point x="411" y="305"/>
      <point x="416" y="28" type="curve" smooth="yes"/>
      <point x="416" y="13"/>
      <point x="428" y="0"/>
      <point x="443" y="0" type="curve" smooth="yes"/>
      <point x="459" y="0"/>
      <point x="469" y="13"/>
      <point x="469" y="29" type="curve" smooth="yes"/>
      <point x="473" y="351"/>
      <point x="472" y="499"/>
      <point x="328" y="499" type="curve" smooth="yes"/>
      <point x="222" y="499"/>
      <point x="141" y="406"/>
      <point x="121" y="292" type="curve"/>
    </contour>
    <contour>
      <point x="266" y="573" type="line"/>
      <point x="272" y="568"/>
      <point x="279" y="565"/>
      <point x="286" y="565" type="curve" smooth="yes"/>
      <point x="292" y="565"/>
      <point x="299" y="567"/>
      <point x="305" y="572" type="curve" smooth="yes"/>
      <point x="436" y="682" type="line"/>
      <point x="443" y="687"/>
      <point x="446" y="695"/>
      <point x="446" y="703" type="curve" smooth="yes"/>
      <point x="446" y="718"/>
      <point x="434" y="729"/>
      <point x="420" y="729" type="curve" smooth="yes"/>
      <point x="414" y="729"/>
      <point x="408" y="728"/>
      <point x="403" y="724" type="curve" smooth="yes"/>
      <point x="288" y="635" type="line"/>
      <point x="192" y="722" type="line"/>
      <point x="187" y="727"/>
      <point x="180" y="729"/>
      <point x="173" y="729" type="curve" smooth="yes"/>
      <point x="159" y="729"/>
      <point x="147" y="717"/>
      <point x="147" y="703" type="curve" smooth="yes"/>
      <point x="147" y="695"/>
      <point x="150" y="688"/>
      <point x="156" y="683" type="curve"/>
    </contour>
  </outline>
</glyph>
<glyph name="ohungarumlaut" format="1">
  <advance width="535"/>
  <unicode hex="0151"/>
  <outline>
    <contour>
      <point x="378" y="0"/>
      <point x="485" y="123"/>
      <point x="485" y="270" type="curve" smooth="yes"/>
      <point x="485" y="394"/>
      <point x="397" y="500"/>
      <point x="283" y="500" type="curve" smooth="yes"/>
      <point x="157" y="500"/>
      <point x="50" y="376"/>
      <point x="50" y="230" type="curve" smooth="yes"/>
      <point x="50" y="104"/>
      <point x="137" y="0"/>
      <point x="252" y="0" type="curve" smooth="yes"/>
    </contour>
    <contour>
      <point x="361" y="452"/>
      <point x="427" y="365"/>
      <point x="427" y="265" type="curve" smooth="yes"/>
      <point x="427" y="149"/>
      <point x="343" y="48"/>
      <point x="252" y="48" type="curve" smooth="yes"/>
      <point x="165" y="48"/>
      <point x="107" y="133"/>
      <point x="107" y="232" type="curve" smooth="yes"/>
      <point x="107" y="349"/>
      <point x="185" y="452"/>
      <point x="278" y="452" type="curve" smooth="yes"/>
    </contour>
    <contour>
      <point x="313" y="665" type="line" smooth="yes"/>
      <point x="320" y="670"/>
      <point x="323" y="679"/>
      <point x="323" y="688" type="curve" smooth="yes"/>
      <point x="323" y="708"/>
      <point x="308" y="724"/>
      <point x="289" y="724" type="curve" smooth="yes"/>
      <point x="278" y="724"/>
      <point x="268" y="716"/>
      <point x="260" y="709" type="curve" smooth="yes"/>
      <point x="134" y="606" type="line" smooth="yes"/>
      <point x="129" y="602"/>
      <point x="128" y="595"/>
      <point x="128" y="589" type="curve" smooth="yes"/>
      <point x="128" y="574"/>
      <point x="140" y="562"/>
      <point x="154" y="562" type="curve" smooth="yes"/>
      <point x="160" y="562"/>
      <point x="168" y="566"/>
      <point x="175" y="571" type="curve" smooth="yes"/>
    </contour>
    <contour>
      <point x="473" y="665" type="line" smooth="yes"/>
      <point x="480" y="670"/>
      <point x="483" y="679"/>
      <point x="483" y="688" type="curve" smooth="yes"/>
      <point x="483" y="708"/>
      <point x="468" y="724"/>
      <point x="449" y="724" type="curve" smooth="yes"/>
      <point x="438" y="724"/>
      <point x="428" y="716"/>
      <point x="420" y="709" type="curve" smooth="yes"/>
      <point x="294" y="606" type="line" smooth="yes"/>
      <point x="289" y="602"/>
      <point x="288" y="595"/>
      <point x="288" y="589" type="curve" smooth="yes"/>
      <point x="288" y="574"/>
      <point x="300" y="562"/>
      <point x="314" y="562" type="curve" smooth="yes"/>
      <point x="320" y="562"/>
      <point x="328" y="566"/>
      <point x="335" y="571" type="curve" smooth="yes"/>
    </contour>
  </outline>
</glyph>
<glyph name="OE" format="1">
  <advance width="1098"/>
  <unicode hex="0152"/>
  <outline>
    <contour>
      <point x="610" y="57" type="line"/>
      <point x="610" y="324" type="line"/>
      <point x="961" y="324" type="line" smooth="yes"/>
      <point x="977" y="324"/>
      <point x="989" y="337"/>
      <point x="989" y="353" type="curve" smooth="yes"/>
      <point x="989" y="369"/>
      <point x="977" y="381"/>
      <point x="961" y="381" type="curve" smooth="yes"/>
      <point x="610" y="381" type="line"/>
      <point x="610" y="625" type="line"/>
      <point x="1010" y="625" type="line" smooth="yes"/>
      <point x="1026" y="625"/>
      <point x="1038" y="638"/>
      <point x="1038" y="654" type="curve" smooth="yes"/>
      <point x="1038" y="670"/>
      <point x="1026" y="682"/>
      <point x="1010" y="682" type="curve" smooth="yes"/>
      <point x="582" y="682" type="line" smooth="yes"/>
      <point x="566" y="682"/>
      <point x="553" y="670"/>
      <point x="553" y="654" type="curve" smooth="yes"/>
      <point x="553" y="557" type="line"/>
      <point x="508" y="638"/>
      <point x="430" y="684"/>
      <point x="351" y="684" type="curve" smooth="yes"/>
      <point x="195" y="684"/>
      <point x="60" y="515"/>
      <point x="60" y="315" type="curve" smooth="yes"/>
      <point x="60" y="145"/>
      <point x="164" y="0"/>
      <point x="309" y="0" type="curve" smooth="yes"/>
      <point x="409" y="0"/>
      <point x="500" y="69"/>
      <point x="553" y="172" type="curve"/>
      <point x="553" y="29" type="line" smooth="yes"/>
      <point x="553" y="13"/>
      <point x="566" y="0"/>
      <point x="582" y="0" type="curve" smooth="yes"/>
      <point x="1008" y="0" type="line" smooth="yes"/>
      <point x="1024" y="0"/>
      <point x="1036" y="13"/>
      <point x="1036" y="29" type="curve" smooth="yes"/>
      <point x="1036" y="45"/>
      <point x="1024" y="57"/>
      <point x="1008" y="57" type="curve" smooth="yes"/>
    </contour>
    <contour>
      <point x="195" y="52"/>
      <point x="113" y="171"/>
      <point x="113" y="315" type="curve" smooth="yes"/>
      <point x="113" y="491"/>
      <point x="221" y="632"/>
      <point x="344" y="632" type="curve" smooth="yes"/>
      <point x="463" y="632"/>
      <point x="547" y="500"/>
      <point x="547" y="365" type="curve" smooth="yes"/>
      <point x="547" y="232"/>
      <point x="460" y="52"/>
      <point x="309" y="52" type="curve" smooth="yes"/>
    </contour>
  </outline>
</glyph>
<glyph name="Rcaron" format="1">
  <advance width="597"/>
  <unicode hex="0158"/>
  <outline>
    <contour>
      <point x="266" y="730" type="line"/>
      <point x="272" y="725"/>
      <point x="279" y="722"/>
      <point x="286" y="722" type="curve" smooth="yes"/>
      <point x="292" y="722"/>
      <point x="299" y="724"/>
      <point x="305" y="729" type="curve" smooth="yes"/>
      <point x="436" y="839" type="line"/>
      <point x="443" y="844"/>
      <point x="446" y="852"/>
      <point x="446" y="860" type="curve" smooth="yes"/>
      <point x="446" y="875"/>
      <point x="434" y="886"/>
      <point x="420" y="886" type="curve" smooth="yes"/>
      <point x="414" y="886"/>
      <point x="408" y="885"/>
      <point x="403" y="881" type="curve" smooth="yes"/>
      <point x="288" y="792" type="line"/>
      <point x="192" y="879" type="line"/>
      <point x="187" y="884"/>
      <point x="180" y="886"/>
      <point x="173" y="886" type="curve" smooth="yes"/>
      <point x="159" y="886"/>
      <point x="147" y="874"/>
      <point x="147" y="860" type="curve" smooth="yes"/>
      <point x="147" y="852"/>
      <point x="150" y="845"/>
      <point x="156" y="840" type="curve"/>
    </contour>
    <contour>
      <point x="476" y="173"/>
      <point x="377" y="250"/>
      <point x="333" y="276" type="curve"/>
      <point x="427" y="308"/>
      <point x="521" y="366"/>
      <point x="521" y="478" type="curve" smooth="yes"/>
      <point x="521" y="611"/>
      <point x="395" y="688"/>
      <point x="170" y="688" type="curve" smooth="yes"/>
      <point x="81" y="688"/>
      <point x="65" y="689"/>
      <point x="65" y="648" type="curve" smooth="yes"/>
      <point x="65" y="28" type="line" smooth="yes"/>
      <point x="65" y="12"/>
      <point x="77" y="0"/>
      <point x="93" y="0" type="curve" smooth="yes"/>
      <point x="108" y="0"/>
      <point x="121" y="12"/>
      <point x="121" y="28" type="curve" smooth="yes"/>
      <point x="121" y="241" type="line"/>
      <point x="155" y="246"/>
      <point x="198" y="250"/>
      <point x="217" y="250" type="curve" smooth="yes"/>
      <point x="260" y="250"/>
      <point x="362" y="242"/>
      <point x="493" y="16" type="curve" smooth="yes"/>
      <point x="499" y="6"/>
      <point x="508" y="0"/>
      <point x="518" y="0" type="curve" smooth="yes"/>
      <point x="535" y="0"/>
      <point x="546" y="14"/>
      <point x="546" y="28" type="curve" smooth="yes"/>
      <point x="546" y="32"/>
      <point x="545" y="37"/>
      <point x="543" y="41" type="curve" smooth="yes"/>
    </contour>
    <contour>
      <point x="121" y="631" type="line"/>
      <point x="136" y="632"/>
      <point x="157" y="632"/>
      <point x="167" y="632" type="curve" smooth="yes"/>
      <point x="355" y="632"/>
      <point x="465" y="580"/>
      <point x="465" y="478" type="curve" smooth="yes"/>
      <point x="465" y="349"/>
      <point x="265" y="300"/>
      <point x="121" y="297" type="curve"/>
    </contour>
  </outline>
</glyph>
<glyph name="rcaron" format="1">
  <advance width="416"/>
  <unicode hex="0159"/>
  <outline>
    <contour>
      <point x="216" y="573" type="line"/>
      <point x="222" y="568"/>
      <point x="229" y="565"/>
      <point x="236" y="565" type="curve" smooth="yes"/>
      <point x="242" y="565"/>
      <point x="249" y="567"/>
      <point x="255" y="572" type="curve" smooth="yes"/>
      <point x="386" y="682" type="line"/>
      <point x="393" y="687"/>
      <point x="396" y="695"/>
      <point x="396" y="703" type="curve" smooth="yes"/>
      <point x="396" y="718"/>
      <point x="384" y="729"/>
      <point x="370" y="729" type="curve" smooth="yes"/>
      <point x="364" y="729"/>
      <point x="358" y="728"/>
      <point x="353" y="724" type="curve" smooth="yes"/>
      <point x="238" y="635" type="line"/>
      <point x="142" y="722" type="line"/>
      <point x="137" y="727"/>
      <point x="130" y="729"/>
      <point x="123" y="729" type="curve" smooth="yes"/>
      <point x="109" y="729"/>
      <point x="97" y="717"/>
      <point x="97" y="703" type="curve" smooth="yes"/>
      <point x="97" y="695"/>
      <point x="100" y="688"/>
      <point x="106" y="683" type="curve"/>
    </contour>
    <contour>
      <point x="376" y="422" type="line" smooth="yes"/>
      <point x="376" y="458"/>
      <point x="358" y="502"/>
      <point x="295" y="502" type="curve" smooth="yes"/>
      <point x="207" y="502"/>
      <point x="152" y="430"/>
      <point x="122" y="376" type="curve"/>
      <point x="122" y="472" type="line" smooth="yes"/>
      <point x="122" y="487"/>
      <point x="109" y="499"/>
      <point x="93" y="499" type="curve" smooth="yes"/>
      <point x="78" y="499"/>
      <point x="65" y="487"/>
      <point x="65" y="472" type="curve" smooth="yes"/>
      <point x="65" y="26" type="line" smooth="yes"/>
      <point x="65" y="12"/>
      <point x="79" y="0"/>
      <point x="93" y="0" type="curve" smooth="yes"/>
      <point x="108" y="0"/>
      <point x="121" y="12"/>
      <point x="121" y="26" type="curve" smooth="yes"/>
      <point x="122" y="253" type="line" smooth="yes"/>
      <point x="122" y="285"/>
      <point x="137" y="332"/>
      <point x="156" y="357" type="curve" smooth="yes"/>
      <point x="193" y="407"/>
      <point x="238" y="447"/>
      <point x="286" y="447" type="curve" smooth="yes"/>
      <point x="315" y="447"/>
      <point x="322" y="432"/>
      <point x="322" y="415" type="curve" smooth="yes"/>
      <point x="322" y="390" type="line" smooth="yes"/>
      <point x="322" y="377"/>
      <point x="328" y="362"/>
      <point x="348" y="362" type="curve" smooth="yes"/>
      <point x="364" y="362"/>
      <point x="376" y="374"/>
      <point x="376" y="389" type="curve" smooth="yes"/>
    </contour>
  </outline>
</glyph>
<glyph name="Sacute" format="1">
  <advance width="598"/>
  <unicode hex="015A"/>
  <outline>
    <contour>
      <point x="213" y="417"/>
      <point x="159" y="456"/>
      <point x="159" y="506" type="curve" smooth="yes"/>
      <point x="159" y="602"/>
      <point x="237" y="632"/>
      <point x="324" y="632" type="curve" smooth="yes"/>
      <point x="396" y="632"/>
      <point x="473" y="604"/>
      <point x="480" y="542" type="curve"/>
      <point x="481" y="529"/>
      <point x="493" y="518"/>
      <point x="507" y="518" type="curve" smooth="yes"/>
      <point x="523" y="518"/>
      <point x="535" y="531"/>
      <point x="534" y="548" type="curve" smooth="yes"/>
      <point x="526" y="662"/>
      <point x="401" y="682"/>
      <point x="327" y="682" type="curve" smooth="yes"/>
      <point x="213" y="682"/>
      <point x="95" y="640"/>
      <point x="95" y="509" type="curve" smooth="yes"/>
      <point x="95" y="409"/>
      <point x="208" y="357"/>
      <point x="305" y="331" type="curve" smooth="yes"/>
      <point x="463" y="288"/>
      <point x="474" y="228"/>
      <point x="474" y="198" type="curve" smooth="yes"/>
      <point x="474" y="93"/>
      <point x="378" y="53"/>
      <point x="303" y="53" type="curve" smooth="yes"/>
      <point x="232" y="53"/>
      <point x="146" y="87"/>
      <point x="120" y="163" type="curve" smooth="yes"/>
      <point x="115" y="177"/>
      <point x="105" y="186"/>
      <point x="90" y="186" type="curve" smooth="yes"/>
      <point x="73" y="186"/>
      <point x="60" y="173"/>
      <point x="60" y="157" type="curve" smooth="yes"/>
      <point x="60" y="152"/>
      <point x="62" y="144"/>
      <point x="64" y="140" type="curve"/>
      <point x="97" y="57"/>
      <point x="191" y="0"/>
      <point x="304" y="0" type="curve" smooth="yes"/>
      <point x="407" y="0"/>
      <point x="537" y="60"/>
      <point x="537" y="191" type="curve" smooth="yes"/>
      <point x="537" y="283"/>
      <point x="465" y="347"/>
      <point x="318" y="388" type="curve" smooth="yes"/>
    </contour>
    <contour>
      <point x="426" y="853" type="line" smooth="yes"/>
      <point x="433" y="858"/>
      <point x="436" y="867"/>
      <point x="436" y="876" type="curve" smooth="yes"/>
      <point x="436" y="896"/>
      <point x="421" y="912"/>
      <point x="402" y="912" type="curve" smooth="yes"/>
      <point x="391" y="912"/>
      <point x="381" y="904"/>
      <point x="373" y="897" type="curve" smooth="yes"/>
      <point x="247" y="794" type="line" smooth="yes"/>
      <point x="242" y="790"/>
      <point x="241" y="783"/>
      <point x="241" y="777" type="curve" smooth="yes"/>
      <point x="241" y="762"/>
      <point x="253" y="750"/>
      <point x="267" y="750" type="curve" smooth="yes"/>
      <point x="273" y="750"/>
      <point x="281" y="754"/>
      <point x="288" y="759" type="curve" smooth="yes"/>
    </contour>
  </outline>
</glyph>
<glyph name="Scedilla" format="1">
  <advance width="598"/>
  <unicode hex="015E"/>
  <outline>
    <contour>
      <point x="247" y="-33" type="line"/>
      <point x="243" y="-43"/>
      <point x="241" y="-50"/>
      <point x="241" y="-56" type="curve" smooth="yes"/>
      <point x="241" y="-68"/>
      <point x="251" y="-76"/>
      <point x="262" y="-76" type="curve" smooth="yes"/>
      <point x="266" y="-76"/>
      <point x="270" y="-74"/>
      <point x="274" y="-71" type="curve"/>
      <point x="281" y="-67"/>
      <point x="290" y="-61"/>
      <point x="305" y="-61" type="curve" smooth="yes"/>
      <point x="332" y="-61"/>
      <point x="354" y="-83"/>
      <point x="354" y="-110" type="curve" smooth="yes"/>
      <point x="354" y="-137"/>
      <point x="332" y="-159"/>
      <point x="305" y="-159" type="curve" smooth="yes"/>
      <point x="282" y="-159"/>
      <point x="273" y="-148"/>
      <point x="265" y="-139" type="curve" smooth="yes"/>
      <point x="260" y="-133"/>
      <point x="255" y="-128"/>
      <point x="247" y="-128" type="curve" smooth="yes"/>
      <point x="235" y="-128"/>
      <point x="226" y="-138"/>
      <point x="226" y="-146" type="curve" smooth="yes"/>
      <point x="226" y="-179"/>
      <point x="273" y="-201"/>
      <point x="305" y="-201" type="curve" smooth="yes"/>
      <point x="355" y="-201"/>
      <point x="396" y="-160"/>
      <point x="396" y="-110" type="curve" smooth="yes"/>
      <point x="396" y="-62"/>
      <point x="362" y="-19"/>
      <point x="294" y="-19" type="curve"/>
      <point x="295" y="0" type="line"/>
      <point x="304" y="0" type="line" smooth="yes"/>
      <point x="407" y="0"/>
      <point x="537" y="60"/>
      <point x="537" y="191" type="curve" smooth="yes"/>
      <point x="537" y="283"/>
      <point x="465" y="347"/>
      <point x="318" y="388" type="curve" smooth="yes"/>
      <point x="213" y="417"/>
      <point x="159" y="456"/>
      <point x="159" y="506" type="curve" smooth="yes"/>
      <point x="159" y="602"/>
      <point x="237" y="632"/>
      <point x="324" y="632" type="curve" smooth="yes"/>
      <point x="396" y="632"/>
      <point x="473" y="604"/>
      <point x="480" y="542" type="curve"/>
      <point x="481" y="529"/>
      <point x="493" y="518"/>
      <point x="507" y="518" type="curve" smooth="yes"/>
      <point x="523" y="518"/>
      <point x="535" y="531"/>
      <point x="534" y="548" type="curve" smooth="yes"/>
      <point x="526" y="662"/>
      <point x="401" y="682"/>
      <point x="327" y="682" type="curve" smooth="yes"/>
      <point x="213" y="682"/>
      <point x="95" y="640"/>
      <point x="95" y="509" type="curve" smooth="yes"/>
      <point x="95" y="409"/>
      <point x="208" y="357"/>
      <point x="305" y="331" type="curve" smooth="yes"/>
      <point x="463" y="288"/>
      <point x="474" y="228"/>
      <point x="474" y="198" type="curve" smooth="yes"/>
      <point x="474" y="93"/>
      <point x="378" y="53"/>
      <point x="303" y="53" type="curve" smooth="yes"/>
      <point x="232" y="53"/>
      <point x="146" y="87"/>
      <point x="120" y="163" type="curve" smooth="yes"/>
      <point x="115" y="177"/>
      <point x="105" y="186"/>
      <point x="90" y="186" type="curve" smooth="yes"/>
      <point x="73" y="186"/>
      <point x="60" y="173"/>
      <point x="60" y="157" type="curve" smooth="yes"/>
      <point x="60" y="152"/>
      <point x="62" y="144"/>
      <point x="64" y="140" type="curve"/>
      <point x="92" y="68"/>
      <point x="167" y="16"/>
      <point x="259" y="3" type="curve"/>
    </contour>
  </outline>
</glyph>
<glyph name="scaron" format="1">
  <advance width="458"/>
  <unicode hex="0161"/>
  <outline>
    <contour>
      <point x="242" y="573" type="line"/>
      <point x="248" y="568"/>
      <point x="255" y="565"/>
      <point x="262" y="565" type="curve" smooth="yes"/>
      <point x="268" y="565"/>
      <point x="275" y="567"/>
      <point x="281" y="572" type="curve" smooth="yes"/>
      <point x="412" y="682" type="line"/>
      <point x="419" y="687"/>
      <point x="422" y="695"/>
      <point x="422" y="703" type="curve" smooth="yes"/>
      <point x="422" y="718"/>
      <point x="410" y="729"/>
      <point x="396" y="729" type="curve" smooth="yes"/>
      <point x="390" y="729"/>
      <point x="384" y="728"/>
      <point x="379" y="724" type="curve" smooth="yes"/>
      <point x="264" y="635" type="line"/>
      <point x="168" y="722" type="line"/>
      <point x="163" y="727"/>
      <point x="156" y="729"/>
      <point x="149" y="729" type="curve" smooth="yes"/>
      <point x="135" y="729"/>
      <point x="123" y="717"/>
      <point x="123" y="703" type="curve" smooth="yes"/>
      <point x="123" y="695"/>
      <point x="126" y="688"/>
      <point x="132" y="683" type="curve"/>
    </contour>
    <contour>
      <point x="338" y="-2"/>
      <point x="404" y="72"/>
      <point x="404" y="139" type="curve" smooth="yes"/>
      <point x="404" y="239"/>
      <point x="332" y="261"/>
      <point x="239" y="291" type="curve" smooth="yes"/>
      <point x="199" y="303"/>
      <point x="132" y="322"/>
      <point x="132" y="379" type="curve" smooth="yes"/>
      <point x="132" y="424"/>
      <point x="182" y="449"/>
      <point x="253" y="449" type="curve" smooth="yes"/>
      <point x="322" y="449"/>
      <point x="352" y="425"/>
      <point x="352" y="388" type="curve" smooth="yes"/>
      <point x="352" y="379"/>
      <point x="350" y="371"/>
      <point x="350" y="368" type="curve" smooth="yes"/>
      <point x="350" y="354"/>
      <point x="359" y="341"/>
      <point x="377" y="341" type="curve" smooth="yes"/>
      <point x="397" y="341"/>
      <point x="405" y="357"/>
      <point x="405" y="387" type="curve" smooth="yes"/>
      <point x="405" y="455"/>
      <point x="351" y="499"/>
      <point x="250" y="499" type="curve" smooth="yes"/>
      <point x="179" y="499"/>
      <point x="80" y="475"/>
      <point x="80" y="380" type="curve" smooth="yes"/>
      <point x="80" y="309"/>
      <point x="127" y="271"/>
      <point x="233" y="239" type="curve" smooth="yes"/>
      <point x="331" y="210"/>
      <point x="351" y="185"/>
      <point x="351" y="140" type="curve" smooth="yes"/>
      <point x="351" y="111"/>
      <point x="322" y="51"/>
      <point x="233" y="51" type="curve" smooth="yes"/>
      <point x="169" y="51"/>
      <point x="121" y="83"/>
      <point x="103" y="136" type="curve"/>
      <point x="100" y="147"/>
      <point x="91" y="155"/>
      <point x="78" y="155" type="curve" smooth="yes"/>
      <point x="63" y="155"/>
      <point x="51" y="143"/>
      <point x="51" y="128" type="curve" smooth="yes"/>
      <point x="51" y="94"/>
      <point x="110" y="-2"/>
      <point x="233" y="-2" type="curve" smooth="yes"/>
    </contour>
  </outline>
</glyph>
<glyph name="uhungarumlaut" format="1">
  <advance width="512"/>
  <unicode hex="0171"/>
  <outline>
    <contour>
      <point x="447" y="475" type="line" smooth="yes"/>
      <point x="447" y="490"/>
      <point x="435" y="500"/>
      <point x="421" y="500" type="curve" smooth="yes"/>
      <point x="407" y="500"/>
      <point x="395" y="490"/>
      <point x="395" y="475" type="curve" smooth="yes"/>
      <point x="390" y="161" type="line"/>
      <point x="390" y="161"/>
      <point x="390" y="133"/>
      <point x="377" y="118" type="curve" smooth="yes"/>
      <point x="356" y="94"/>
      <point x="286" y="46"/>
      <point x="217" y="46" type="curve" smooth="yes"/>
      <point x="118" y="46"/>
      <point x="120" y="170"/>
      <point x="120" y="292" type="curve" smooth="yes"/>
      <point x="120" y="384"/>
      <point x="131" y="450"/>
      <point x="133" y="474" type="curve" smooth="yes"/>
      <point x="134" y="489"/>
      <point x="120" y="500"/>
      <point x="105" y="500" type="curve" smooth="yes"/>
      <point x="91" y="500"/>
      <point x="82" y="495"/>
      <point x="78" y="466" type="curve" smooth="yes"/>
      <point x="73" y="428"/>
      <point x="65" y="368"/>
      <point x="66" y="291" type="curve" smooth="yes"/>
      <point x="67" y="143"/>
      <point x="65" y="-3"/>
      <point x="217" y="-3" type="curve" smooth="yes"/>
      <point x="294" y="-3"/>
      <point x="361" y="40"/>
      <point x="386" y="76" type="curve"/>
      <point x="386" y="33" type="line" smooth="yes"/>
      <point x="386" y="15"/>
      <point x="398" y="0"/>
      <point x="417" y="0" type="curve" smooth="yes"/>
      <point x="433" y="0"/>
      <point x="447" y="13"/>
      <point x="447" y="28" type="curve" smooth="yes"/>
    </contour>
    <contour>
      <point x="303" y="665" type="line" smooth="yes"/>
      <point x="310" y="670"/>
      <point x="313" y="679"/>
      <point x="313" y="688" type="curve" smooth="yes"/>
      <point x="313" y="708"/>
      <point x="298" y="724"/>
      <point x="279" y="724" type="curve" smooth="yes"/>
      <point x="268" y="724"/>
      <point x="258" y="716"/>
      <point x="250" y="709" type="curve" smooth="yes"/>
      <point x="124" y="606" type="line" smooth="yes"/>
      <point x="119" y="602"/>
      <point x="118" y="595"/>
      <point x="118" y="589" type="curve" smooth="yes"/>
      <point x="118" y="574"/>
      <point x="130" y="562"/>
      <point x="144" y="562" type="curve" smooth="yes"/>
      <point x="150" y="562"/>
      <point x="158" y="566"/>
      <point x="165" y="571" type="curve" smooth="yes"/>
    </contour>
    <contour>
      <point x="463" y="665" type="line" smooth="yes"/>
      <point x="470" y="670"/>
      <point x="473" y="679"/>
      <point x="473" y="688" type="curve" smooth="yes"/>
      <point x="473" y="708"/>
      <point x="458" y="724"/>
      <point x="439" y="724" type="curve" smooth="yes"/>
      <point x="428" y="724"/>
      <point x="418" y="716"/>
      <point x="410" y="709" type="curve" smooth="yes"/>
      <point x="284" y="606" type="line" smooth="yes"/>
      <point x="279" y="602"/>
      <point x="278" y="595"/>
      <point x="278" y="589" type="curve" smooth="yes"/>
      <point x="278" y="574"/>
      <point x="290" y="562"/>
      <point x="304" y="562" type="curve" smooth="yes"/>
      <point x="310" y="562"/>
      <point x="318" y="566"/>
      <point x="325" y="571" type="curve" smooth="yes"/>
    </contour>
  </outline>
</glyph>
